<?xml version="1.0" encoding="UTF-8"?>
<!-- BACK separation — BLACK plate — LibertyLift1776 merch. 2 spot colors: Black + PMS 193 C (Old Glory Red). Vector art at final print size. -->
<svg xmlns="http://www.w3.org/2000/svg" width="2.58in" height="16.55in" viewBox="0 0 321 2061">
  <g id="plate-black" fill="#000000" fill-rule="nonzero">
    <path d="M0 0 C1.46 0.04 2.92 0.07 4.38 0.1 C7.95 0.17 11.5 0.29 15.06 0.44 C15.23 1.26 15.23 1.26 16.06 5.44 C15.07 5.77 14.08 6.1 13.06 6.44 C13.06 17.99 13.06 29.54 13.06 41.44 C12.07 41.77 11.08 42.1 10.06 42.44 C10.06 43.43 10.06 44.42 10.06 45.44 C11.05 45.77 12.04 46.1 13.06 46.44 C13.09 58.29 13.1 70.13 13.11 81.98 C13.12 87.48 13.13 92.98 13.14 98.48 C13.15 103.79 13.15 109.09 13.16 114.39 C13.16 116.42 13.16 118.45 13.17 120.48 C13.18 123.31 13.18 126.14 13.18 128.97 C13.18 129.82 13.18 130.67 13.19 131.54 C13.19 132.31 13.18 133.07 13.18 133.86 C13.18 134.53 13.18 135.2 13.19 135.89 C13.06 137.44 13.06 137.44 12.06 138.44 C9.77 138.54 7.51 138.58 5.22 138.57 C4.88 138.57 4.88 138.57 3.15 138.57 C1.7 138.57 0.25 138.57 -1.2 138.57 C-3.43 138.56 -5.65 138.57 -7.88 138.57 C-9.28 138.57 -10.69 138.57 -12.09 138.57 C-12.76 138.57 -13.43 138.57 -14.12 138.58 C-18.82 138.55 -18.82 138.55 -19.94 137.44 C-20.04 136.01 -20.08 134.57 -20.08 133.13 C-20.09 132.22 -20.1 131.3 -20.1 130.36 C-20.1 129.37 -20.1 128.37 -20.11 127.35 C-20.11 126.33 -20.11 125.32 -20.12 124.27 C-20.12 122.12 -20.12 119.97 -20.12 117.82 C-20.12 114.52 -20.14 111.22 -20.16 107.92 C-20.17 105.83 -20.17 103.75 -20.17 101.66 C-20.18 100.67 -20.18 99.67 -20.19 98.65 C-20.19 97.73 -20.18 96.82 -20.18 95.87 C-20.18 95.06 -20.18 94.25 -20.18 93.42 C-19.94 91.44 -19.94 91.44 -17.94 89.44 C-17.67 87.78 -17.67 87.78 -17.69 85.94 C-17.68 85.33 -17.68 84.72 -17.67 84.09 C-17.94 82.44 -17.94 82.44 -19.94 80.44 C-20.22 78.45 -20.22 78.45 -20.26 75.99 C-20.28 75.07 -20.3 74.15 -20.32 73.2 C-20.33 72.2 -20.34 71.21 -20.35 70.18 C-20.37 69.16 -20.39 68.14 -20.41 67.09 C-20.47 63.83 -20.52 60.57 -20.56 57.31 C-20.6 55.11 -20.64 52.9 -20.68 50.69 C-20.78 45.27 -20.86 39.86 -20.94 34.44 C-25.81 35.31 -25.81 35.31 -26.94 36.44 C-28.7 36.66 -30.47 36.88 -32.25 37.06 C-33.94 37.44 -33.94 37.44 -35.94 39.44 C-38.56 39.06 -38.56 39.06 -40.94 38.44 C-40.96 34.9 -40.98 31.35 -40.99 27.81 C-41 26.61 -41 25.4 -41.01 24.19 C-41.03 22.46 -41.03 20.73 -41.04 19 C-41.04 17.96 -41.05 16.92 -41.05 15.85 C-40.94 13.44 -40.94 13.44 -39.94 12.44 C-37.39 12.15 -34.84 11.99 -32.29 11.82 C-29.94 11.44 -29.94 11.44 -27.94 9.44 C-27.58 9.32 -27.58 9.32 -25.75 8.75 C-22.72 7.34 -22.19 6.46 -20.26 3.88 C-14.78 -1.72 -7.26 -0.3 0 0 Z M4.06 21.44 C4.06 23.09 4.06 24.74 4.06 26.44 C4.89 26.6 4.89 26.6 9.06 27.44 C9.06 24.41 9.02 23.6 7.06 21.44 C6.07 21.44 5.08 21.44 4.06 21.44 Z M-7.94 42.44 C-7.96 44.25 -7.98 46.06 -8 47.88 C-8.01 48.88 -8.02 49.89 -8.04 50.93 C-7.94 53.44 -7.94 53.44 -6.94 54.44 C-5.59 54.51 -4.23 54.52 -2.88 54.5 C-2.51 54.5 -2.51 54.5 -0.65 54.47 C-0.09 54.46 0.48 54.45 1.06 54.44 C1.06 53.45 1.06 52.46 1.06 51.44 C0.26 50.82 -0.55 50.2 -1.38 49.56 C-3.94 47.44 -3.94 47.44 -4.75 44.69 C-4.81 43.95 -4.87 43.2 -4.94 42.44 C-5.93 42.44 -6.92 42.44 -7.94 42.44 Z M1.06 42.44 C-0.06 46.19 -0.06 46.19 1.06 48.44 C2.05 48.44 3.04 48.44 4.06 48.44 C4.06 46.46 4.06 44.48 4.06 42.44 C3.07 42.44 2.08 42.44 1.06 42.44 Z M-10.94 72.44 C-10.94 73.43 -10.94 74.42 -10.94 75.44 C-9.95 75.44 -8.96 75.44 -7.94 75.44 C-7.94 74.45 -7.94 73.46 -7.94 72.44 C-8.93 72.44 -9.92 72.44 -10.94 72.44 Z M1.06 84.44 C0.81 87.46 0.86 89.08 2.38 91.75 C2.93 92.31 3.49 92.86 4.06 93.44 C5.05 93.44 6.04 93.44 7.06 93.44 C7.31 90.41 7.27 88.8 5.75 86.12 C5.19 85.57 4.64 85.01 4.06 84.44 C3.07 84.44 2.08 84.44 1.06 84.44 Z M-7.94 87.44 C-7.94 88.43 -7.94 89.42 -7.94 90.44 C-6.95 90.44 -5.96 90.44 -4.94 90.44 C-4.94 89.45 -4.94 88.46 -4.94 87.44 C-5.93 87.44 -6.92 87.44 -7.94 87.44 Z M-7.94 123.44 C-7.94 124.43 -7.94 125.42 -7.94 126.44 C-5.96 126.44 -3.98 126.44 -1.94 126.44 C-1.94 125.45 -1.94 124.46 -1.94 123.44 C-3.92 123.44 -5.9 123.44 -7.94 123.44 Z " transform="translate(172.9375,473.5625)"/>
    <path d="M0 0 C0.99 0 1.98 0 3 0 C3.33 0.66 3.66 1.32 4 2 C4.76 2.01 5.52 2.02 6.31 2.03 C13.48 2.13 20.64 2.23 27.81 2.34 C31.49 2.39 35.18 2.45 38.86 2.5 C42.42 2.54 45.97 2.6 49.52 2.65 C50.88 2.67 52.24 2.69 53.6 2.71 C55.49 2.73 57.39 2.76 59.29 2.79 C60.37 2.81 61.45 2.83 62.56 2.84 C65 3 65 3 66 4 C66.04 5.67 66.04 7.33 66 9 C66.99 9 67.98 9 69 9 C68.98 8.2 68.96 7.39 68.94 6.56 C69 4 69 4 70 3 C71.56 2.88 71.56 2.88 73.6 2.89 C73.98 2.89 73.98 2.89 75.91 2.89 C76.32 2.89 76.32 2.89 78.41 2.9 C79.25 2.9 80.09 2.91 80.96 2.91 C83.66 2.91 86.36 2.92 89.06 2.94 C90.89 2.94 92.71 2.95 94.54 2.95 C99.03 2.96 103.51 2.98 108 3 C108 3.99 108 4.98 108 6 C107.34 6.33 106.68 6.66 106 7 C105.94 10.62 105.91 14.25 105.88 17.88 C105.87 18.39 105.87 18.39 105.82 21 C105.82 21.99 105.81 22.98 105.8 23.99 C105.79 24.9 105.78 25.81 105.77 26.75 C106 29 106 29 108 31 C107.62 33.62 107.62 33.62 107 36 C106.34 36 105.68 36 105 36 C105.1 36.72 105.21 37.44 105.31 38.19 C104.94 41.58 103.71 42.53 101.23 44.75 C99.46 46.55 98.9 48.67 98 51 C96.67 52.33 95.33 53.67 94 55 C92.94 57.37 92.94 57.37 92 60 C90.13 64.17 88.2 66.8 85 70 C83.94 72.38 83.94 72.38 83 75 C81.13 79.17 79.2 81.8 76 85 C74.94 87.38 74.94 87.38 74 90 C72.56 93.21 71.48 95.56 68.88 97.94 C66.64 100.4 66.68 102.04 66.41 105.27 C65.91 107.39 65.15 108.16 63.56 109.62 C60.96 112.04 60.05 113.66 59 117 C58.34 117 57.68 117 57 117 C57.04 117.78 57.08 118.57 57.12 119.38 C57 122 57 122 55 124 C54.31 125.66 53.64 127.32 53 129 C52.67 129.33 52.34 129.66 52 130 C51.8 131.16 51.63 132.33 51.5 133.5 C51.11 136.89 51.11 136.89 50 138 C45 138.27 45 138.27 43 138 C42.67 137.67 42.67 137.67 41 136 C39.27 135.59 39.27 135.59 37.38 135.38 C36.26 135.25 35.15 135.13 34 135 C33.67 134.01 33.34 133.02 33 132 C32.01 132 31.02 132 30 132 C29.67 132.99 29.34 133.98 29 135 C27.24 135.2 25.48 135.39 23.73 135.59 C22 136 22 136 20 138 C17.37 137.62 17.37 137.62 15 137 C15.33 135.35 15.66 133.7 16 132 C16.66 132 17.32 132 18 132 C17.9 131.28 17.79 130.56 17.69 129.81 C18.06 126.43 19.28 125.48 21.75 123.27 C23.55 121.44 24.24 119.41 25 117 C25.66 117 26.32 117 27 117 C26.9 116.28 26.79 115.56 26.69 114.81 C27.06 111.43 28.28 110.48 30.76 108.27 C32.55 106.44 33.2 104.39 34 102 C34.33 101.67 34.66 101.34 35 101 C35.08 99.93 35.16 98.86 35.25 97.75 C35.62 94.78 36.24 93.4 38.44 91.38 C41.12 88.89 41.72 87.33 43 84 C44.33 82.67 45.67 81.33 47 80 C48.06 77.62 48.06 77.62 49 75 C49.96 72.98 50.98 70.99 52 69 C52.66 69 53.32 69 54 69 C53.95 68.64 53.95 68.64 53.69 66.81 C54.06 63.42 55.29 62.47 57.77 60.25 C59.54 58.45 60.1 56.33 61 54 C62.33 52.67 63.67 51.33 65 50 C66.06 47.63 66.06 47.63 67 45 C68.46 41.74 69.62 39.37 72.19 36.88 C74 35 74 35 74.11 32.88 C74.09 32.57 74.09 32.57 74 31 C65.35 30.88 56.7 30.8 48.05 30.74 C44.04 30.71 40.02 30.68 36 30.62 C32.13 30.57 28.25 30.54 24.37 30.53 C22.89 30.52 21.41 30.5 19.94 30.47 C17.86 30.43 15.79 30.43 13.72 30.43 C13.41 30.42 13.41 30.42 11.87 30.38 C9.4 30.41 7.52 30.57 5.57 32.16 C4.37 33.43 3.18 34.71 2 36 C-0.81 35.81 -0.81 35.81 -3 35 C-2.67 33.35 -2.34 31.7 -2 30 C-1.34 30 -0.68 30 0 30 C0 20.1 0 10.2 0 0 Z M90 9 C90 9.99 90 10.98 90 12 C90.99 12 91.98 12 93 12 C93 11.01 93 10.02 93 9 C92.01 9 91.02 9 90 9 Z M90 21 C90 21.99 90 22.98 90 24 C90.99 24 91.98 24 93 24 C93 23.01 93 22.02 93 21 C92.01 21 91.02 21 90 21 Z M48 24 C48 24.99 48 25.98 48 27 C48.99 27 49.98 27 51 27 C51 26.01 51 25.02 51 24 C50.01 24 49.02 24 48 24 Z M96 24 C96 24.99 96 25.98 96 27 C96.99 27 97.98 27 99 27 C99 26.01 99 25.02 99 24 C98.01 24 97.02 24 96 24 Z M91 27 C90 28 90 28 89.94 30.56 C89.96 31.37 89.98 32.17 90 33 C90.99 33 91.98 33 93 33 C93 31.35 93 29.7 93 28 C92.34 27.67 91.68 27.34 91 27 Z M90 39 C89.96 40.67 89.96 42.33 90 44 C91 45 91 45 93.56 45.06 C94.37 45.04 95.17 45.02 96 45 C96 42 96 42 94.69 40.31 C93 39 93 39 90 39 Z M60 66 C60 69 60 69 61.31 70.69 C63 72 63 72 66 72 C66.04 70.33 66.04 68.67 66 67 C65 66 65 66 62.44 65.94 C61.63 65.96 60.83 65.98 60 66 Z M54 108 C54 108.99 54 109.98 54 111 C54.99 111 55.98 111 57 111 C57 110.01 57 109.02 57 108 C56.01 108 55.02 108 54 108 Z M30 117 C29.94 117.74 29.88 118.49 29.81 119.25 C28.76 122.82 26.89 123.78 24 126 C24 126.99 24 127.98 24 129 C25.65 129 27.3 129 29 129 C29.14 128.6 29.14 128.6 29.88 126.56 C31 124 31 124 33 123 C33 121.02 33 119.04 33 117 C32.01 117 31.02 117 30 117 Z M36 129 C36.33 129.99 36.66 130.98 37 132 C38.65 131.67 40.3 131.34 42 131 C42 130.34 42 129.68 42 129 C40.02 129 38.04 129 36 129 Z " transform="translate(111,663)"/>
    <path d="M0 0 C0.99 0 1.98 0 3 0 C3.33 0.66 3.66 1.32 4 2 C14.23 2 24.46 2 35 2 C35.33 1.34 35.66 0.68 36 0 C37 0.5 37 0.5 42 3 C42.33 2.01 42.66 1.02 43 0 C47.88 0.88 47.88 0.88 49 2 C51.2 2.07 53.37 2.09 55.56 2.06 C56.18 2.06 56.79 2.05 57.43 2.05 C58.95 2.04 60.48 2.02 62 2 C62.33 1.34 62.66 0.68 63 0 C63.99 0 64.98 0 66 0 C66.16 0.33 66.16 0.33 67 2 C69.31 2 71.62 2 74 2 C74.33 1.34 74.66 0.68 75 0 C75.99 0 76.98 0 78 0 C78.16 0.33 78.16 0.33 79 2 C86.26 2 93.52 2 101 2 C101.33 1.34 101.66 0.68 102 0 C105 0 105 0 106.67 1.4 C108.71 5.39 108.39 9.21 108.31 13.62 C108.32 14.5 108.32 15.37 108.32 16.27 C108.27 22.73 108.27 22.73 106 25 C106.31 27.31 106.31 27.31 107 30 C107.33 31.67 107.67 33.33 108 35 C107.5 35.16 107.5 35.16 105 36 C105.1 36.72 105.21 37.44 105.31 38.19 C104.94 41.57 103.72 42.52 101.25 44.73 C99.45 46.56 98.76 48.59 98 51 C97.34 51 96.68 51 96 51 C96.1 51.72 96.21 52.44 96.31 53.19 C95.94 56.58 94.7 57.53 92.23 59.75 C90.42 61.58 89.82 63.59 89 66 C87.13 70.17 85.2 72.8 82 76 C80.94 78.38 80.94 78.38 80 81 C78.13 85.17 76.2 87.8 73 91 C71.94 93.38 71.94 93.38 71 96 C69.13 100.17 67.2 102.8 64 106 C62.94 108.38 62.94 108.38 62 111 C60.13 115.17 58.2 117.8 55 121 C53.94 123.38 53.94 123.38 53 126 C52.04 128.02 51.02 130.01 50 132 C49.34 132 48.68 132 48 132 C48 133.98 48 135.96 48 138 C47.01 138 46.02 138 45 138 C44.67 137.34 44.34 136.68 44 136 C38.72 135.84 38.72 135.84 12 135 C12 132 12 132 13.46 130.39 C14.09 129.87 14.72 129.35 15.38 128.81 C16 128.28 16.63 127.75 17.27 127.21 C19 126 19 126 21 126 C21 124.02 21 122.04 21 120 C21.99 120 22.98 120 24 120 C23.9 119.28 23.79 118.56 23.69 117.81 C24.06 114.42 25.3 113.47 27.77 111.25 C29.58 109.42 30.18 107.41 31 105 C31.98 102.99 32.98 100.99 34 99 C34.47 97.97 34.95 96.94 35.44 95.88 C37 92.99 38.7 91.3 41 89 C42.06 86.62 42.06 86.62 43 84 C44.87 79.83 46.8 77.2 50 74 C50.69 72.34 51.36 70.68 52 69 C53.5 67.19 53.5 67.19 55 66 C55.66 66 56.32 66 57 66 C57 64.35 57 62.7 57 61 C57.99 60.67 58.98 60.34 60 60 C59.95 59.64 59.95 59.64 59.69 57.81 C60.06 54.42 61.3 53.47 63.77 51.25 C65.58 49.42 66.18 47.41 67 45 C68.46 41.74 69.62 39.37 72.19 36.88 C74 35 74 35 74.11 32.88 C74.09 32.57 74.09 32.57 74 31 C65.3 30.95 56.6 30.92 47.9 30.9 C43.86 30.89 39.82 30.87 35.78 30.85 C31.88 30.83 27.98 30.82 24.09 30.81 C22.6 30.81 21.11 30.8 19.62 30.79 C17.54 30.77 15.46 30.77 13.38 30.77 C12.76 30.77 12.14 30.76 11.5 30.75 C7.23 30.77 7.23 30.77 5 33 C3.05 33.2 3.05 33.2 0.88 33.12 C0.51 33.12 0.51 33.12 -1.32 33.07 C-1.87 33.05 -2.43 33.02 -3 33 C-3 32.01 -3 31.02 -3 30 C-2.34 29.67 -1.68 29.34 -1 29 C-0.67 19.43 -0.34 9.86 0 0 Z M63 12 C63 12.99 63 13.98 63 15 C65.97 15 68.94 15 72 15 C72 14.01 72 13.02 72 12 C69.03 12 66.06 12 63 12 Z M90 12 C90 13.98 90 15.96 90 18 C90.99 18 91.98 18 93 18 C93 16.02 93 14.04 93 12 C92.01 12 91.02 12 90 12 Z M51 15 C51 15.99 51 16.98 51 18 C51.99 18 52.98 18 54 18 C54 17.01 54 16.02 54 15 C53.01 15 52.02 15 51 15 Z M57 21 C57 21.99 57 22.98 57 24 C57.99 24 58.98 24 60 24 C60 23.01 60 22.02 60 21 C59.01 21 58.02 21 57 21 Z M84 30 C84 30.99 84 31.98 84 33 C85.98 33 87.96 33 90 33 C90 32.01 90 31.02 90 30 C88.02 30 86.04 30 84 30 Z M93 42 C93 42.99 93 43.98 93 45 C93.99 45 94.98 45 96 45 C96 44.01 96 43.02 96 42 C95.01 42 94.02 42 93 42 Z M64.31 58.12 C62.46 60.76 62.79 62.86 63 66 C63.99 66 64.98 66 66 66 C66.12 65.2 66.25 64.39 66.38 63.56 C66.58 62.72 66.79 61.87 67 61 C67.66 60.67 68.32 60.34 69 60 C69 59.01 69 58.02 69 57 C66 57 66 57 64.31 58.12 Z M75 66 C75 66.99 75 67.98 75 69 C75.99 69 76.98 69 78 69 C78 68.01 78 67.02 78 66 C77.01 66 76.02 66 75 66 Z M63 81 C63 81.99 63 82.98 63 84 C63.99 84 64.98 84 66 84 C66 83.01 66 82.02 66 81 C65.01 81 64.02 81 63 81 Z M45 93 C45 94.98 45 96.96 45 99 C45.99 99 46.98 99 48 99 C48 97.02 48 95.04 48 93 C47.01 93 46.02 93 45 93 Z M31 117 C30.77 117.72 30.55 118.44 30.31 119.19 C29.08 121.82 28.4 122.68 26.31 124.5 C25.55 125.33 24.79 126.15 24 127 C24.19 129.81 24.19 129.81 25 132 C26.65 131.67 28.3 131.34 30 131 C30.06 129.93 30.12 128.86 30.19 127.75 C30.63 124.45 30.88 124.11 33.56 121.75 C33.96 121.46 33.96 121.46 36 120 C36 119.01 36 118.02 36 117 C34.35 117 32.7 117 31 117 Z M34 126 C33.67 126.99 33.34 127.98 33 129 C34.98 129 36.96 129 39 129 C39 128.01 39 127.02 39 126 C37.35 126 35.7 126 34 126 Z " transform="translate(111,852)"/>
    <path d="M0 0 C0.6 0.03 1.2 0.07 1.81 0.1 C11.63 0.7 11.63 0.7 14 3.07 C14.78 3.37 15.55 3.67 16.35 3.98 C24.4 7.31 32.18 15.98 37 23.07 C38.9 28.43 38.34 33.65 37 39.07 C36 40.07 36 40.07 33.32 40.19 C32.14 40.19 30.96 40.18 29.78 40.17 C29.16 40.17 28.54 40.17 27.9 40.17 C25.92 40.16 23.93 40.15 21.94 40.14 C20.6 40.13 19.25 40.13 17.91 40.12 C14.61 40.11 11.31 40.09 8 40.07 C7.61 39.19 7.22 38.3 6.82 37.39 C5.09 34.01 3.25 31.15 0 29.07 C-2.58 28.37 -5.04 28.35 -7.71 28.38 C-8.44 28.37 -9.18 28.36 -9.93 28.35 C-11.48 28.35 -13.02 28.35 -14.57 28.37 C-16.92 28.39 -19.27 28.35 -21.63 28.3 C-23.13 28.3 -24.64 28.31 -26.15 28.31 C-26.85 28.3 -27.54 28.28 -28.26 28.27 C-32.22 28.36 -34.48 29.06 -37.45 31.74 C-40.14 34.8 -40.71 37 -40.58 41.13 C-40.57 41.68 -40.57 41.68 -40.52 44.49 C-40.5 45.06 -40.5 45.06 -40.37 47.95 C-40.34 49.13 -40.31 50.3 -40.29 51.48 C-40.22 54.35 -40.12 57.21 -40 60.07 C-38.68 60.07 -37.36 60.07 -36 60.07 C-35.91 59.31 -35.83 58.55 -35.75 57.76 C-35 55.07 -35 55.07 -33.55 53.47 C-29.63 51.33 -25.73 51.27 -21.32 51.01 C-20.36 50.95 -19.4 50.89 -18.42 50.83 C16.44 49.1 16.44 49.1 27.53 59.04 C37.51 69.01 39.56 81.88 39.75 95.57 C39.48 108.62 37.87 122.31 28.54 132.1 C17.05 142.64 -1.81 140.98 -16.37 140.95 C-17.07 140.95 -17.76 140.95 -18.48 140.95 C-22.56 140.94 -26.64 140.87 -30.72 140.7 C-31.99 140.65 -33.25 140.62 -34.52 140.59 C-41.19 140.42 -45.75 140.02 -50.52 135.1 C-51.08 134.4 -51.65 133.69 -52.23 132.96 C-54.32 130.73 -56.13 130.08 -59 129.07 C-63.97 126.2 -68.29 122.16 -71 117.07 C-72.75 110.44 -72.39 103.53 -72.12 96.74 C-72 93.55 -71.96 90.38 -71.93 87.19 C-71.9 85.16 -71.86 83.13 -71.81 81.11 C-71.79 80.16 -71.77 79.21 -71.76 78.23 C-71.47 71.72 -71.47 71.72 -69.09 68.49 C-67 67.08 -65.48 66.43 -63 66.07 C-63 64.75 -63 63.43 -63 62.07 C-64.79 61.85 -66.58 61.62 -68.37 61.39 C-70 61.07 -70 61.07 -71 60.07 C-73.58 45.72 -74.65 29.12 -66.28 16.47 C-50.42 -4.78 -23.73 -1.35 0 0 Z M-62 37.07 C-62 38.06 -62 39.05 -62 40.07 C-61.01 40.07 -60.02 40.07 -59 40.07 C-59 39.08 -59 38.09 -59 37.07 C-59.99 37.07 -60.98 37.07 -62 37.07 Z M-8 61.07 C-8 62.06 -8 63.05 -8 64.07 C-6.02 64.07 -4.04 64.07 -2 64.07 C-2 63.08 -2 62.09 -2 61.07 C-3.98 61.07 -5.96 61.07 -8 61.07 Z M-17 67.07 C-17 68.06 -17 69.05 -17 70.07 C-16.01 70.07 -15.02 70.07 -14 70.07 C-14 69.08 -14 68.09 -14 67.07 C-14.99 67.07 -15.98 67.07 -17 67.07 Z M-39.96 83.97 C-43.33 90.83 -42.61 99.74 -40.44 106.92 C-38.92 110.37 -36.66 112.72 -33.29 114.39 C-24.22 117.09 -12.28 116.43 -3 115.07 C-2.34 114.41 -1.68 113.75 -1 113.07 C-0.19 112.76 0.61 112.46 1.44 112.14 C4.1 111.03 5.24 110.31 7 108.07 C7.72 104.53 7.61 100.94 7.63 97.32 C7.67 96.35 7.72 95.37 7.77 94.36 C7.81 89.58 7.5 85.8 4.53 81.93 C-0.85 77.38 -7.99 78.03 -14.67 78.16 C-16.99 78.2 -19.31 78.16 -21.64 78.12 C-35.44 78.06 -35.44 78.06 -39.96 83.97 Z M22 97.07 C22 98.06 22 99.05 22 100.07 C22.99 100.07 23.98 100.07 25 100.07 C25 99.08 25 98.09 25 97.07 C24.01 97.07 23.02 97.07 22 97.07 Z M28 97.07 C28 98.06 28 99.05 28 100.07 C28.99 100.07 29.98 100.07 31 100.07 C31 99.08 31 98.09 31 97.07 C30.01 97.07 29.02 97.07 28 97.07 Z M-59 100.07 C-59 101.06 -59 102.05 -59 103.07 C-58.01 103.07 -57.02 103.07 -56 103.07 C-56 102.08 -56 101.09 -56 100.07 C-56.99 100.07 -57.98 100.07 -59 100.07 Z M10 121.07 C10 122.06 10 123.05 10 124.07 C10.99 124.07 11.98 124.07 13 124.07 C13 123.08 13 122.09 13 121.07 C12.01 121.07 11.02 121.07 10 121.07 Z M-5 130.07 C-5 131.06 -5 132.05 -5 133.07 C-4.01 133.07 -3.02 133.07 -2 133.07 C-2 132.08 -2 131.09 -2 130.07 C-2.99 130.07 -3.98 130.07 -5 130.07 Z M-20 133.07 C-20 134.06 -20 135.05 -20 136.07 C-19.01 136.07 -18.02 136.07 -17 136.07 C-17 135.08 -17 134.09 -17 133.07 C-17.99 133.07 -18.98 133.07 -20 133.07 Z " transform="translate(178.99609375,1039.92578125)"/>
  </g>
</svg>
