<?xml version="1.0" encoding="UTF-8"?>
<!-- BACK separation — RED plate (PMS 193 C) — LibertyLift1776 merch. 2 spot colors: Black + PMS 193 C (Old Glory Red). Vector art at final print size. -->
<svg xmlns="http://www.w3.org/2000/svg" width="2.58in" height="16.55in" viewBox="0 0 321 2061">
  <g id="plate-red-PMS193C" fill="#B22234" fill-rule="nonzero">
    <path d="M0 0 C0.74 0.25 1.49 0.49 2.25 0.75 C2.3 1.45 2.35 2.15 2.4 2.87 C2.47 3.78 2.55 4.69 2.62 5.62 C2.66 6.08 2.66 6.08 2.84 8.37 C3.25 10.75 3.25 10.75 5.25 12.75 C5.62 14.53 5.75 16.28 5.91 18.09 C6.25 19.75 6.25 19.75 8.25 21.75 C8.41 22.41 8.41 22.41 9.25 25.75 C18.82 26.08 28.39 26.41 38.25 26.75 C38.25 27.74 38.25 28.73 38.25 29.75 C36.19 31.66 34.38 32.7 31.75 33.69 C29.25 34.75 29.25 34.75 27.25 36.75 C25.25 38.75 25.25 38.75 22.81 39.69 C19.26 41.16 17.65 42.72 15.25 45.75 C15.44 49.94 15.44 49.94 17.25 51.75 C17.53 54.3 17.7 56.85 17.87 59.4 C18.25 61.75 18.25 61.75 20.25 63.75 C20.38 66.38 20.38 66.38 20.25 68.75 C21.24 69.08 22.23 69.41 23.25 69.75 C22.92 71.4 22.59 73.05 22.25 74.75 C18.17 74.63 16.44 73.15 13.75 70.31 C13.16 69.68 12.56 69.04 11.95 68.39 C9.9 66.41 7.92 65.69 5.25 64.75 C4.94 64.4 4.94 64.4 3.38 62.62 C1 60.53 -0.64 59.94 -3.82 60.09 C-7.3 61.28 -9.4 64.08 -11.76 66.8 C-13.98 68.97 -15.87 69.69 -18.75 70.75 C-19.08 71.11 -19.08 71.11 -20.75 72.94 C-21.41 73.54 -22.07 74.13 -22.75 74.75 C-25.5 74.5 -25.5 74.5 -27.75 73.75 C-27.42 72.1 -27.09 70.45 -26.75 68.75 C-26.09 68.75 -25.43 68.75 -24.75 68.75 C-24.76 68.47 -24.76 68.47 -24.82 67.07 C-24.83 66.71 -24.83 66.71 -24.88 64.88 C-24.9 64.16 -24.92 63.44 -24.95 62.7 C-24.75 60.75 -24.75 60.75 -22.75 58.75 C-22.41 57.09 -22.41 57.09 -22.25 55.25 C-22 52.34 -21.95 51.95 -19.75 49.75 C-20.08 46.45 -20.37 45.13 -22.75 42.75 C-23.53 42.46 -24.32 42.17 -25.12 41.88 C-28.08 40.61 -29.5 39 -31.75 36.75 C-33.41 36.06 -35.07 35.39 -36.75 34.75 C-38.62 33.44 -38.62 33.44 -39.75 31.75 C-39.47 30.07 -39.14 28.4 -38.75 26.75 C-38.01 26.74 -37.27 26.72 -36.5 26.71 C-33.75 26.64 -30.99 26.57 -28.23 26.49 C-27.04 26.45 -25.85 26.43 -24.66 26.4 C-22.94 26.37 -21.23 26.32 -19.51 26.26 C-19 26.25 -19 26.25 -16.39 26.18 C-13.4 25.69 -12.52 25.14 -10.75 22.75 C-10.04 21.1 -9.37 19.43 -8.75 17.75 C-8.42 17.42 -8.09 17.09 -7.75 16.75 C-7.54 13.48 -7.43 10.22 -7.32 6.95 C-6.52 2.48 -4.82 -0.44 0 0 Z " transform="translate(162.75,36.25)"/>
    <path d="M0 0 C0.99 0 1.98 0 3 0 C3.16 0.33 3.16 0.33 4 2 C4.84 2.01 5.67 2.02 6.54 2.03 C14.41 2.13 22.28 2.23 30.16 2.34 C34.2 2.39 38.25 2.45 42.3 2.5 C46.2 2.54 50.11 2.6 54.01 2.65 C55.5 2.67 56.99 2.69 58.49 2.71 C60.57 2.73 62.65 2.76 64.74 2.79 C65.36 2.8 65.98 2.81 66.62 2.81 C70.89 2.89 70.89 2.89 72 4 C72.49 8.45 72.77 12.56 70.62 16.56 C67.18 18.45 64.13 18.58 60.24 18.73 C58 19 58 19 56 21 C53.38 21.12 53.38 21.12 51 21 C51.04 21.78 51.08 22.57 51.12 23.38 C51 26 51 26 49 28 C48.31 29.66 47.64 31.32 47 33 C46.67 33.33 46.34 33.66 46 34 C45.76 36.75 45.6 39.49 45.48 42.25 C45.21 46.79 45.21 46.79 43 49 C42.66 51.31 42.66 51.31 42.5 54 C42.22 58.78 42.22 58.78 40 61 C39.66 63.31 39.66 63.31 39.5 66 C39.22 70.78 39.22 70.78 37 73 C36.66 74.66 36.66 74.66 36.5 76.5 C36.25 79.41 36.2 79.8 34 82 C33.66 84.31 33.66 84.31 33.5 87 C33.22 91.78 33.22 91.78 31 94 C30.66 96.31 30.66 96.31 30.5 99 C30.22 103.78 30.22 103.78 28 106 C27.66 108.31 27.66 108.31 27.5 111 C27.22 115.78 27.22 115.78 25 118 C24.66 120.31 24.66 120.31 24.5 123 C24.22 127.78 24.22 127.78 22 130 C21.66 131.66 21.66 131.66 21.5 133.5 C21.25 136.41 21.2 136.8 19 139 C18.66 141.31 18.66 141.31 18.5 144 C18.22 148.78 18.22 148.78 16 151 C15.66 153.31 15.66 153.31 15.5 156 C15.22 160.78 15.22 160.78 13 163 C12.88 165.12 12.88 165.12 13 167 C13.66 167.33 14.32 167.66 15 168 C15 169.98 15 171.96 15 174 C15.78 173.96 16.57 173.92 17.38 173.88 C20 174 20 174 22 176 C24.64 176.27 24.64 176.27 28.02 176.31 C28.33 176.31 28.33 176.31 29.89 176.33 C31.93 176.36 33.98 176.36 36.02 176.37 C37.44 176.38 38.86 176.39 40.28 176.4 C43.26 176.41 46.24 176.42 49.22 176.43 C53.03 176.43 56.85 176.47 60.66 176.51 C63.59 176.54 66.53 176.55 69.46 176.55 C70.87 176.56 72.27 176.57 73.68 176.59 C75.65 176.62 77.62 176.61 79.59 176.6 C80.71 176.6 81.83 176.61 82.98 176.61 C87.1 175.78 88.23 174.1 91 171 C93.75 169.75 93.75 169.75 96 169 C96.33 168.67 96.66 168.34 97 168 C101.64 167.48 105.66 167.16 109.69 169.69 C111 172 111 172 110.81 174.69 C110 177 110 177 109 178 C108.78 179.77 108.55 181.54 108.38 183.31 C108 185 108 185 106 187 C105.62 188.69 105.62 188.69 105.44 190.56 C105 194 105 194 104 195 C102.62 195.09 101.23 195.12 99.85 195.11 C98.97 195.11 98.09 195.11 97.18 195.11 C96.22 195.11 95.26 195.1 94.28 195.1 C93.3 195.1 92.33 195.09 91.32 195.09 C88.19 195.09 85.07 195.08 81.94 195.06 C79.82 195.06 77.71 195.05 75.59 195.05 C70.39 195.04 65.2 195.02 60 195 C60 195.99 60 196.98 60 198 C61 197.99 62 197.98 63.03 197.96 C64.33 197.96 65.63 197.95 66.94 197.94 C67.6 197.93 68.26 197.92 68.94 197.91 C70.62 197.9 72.31 197.95 74 198 C75.67 199.67 75.17 201.66 75.19 203.94 C75.2 204.83 75.22 205.73 75.23 206.65 C75 209 75 209 73 211 C72.75 213.19 72.58 215.3 72.5 217.5 C72.27 223.73 72.27 223.73 70 226 C69.66 227.66 69.66 227.66 69.5 229.5 C69.25 232.41 69.2 232.8 67 235 C66.66 237.31 66.66 237.31 66.5 240 C66.22 244.78 66.22 244.78 64 247 C63.59 249.83 63.59 249.83 63.5 253.25 C63.47 253.81 63.47 253.81 63.34 256.64 C64.11 260.56 65.12 262.05 67.95 264.74 C72.18 267.35 77.07 266.76 81.89 266.66 C82.46 266.65 82.46 266.65 85.35 266.64 C87.75 266.64 90.16 266.61 92.56 266.56 C95.64 266.51 98.72 266.48 101.81 266.48 C104.75 266.46 107.7 266.44 110.64 266.41 C111.19 266.4 111.19 266.4 114 266.38 C115.02 266.36 116.04 266.34 117.09 266.32 C118 266.31 118.9 266.29 119.83 266.28 C122 266 122 266 124 264 C125.78 263.63 127.53 263.5 129.34 263.34 C131 263 131 263 133 261 C133.78 260.71 134.56 260.41 135.36 260.11 C138.31 258.87 139.95 257.45 142.19 255.19 C142.86 254.52 143.54 253.85 144.23 253.17 C146.12 250.85 147.02 248.81 148 246 C149.97 241.58 152.28 237.2 156 234 C156.99 234 157.98 234 159 234 C159.33 234.66 159.66 235.32 160 236 C161.63 236.41 161.63 236.41 163.56 236.62 C164.7 236.75 165.83 236.87 167 237 C167.33 238.65 167.66 240.3 168 242 C167.01 242.33 166.02 242.66 165 243 C165.02 243.55 165.05 244.11 165.07 244.68 C165.09 245.4 165.11 246.13 165.12 246.88 C165.15 247.59 165.17 248.31 165.2 249.05 C165 251 165 251 163 253 C162.66 255.31 162.66 255.31 162.5 258 C162.22 262.78 162.22 262.78 160 265 C159.31 266.66 158.64 268.32 158 270 C157.67 270.33 157.34 270.66 157 271 C156.8 273.48 156.68 275.97 156.57 278.46 C155.81 281.83 154.72 282.88 152 285 C149.48 285.39 147.39 285.55 144.88 285.51 C144.52 285.52 144.52 285.52 142.73 285.54 C140.39 285.56 138.05 285.55 135.71 285.54 C134.08 285.55 132.46 285.56 130.83 285.57 C126.56 285.61 122.28 285.62 118 285.62 C111.15 285.63 104.3 285.67 97.44 285.71 C95.05 285.73 92.65 285.73 90.25 285.72 C88.79 285.73 87.33 285.74 85.86 285.74 C85.2 285.74 84.53 285.74 83.84 285.73 C79.23 285.77 79.23 285.77 77 288 C75.34 288.27 75.34 288.27 73.5 288.25 C72.89 288.26 72.28 288.26 71.66 288.27 C70 288 70 288 68 286 C65.69 285.73 65.69 285.73 63 285.75 C62.11 285.74 61.23 285.74 60.31 285.73 C58 286 58 286 56 288 C54.37 288.25 54.37 288.25 52.41 288.26 C51.67 288.27 50.94 288.27 50.18 288.28 C49.39 288.27 48.6 288.27 47.78 288.27 C46.97 288.27 46.15 288.27 45.32 288.27 C43.59 288.27 41.87 288.27 40.15 288.26 C37.51 288.25 34.87 288.26 32.23 288.27 C30.56 288.27 28.89 288.27 27.22 288.27 C26.82 288.27 26.82 288.27 24.82 288.28 C24.45 288.27 24.45 288.27 22.59 288.26 C21.94 288.26 21.3 288.26 20.63 288.25 C19 288 19 288 17 286 C14.62 285.8 14.62 285.8 11.88 285.88 C10.96 285.89 10.05 285.91 9.12 285.93 C8.42 285.95 7.72 285.98 7 286 C6.67 286.66 6.34 287.32 6 288 C3 288 3 288 1.31 286.44 C-0.53 283.01 -0.36 280.87 0 277 C0.66 276.34 1.32 275.68 2 275 C2.71 273.35 3.38 271.68 4 270 C4.7 269.95 5.4 269.9 6.12 269.85 C6.57 269.81 6.57 269.81 8.88 269.62 C9.78 269.56 10.68 269.49 11.62 269.41 C14 269 14 269 16 267 C17.67 266.33 19.33 265.67 21 265 C23.23 262.77 23.88 260.91 25 258 C25.33 257.67 25.66 257.34 26 257 C26.22 255.23 26.45 253.46 26.62 251.69 C27 250 27 250 29 248 C29.34 246.34 29.34 246.34 29.5 244.5 C29.75 241.59 29.8 241.2 32 239 C32.25 236.81 32.42 234.7 32.5 232.5 C32.73 226.27 32.73 226.27 35 224 C35.34 222.34 35.34 222.34 35.5 220.5 C35.75 217.59 35.8 217.2 38 215 C38.26 212.03 38.37 209.12 38.39 206.14 C38.51 203.12 38.66 201.39 40.68 199.07 C43.55 197.75 45.6 197.7 48.75 197.81 C49.24 197.83 49.24 197.83 51.73 197.89 C52.48 197.93 53.23 197.96 54 198 C54 197.01 54 196.02 54 195 C53.48 195 52.96 195 52.43 195 C39.8 195.02 27.17 195.04 14.55 195.05 C8.44 195.06 2.33 195.06 -3.77 195.08 C-9.66 195.09 -15.55 195.09 -21.43 195.09 C-23.69 195.1 -25.94 195.1 -28.19 195.11 C-31.33 195.11 -34.47 195.11 -37.61 195.11 C-38.56 195.12 -39.5 195.12 -40.47 195.12 C-41.32 195.12 -42.17 195.12 -43.05 195.12 C-43.79 195.12 -44.53 195.12 -45.3 195.12 C-47 195 -47 195 -48 194 C-48.27 189 -48.27 189 -48 187 C-47.67 186.67 -47.67 186.67 -46 185 C-45.85 184.6 -45.85 184.6 -45.06 182.56 C-43.96 179.91 -43.24 178.75 -41 177 C-38.73 176.7 -38.73 176.7 -36.19 176.69 C-32.36 176.41 -30.28 175.95 -27.5 173.25 C-25.32 170.7 -24.01 168.22 -23 165 C-22.67 164.67 -22.34 164.34 -22 164 C-21.78 162.23 -21.55 160.46 -21.38 158.69 C-21 157 -21 157 -19 155 C-18.66 152.69 -18.66 152.69 -18.5 150 C-18.22 145.22 -18.22 145.22 -16 143 C-15.66 140.69 -15.66 140.69 -15.5 138 C-15.22 133.22 -15.22 133.22 -13 131 C-12.66 128.69 -12.66 128.69 -12.5 126 C-12.22 121.22 -12.22 121.22 -10 119 C-9.66 116.69 -9.66 116.69 -9.5 114 C-9.22 109.22 -9.22 109.22 -7 107 C-6.66 104.69 -6.66 104.69 -6.5 102 C-6.22 97.22 -6.22 97.22 -4 95 C-3.66 92.69 -3.66 92.69 -3.5 90 C-3.22 85.22 -3.22 85.22 -1 83 C-0.66 80.69 -0.66 80.69 -0.5 78 C-0.22 73.22 -0.22 73.22 2 71 C2.34 69.34 2.34 69.34 2.5 67.5 C2.75 64.59 2.8 64.2 5 62 C5.25 59.81 5.42 57.7 5.5 55.5 C5.73 49.27 5.73 49.27 8 47 C8.34 45.34 8.34 45.34 8.5 43.5 C8.75 40.59 8.8 40.2 11 38 C11.44 35.38 11.32 32.72 11.31 30.06 C11.33 29.33 11.34 28.6 11.36 27.85 C11.37 22.6 11.37 22.6 9.79 20.02 C7.47 18.69 5.73 18.63 3.06 18.56 C-0.35 18.31 -1.76 18.16 -4.69 16.25 C-6 14 -6 14 -5.75 11.25 C-5.5 10.51 -5.25 9.76 -5 9 C-4.34 9 -3.68 9 -3 9 C-3.06 8.26 -3.12 7.51 -3.19 6.75 C-2.97 3.51 -2.28 2.28 0 0 Z M21 69 C21 69.99 21 70.98 21 72 C22.98 72 24.96 72 27 72 C27 71.01 27 70.02 27 69 C25.02 69 23.04 69 21 69 Z M12 75 C12 76.98 12 78.96 12 81 C12.99 81 13.98 81 15 81 C15 79.02 15 77.04 15 75 C14.01 75 13.02 75 12 75 Z M3 126 C3 127.98 3 129.96 3 132 C3.99 132 4.98 132 6 132 C6 130.02 6 128.04 6 126 C5.01 126 4.02 126 3 126 Z M12 132 C12 133.98 12 135.96 12 138 C12.99 138 13.98 138 15 138 C15 136.02 15 134.04 15 132 C14.01 132 13.02 132 12 132 Z M3 138 C3 139.98 3 141.96 3 144 C3.99 144 4.98 144 6 144 C6 142.02 6 140.04 6 138 C5.01 138 4.02 138 3 138 Z M-12 153 C-12 153.99 -12 154.98 -12 156 C-11.01 156 -10.02 156 -9 156 C-9 155.01 -9 154.02 -9 153 C-9.99 153 -10.98 153 -12 153 Z M48 210 C48 210.99 48 211.98 48 213 C48.99 213 49.98 213 51 213 C51 212.01 51 211.02 51 210 C50.01 210 49.02 210 48 210 Z M45 237 C44.96 238.67 44.96 240.33 45 242 C46 243 46 243 48.56 243.06 C49.37 243.04 50.17 243.02 51 243 C51 240 51 240 49.69 238.31 C48 237 48 237 45 237 Z M39 249 C39 249.99 39 250.98 39 252 C39.99 252 40.98 252 42 252 C42 251.01 42 250.02 42 249 C41.01 249 40.02 249 39 249 Z M36 273 C36 273.99 36 274.98 36 276 C36.99 276 37.98 276 39 276 C39 275.01 39 274.02 39 273 C38.01 273 37.02 273 36 273 Z " transform="translate(102,144)"/>
    <path d="M0 0 C0.71 -0 1.42 -0 2.15 -0.01 C4.5 -0.01 6.84 0.02 9.18 0.04 C10.81 0.05 12.44 0.05 14.07 0.05 C17.48 0.06 20.89 0.08 24.3 0.11 C28.67 0.15 33.05 0.17 37.43 0.18 C41.6 0.19 45.77 0.21 49.93 0.23 C50.73 0.24 51.53 0.24 52.36 0.24 C54.61 0.25 56.86 0.27 59.11 0.29 C59.45 0.29 59.45 0.29 61.15 0.3 C65.75 0.36 65.75 0.36 66.86 1.47 C67.13 6.47 67.13 6.47 66.86 8.47 C66.2 9.13 65.54 9.79 64.86 10.47 C64.15 12.12 63.48 13.79 62.86 15.47 C62.51 15.49 62.51 15.49 60.74 15.62 C59.83 15.69 58.92 15.77 57.99 15.84 C57.08 15.91 56.18 15.98 55.24 16.06 C52.86 16.47 52.86 16.47 50.86 18.47 C49.19 19.14 47.53 19.8 45.86 20.47 C43.63 22.7 42.98 24.56 41.86 27.47 C41.7 27.63 41.7 27.63 40.86 28.47 C40.58 31.02 40.41 33.57 40.24 36.12 C39.86 38.47 39.86 38.47 37.86 40.47 C37.52 42.13 37.52 42.13 37.36 43.97 C37.11 46.88 37.06 47.27 34.86 49.47 C34.52 51.78 34.52 51.78 34.36 54.47 C34.08 59.25 34.08 59.25 31.86 61.47 C31.52 63.78 31.52 63.78 31.36 66.47 C31.08 71.25 31.08 71.25 28.86 73.47 C28.55 76.26 28.48 79.03 28.4 81.84 C27.86 84.47 27.86 84.47 26.23 86.11 C21.86 88.62 16.74 87.95 11.82 87.92 C9.87 87.91 7.92 87.94 5.97 87.97 C4.73 87.97 3.48 87.97 2.24 87.97 C1.11 87.97 -0.02 87.97 -1.18 87.97 C-4.77 87.36 -5.99 86.36 -8.14 83.47 C-7.84 79.17 -7.84 79.17 -6.14 77.47 C-5.91 75.7 -5.69 73.93 -5.52 72.16 C-5.14 70.47 -5.14 70.47 -3.14 68.47 C-2.89 66.28 -2.72 64.17 -2.64 61.97 C-2.41 55.74 -2.41 55.74 -0.14 53.47 C0.2 51.81 0.2 51.81 0.36 49.97 C0.61 47.06 0.66 46.67 2.86 44.47 C3.11 42.28 3.28 40.17 3.36 37.97 C3.59 31.74 3.59 31.74 5.86 29.47 C6.4 25.97 6.62 23.82 4.87 20.71 C1.79 17.11 -0.75 16.1 -5.45 15.66 C-6.31 15.63 -7.18 15.6 -8.07 15.58 C-10.14 15.47 -10.14 15.47 -11.14 14.47 C-11.38 12.33 -11.38 12.33 -11.45 9.66 C-11.49 8.78 -11.53 7.91 -11.57 7.01 C-10.48 0.56 -5.68 -0.11 0 0 Z " transform="translate(158.139404296875,230.530029296875)"/>
    <path d="M0 0 C0.74 0.25 1.49 0.49 2.25 0.75 C2.45 2.51 2.64 4.27 2.84 6.02 C3.25 7.75 3.25 7.75 5.25 9.75 C5.59 12.28 5.69 14.79 5.81 17.34 C6.25 19.75 6.25 19.75 7.38 21.53 C10.53 23.58 13.93 23.26 17.6 23.37 C22.06 23.56 22.06 23.56 24.25 25.75 C26.56 25.44 26.56 25.44 29.25 24.75 C30.18 24.56 31.11 24.38 32.06 24.19 C32.78 24.04 33.51 23.9 34.25 23.75 C35 26 35 26 35.25 28.75 C32.71 32.17 30.1 33.21 26.25 34.75 C25.92 35.08 25.92 35.08 24.25 36.75 C22.03 38.97 20.17 39.68 17.25 40.75 C16.59 41.41 15.93 42.07 15.25 42.75 C15.81 47.31 15.81 47.31 17.25 48.75 C17.53 51.3 17.7 53.85 17.87 56.4 C18.25 58.75 18.25 58.75 20.25 60.75 C20.59 62.44 20.59 62.44 20.75 64.31 C20.91 65.45 21.08 66.58 21.25 67.75 C21.58 67.91 21.58 67.91 23.25 68.75 C23.25 69.74 23.25 70.73 23.25 71.75 C21 71.99 21 71.99 18.25 71.75 C16.19 70.07 16.19 70.07 14.25 67.88 C11.4 64.67 9.26 63.23 5.25 61.75 C4.94 61.4 4.94 61.4 3.38 59.62 C1 57.53 -0.64 56.94 -3.82 57.09 C-7.3 58.28 -9.4 61.08 -11.76 63.8 C-13.97 65.97 -15.88 66.68 -18.75 67.75 C-19.76 69.07 -20.76 70.41 -21.75 71.75 C-22.74 71.75 -23.73 71.75 -24.75 71.75 C-24.8 69.96 -24.84 68.17 -24.88 66.38 C-24.9 65.38 -24.92 64.38 -24.95 63.35 C-24.75 60.75 -24.75 60.75 -22.75 58.75 C-22.41 57.09 -22.41 57.09 -22.25 55.25 C-22 52.34 -21.95 51.95 -19.75 49.75 C-19.19 43.6 -19.19 43.6 -20.94 40.94 C-22.75 39.75 -22.75 39.75 -25 39 C-27.88 37.69 -29.12 36.46 -31.25 34.19 C-33.94 31.35 -35.67 29.87 -39.75 29.75 C-39.75 26.75 -39.75 26.75 -38.12 25.09 C-35.21 23.44 -33.23 23.32 -29.89 23.24 C-28.78 23.2 -27.66 23.17 -26.51 23.13 C-25.34 23.11 -24.17 23.08 -23 23.06 C-21.81 23.03 -20.63 22.99 -19.44 22.96 C-16.54 22.88 -13.65 22.81 -10.75 22.75 C-10.7 22.05 -10.65 21.35 -10.6 20.63 C-10.53 19.72 -10.45 18.81 -10.38 17.88 C-10.31 16.97 -10.24 16.07 -10.16 15.13 C-9.75 12.75 -9.75 12.75 -7.75 10.75 C-7.69 10.19 -7.69 10.19 -7.38 7.38 C-7.03 4.56 -6.71 3.69 -5 1.25 C-2.75 -0.25 -2.75 -0.25 0 0 Z " transform="translate(162.75,1215.25)"/>
    <path d="M0 0 C0.99 0 1.98 0 3 0 C3.33 0.66 3.66 1.32 4 2 C4.29 2 4.29 2 5.73 2.02 C11.67 2.11 17.61 2.21 23.54 2.32 C25.76 2.36 27.98 2.39 30.2 2.42 C33.38 2.47 36.56 2.53 39.74 2.59 C40.74 2.6 41.73 2.61 42.76 2.62 C43.68 2.64 44.6 2.66 45.55 2.68 C45.96 2.69 45.96 2.69 48.01 2.72 C50 3 50 3 52 5 C53.79 5.32 53.79 5.32 55.91 5.41 C56.29 5.43 56.29 5.43 58.22 5.53 C59.01 5.56 59.81 5.59 60.62 5.62 C61.43 5.66 62.23 5.7 63.05 5.74 C65.04 5.84 67.02 5.92 69 6 C69 6.99 69 7.98 69 9 C68.5 9.02 67.99 9.04 67.47 9.06 C65.19 9.16 62.91 9.26 60.62 9.38 C59.83 9.41 59.04 9.44 58.22 9.47 C57.84 9.49 57.84 9.49 55.91 9.59 C55.56 9.6 55.56 9.6 53.79 9.68 C52 10 52 10 50 12 C47.79 12.29 47.79 12.29 45.06 12.34 C44.09 12.37 43.11 12.4 42.1 12.43 C40.03 12.48 37.97 12.52 35.9 12.57 C34.92 12.6 33.94 12.63 32.94 12.66 C32.04 12.67 31.14 12.69 30.21 12.71 C28 13 28 13 26 15 C23.64 15.27 21.38 15.09 19 15 C18.67 14.01 18.34 13.02 18 12 C17.01 12 16.02 12 15 12 C14.67 12.99 14.34 13.98 14 15 C11.35 15.03 8.71 15.05 6.06 15.06 C5.69 15.07 5.69 15.07 3.78 15.09 C3.06 15.09 2.34 15.09 1.6 15.1 C0.93 15.1 0.27 15.11 -0.42 15.11 C-2 15 -2 15 -3 14 C-3.2 11.86 -3.2 11.86 -3.25 9.19 C-3.28 8.31 -3.3 7.44 -3.33 6.54 C-2.94 3.51 -2.15 2.15 0 0 Z " transform="translate(219,1242)"/>
    <path d="M0 0 C2.71 0.21 4.45 0.59 6.64 2.23 C8.47 4.61 8.34 6.16 8.25 9.12 C8.23 10.01 8.22 10.9 8.2 11.82 C8 14 8 14 7 15 C5.15 15.09 3.29 15.11 1.43 15.1 C0.31 15.09 -0.82 15.09 -1.97 15.09 C-3.17 15.08 -4.37 15.07 -5.56 15.06 C-6.76 15.06 -7.96 15.05 -9.16 15.05 C-12.11 15.04 -15.05 15.02 -18 15 C-18.16 14.51 -18.16 14.51 -19 12 C-19.99 12 -20.98 12 -22 12 C-22.33 12.99 -22.66 13.98 -23 15 C-27.88 14.12 -27.88 14.12 -29 13 C-30.39 12.87 -31.79 12.8 -33.18 12.75 C-34.03 12.72 -34.87 12.69 -35.74 12.65 C-37.54 12.59 -39.33 12.54 -41.12 12.48 C-41.97 12.45 -42.81 12.41 -43.68 12.38 C-44.46 12.35 -45.24 12.33 -46.04 12.3 C-48 12 -48 12 -50 10 C-52.6 9.59 -52.6 9.59 -55.62 9.38 C-56.63 9.3 -57.63 9.23 -58.66 9.15 C-59.43 9.1 -60.21 9.05 -61 9 C-61 8.01 -61 7.02 -61 6 C-60.31 5.98 -59.63 5.96 -58.92 5.94 C-55.82 5.84 -52.72 5.74 -49.62 5.62 C-48.54 5.59 -47.46 5.56 -46.35 5.53 C-45.32 5.49 -44.29 5.45 -43.23 5.41 C-42.27 5.38 -41.32 5.35 -40.34 5.32 C-38 5 -38 5 -36 3 C-33.45 2.78 -30.99 2.67 -28.44 2.66 C-28.06 2.65 -28.06 2.65 -26.17 2.61 C-22.97 2.55 -19.77 2.51 -16.57 2.47 C-14.23 2.43 -11.9 2.39 -9.56 2.34 C-8.84 2.34 -8.11 2.33 -7.36 2.33 C-2.23 2.23 -2.23 2.23 0 0 Z " transform="translate(97,1242)"/>
    <path d="M0 0 C0.99 0 1.98 0 3 0 C3.33 0.66 3.66 1.32 4 2 C8.88 1.12 8.88 1.12 10 0 C12.14 -0.24 12.14 -0.24 14.81 -0.31 C15.69 -0.35 16.56 -0.39 17.46 -0.43 C21 0.17 21.88 1.09 24 4 C24.62 7.26 24.6 10.49 24.61 13.8 C24.63 14.75 24.64 15.69 24.66 16.67 C24.71 19.7 24.73 22.72 24.75 25.75 C24.78 27.8 24.81 29.86 24.84 31.91 C24.91 36.94 24.97 41.97 25 47 C25.33 47.16 25.33 47.16 27 48 C27 48.99 27 49.98 27 51 C26.67 51.16 26.67 51.16 25 52 C25 58.27 25 64.54 25 71 C25.33 71.16 25.33 71.16 27 72 C27 72.99 27 73.98 27 75 C26.67 75.16 26.67 75.16 25 76 C24.95 91.35 24.92 106.7 24.9 122.05 C24.89 129.18 24.87 136.31 24.85 143.43 C24.83 149.64 24.82 155.86 24.81 162.07 C24.81 165.36 24.8 168.65 24.79 171.94 C24.77 175.6 24.77 179.27 24.77 182.94 C24.77 184.04 24.76 185.13 24.75 186.26 C24.75 187.26 24.76 188.25 24.76 189.28 C24.76 189.71 24.76 189.71 24.75 191.91 C25 194 25 194 27 196 C26.44 200.56 26.44 200.56 25 202 C24.9 203.63 24.9 203.63 24.94 205.56 C24.96 206.7 24.98 207.83 25 209 C25.66 209.33 26.32 209.66 27 210 C27 210.99 27 211.98 27 213 C26.34 213.33 25.68 213.66 25 214 C24.95 216.13 24.91 218.25 24.88 220.38 C24.86 220.98 24.84 221.58 24.82 222.2 C24.81 223.8 24.9 225.4 25 227 C25.33 227.33 25.33 227.33 27 229 C26.44 233.56 26.44 233.56 25 235 C24.9 236.78 24.87 238.56 24.87 240.33 C24.86 240.9 24.86 241.46 24.86 242.04 C24.85 243.96 24.85 245.87 24.86 247.79 C24.85 249.16 24.85 250.54 24.84 251.92 C24.83 255.72 24.83 259.52 24.83 263.32 C24.82 267.42 24.82 271.51 24.81 275.6 C24.79 282.7 24.78 289.8 24.77 296.9 C24.76 307.17 24.74 317.43 24.71 327.7 C24.67 344.35 24.64 361.01 24.61 377.67 C24.61 378.66 24.6 379.66 24.6 380.69 C24.57 394.85 24.55 409.02 24.53 423.18 C24.53 424.18 24.52 425.18 24.52 426.2 C24.52 427.2 24.52 428.2 24.52 429.22 C24.49 445.81 24.46 462.4 24.42 479 C24.39 489.24 24.37 499.48 24.36 509.73 C24.36 516.74 24.34 523.76 24.32 530.77 C24.31 534.83 24.3 538.88 24.3 542.93 C24.3 546.64 24.29 550.34 24.28 554.05 C24.27 555.39 24.27 556.74 24.28 558.08 C24.28 559.9 24.27 561.72 24.26 563.54 C24.26 564.55 24.26 565.57 24.25 566.61 C24 569 24 569 22 571 C22.56 575.56 22.56 575.56 24 577 C24.12 578.64 24.18 580.29 24.19 581.94 C24.2 582.83 24.22 583.73 24.23 584.65 C24 587 24 587 22 589 C21.74 590.59 21.74 590.59 21.72 592.51 C21.71 593.23 21.7 593.96 21.69 594.71 C21.69 595.5 21.68 596.3 21.68 597.12 C21.68 597.54 21.68 597.54 21.65 599.66 C21.62 602.45 21.6 605.23 21.59 608.01 C21.57 609.93 21.55 611.86 21.53 613.78 C21.48 618.86 21.44 623.93 21.4 629 C21.36 634.18 21.31 639.35 21.26 644.53 C21.16 654.68 21.08 664.84 21 675 C20.01 675 19.02 675 18 675 C17.98 674.31 17.96 673.63 17.94 672.92 C17.84 669.82 17.74 666.72 17.62 663.62 C17.59 662.54 17.56 661.46 17.53 660.35 C17.49 659.32 17.45 658.29 17.41 657.23 C17.38 656.27 17.35 655.32 17.32 654.34 C17 652 17 652 15 650 C14.8 647.78 14.72 645.72 14.75 643.5 C14.74 642.91 14.73 642.31 14.73 641.7 C14.75 637.25 14.75 637.25 17 635 C16.44 630.44 16.44 630.44 15 629 C14.93 627.31 14.92 625.62 14.94 623.94 C14.95 623.02 14.96 622.1 14.96 621.15 C14.98 620.44 14.99 619.73 15 619 C15.99 618.67 16.98 618.34 18 618 C18 617.01 18 616.02 18 615 C17.01 614.67 16.02 614.34 15 614 C14.95 613.07 14.9 612.15 14.85 611.19 C14.78 609.98 14.7 608.77 14.62 607.56 C14.59 606.95 14.56 606.34 14.53 605.71 C14.43 604.13 14.22 602.56 14 601 C13.34 600.67 12.68 600.34 12 600 C12 599.01 12 598.02 12 597 C12.66 596.67 13.32 596.34 14 596 C14.29 588.57 14.29 588.57 12 585 C11.01 585 10.02 585 9 585 C9 587.64 9 590.28 9 593 C7.35 593.66 5.7 594.32 4 595 C3.67 603.58 3.34 612.16 3 621 C2.01 621 1.02 621 0 621 C0 611.1 0 601.2 0 591 C-0.99 590.67 -1.98 590.34 -3 590 C-2.84 589.17 -2.84 589.17 -2 585 C-1.34 585 -0.68 585 0 585 C0 584.01 0 583.02 0 582 C-0.99 581.67 -1.98 581.34 -3 581 C-3 580.34 -3 579.68 -3 579 C-2.34 578.67 -1.68 578.34 -1 578 C-0.95 575.87 -0.91 573.75 -0.88 571.62 C-0.86 571.02 -0.84 570.42 -0.82 569.8 C-0.81 568.2 -0.9 566.6 -1 565 C-1.66 564.34 -2.32 563.68 -3 563 C-3.29 562.22 -3.58 561.43 -3.88 560.62 C-5 558 -5 558 -7.12 556.38 C-10.23 552.44 -9.3 547.83 -9 543 C-7.02 543 -5.04 543 -3 543 C-3 542.01 -3 541.02 -3 540 C-3.62 539.71 -4.24 539.42 -4.88 539.12 C-7 538 -7 538 -9 536 C-9.24 533.49 -9.24 533.49 -9.23 530.37 C-9.23 529.25 -9.23 528.14 -9.22 526.99 C-9.22 526.4 -9.21 525.82 -9.21 525.22 C-9.19 523.44 -9.19 521.66 -9.19 519.88 C-9.14 511.14 -9.14 511.14 -8 510 C-6.33 509.96 -4.67 509.96 -3 510 C-3.04 509.22 -3.08 508.43 -3.12 507.62 C-3 505 -3 505 -1 503 C-0.73 500.69 -0.73 500.69 -0.75 498 C-0.74 497.11 -0.74 496.23 -0.73 495.31 C-1 493 -1 493 -3 491 C-3.14 488.58 -3.19 486.29 -3.12 483.88 C-3.12 483.22 -3.11 482.56 -3.1 481.88 C-3.07 480.25 -3.04 478.63 -3 477 C-3.99 477 -4.98 477 -6 477 C-6 480.96 -6 484.92 -6 489 C-6.99 489 -7.98 489 -9 489 C-9.33 465.57 -9.66 442.14 -10 418 C-10.66 417.67 -11.32 417.34 -12 417 C-12 416.01 -12 415.02 -12 414 C-11.34 413.67 -10.68 413.34 -10 413 C-9.95 393.35 -9.92 373.69 -9.9 354.04 C-9.89 344.91 -9.87 335.79 -9.85 326.67 C-9.83 318.71 -9.82 310.76 -9.81 302.81 C-9.81 298.6 -9.8 294.39 -9.79 290.18 C-9.78 286.21 -9.77 282.25 -9.77 278.29 C-9.77 276.84 -9.77 275.38 -9.76 273.92 C-9.75 271.94 -9.75 269.96 -9.76 267.97 C-9.76 267.42 -9.76 267.42 -9.75 264.6 C-10 262 -10 262 -12 260 C-12.27 257.69 -12.27 257.69 -12.25 255 C-12.26 254.11 -12.26 253.23 -12.27 252.31 C-12 250 -12 250 -10 248 C-9.74 245.49 -9.74 245.49 -9.73 242.27 C-9.73 241.97 -9.73 241.97 -9.72 240.47 C-9.71 238.48 -9.71 236.49 -9.71 234.49 C-9.71 233.07 -9.7 231.64 -9.69 230.22 C-9.68 227.14 -9.67 224.07 -9.66 221 C-9.66 216.14 -9.64 211.28 -9.61 206.43 C-9.56 196.12 -9.53 185.81 -9.5 175.5 C-9.47 164.37 -9.43 153.24 -9.38 142.12 C-9.35 137.29 -9.34 132.45 -9.33 127.62 C-9.33 124.62 -9.31 121.62 -9.3 118.62 C-9.29 117.22 -9.29 115.83 -9.29 114.43 C-9.29 112.53 -9.28 110.63 -9.27 108.73 C-9.26 107.67 -9.26 106.6 -9.26 105.51 C-9 103 -9 103 -7 101 C-7.56 96.44 -7.56 96.44 -9 95 C-9.13 93.46 -9.13 93.46 -9.13 91.43 C-9.13 90.67 -9.13 89.9 -9.14 89.11 C-9.13 88.69 -9.13 88.69 -9.13 86.55 C-9.13 85.66 -9.13 84.78 -9.13 83.86 C-9.14 80.92 -9.14 77.98 -9.13 75.03 C-9.13 72.99 -9.13 70.96 -9.14 68.92 C-9.14 64.65 -9.14 60.37 -9.13 56.1 C-9.12 50.61 -9.13 45.12 -9.13 39.63 C-9.14 35.42 -9.14 31.21 -9.13 27 C-9.13 24.98 -9.13 22.95 -9.14 20.93 C-9.14 18.1 -9.13 15.28 -9.13 12.45 C-9.13 11.61 -9.13 10.76 -9.14 9.89 C-9.13 9.12 -9.13 8.36 -9.13 7.57 C-9.13 6.9 -9.13 6.23 -9.13 5.54 C-9 4 -9 4 -8 3 C-6.2 2.72 -4.4 2.55 -2.59 2.38 C-2.07 2.25 -1.54 2.13 -1 2 C-0.67 1.34 -0.34 0.68 0 0 Z M12 249 C12 249.99 12 250.98 12 252 C12.99 252 13.98 252 15 252 C15 251.01 15 250.02 15 249 C14.01 249 13.02 249 12 249 Z M-6 459 C-6.04 460.67 -6.04 462.33 -6 464 C-5 465 -5 465 -2.44 465.06 C-1.63 465.04 -0.83 465.02 0 465 C0 462 0 462 -1.31 460.31 C-3 459 -3 459 -6 459 Z M12 480 C12 480.99 12 481.98 12 483 C12.99 483 13.98 483 15 483 C15 482.01 15 481.02 15 480 C14.01 480 13.02 480 12 480 Z M6 492 C6 492.99 6 493.98 6 495 C9.64 496.27 13.18 497.45 17 498 C18 497 18 497 18.13 495.41 C18.13 494.78 18.13 494.15 18.12 493.5 C18.13 492.87 18.13 492.24 18.13 491.59 C18 490 18 490 17 489 C9.31 488.42 9.31 488.42 6 492 Z M12 504 C12 507.63 12 511.26 12 515 C12.83 515.16 12.83 515.16 17 516 C18 515 18 515 18.25 511.69 C18.21 509.02 18 507.99 16.69 505.56 C15 504 15 504 12 504 Z M15 525 C15 526.98 15 528.96 15 531 C15.99 531 16.98 531 18 531 C18 529.02 18 527.04 18 525 C17.01 525 16.02 525 15 525 Z M12 555 C12 555.99 12 556.98 12 558 C12.99 558 13.98 558 15 558 C15 557.01 15 556.02 15 555 C14.01 555 13.02 555 12 555 Z M4 567 C3.67 568.65 3.34 570.3 3 572 C3.83 572.16 3.83 572.16 8 573 C8.33 571.35 8.66 569.7 9 568 C7.35 567.67 5.7 567.34 4 567 Z M12 576 C12 576.99 12 577.98 12 579 C12.99 579 13.98 579 15 579 C15 578.01 15 577.02 15 576 C14.01 576 13.02 576 12 576 Z M3 579 C3 579.99 3 580.98 3 582 C3.99 582 4.98 582 6 582 C6 581.01 6 580.02 6 579 C5.01 579 4.02 579 3 579 Z M4 585 C2.94 586.88 2.94 586.88 2 589 C2.33 589.66 2.66 590.32 3 591 C3.99 590.67 4.98 590.34 6 590 C5.67 588.35 5.34 586.7 5 585 C4.67 585 4.34 585 4 585 Z " transform="translate(48,1317)"/>
    <path d="M0 0 C0.33 0.66 0.66 1.32 1 2 C2.32 2 3.64 2 5 2 C5.33 1.34 5.66 0.68 6 0 C6.99 0 7.98 0 9 0 C9.33 0.66 9.66 1.32 10 2 C10.56 2.02 10.56 2.02 13.38 2.12 C13.69 2.14 13.69 2.14 15.27 2.2 C17 2 17 2 19 0 C25.14 -0.68 25.14 -0.68 28.08 1.66 C30.51 4.62 30.5 6.14 30.5 9.94 C30.5 10.53 30.51 11.12 30.51 11.73 C30.53 13.73 30.51 15.72 30.49 17.72 C30.5 19.16 30.5 20.6 30.51 22.04 C30.52 26.01 30.51 29.97 30.49 33.94 C30.48 38.22 30.49 42.49 30.5 46.77 C30.51 55.14 30.5 63.52 30.48 71.9 C30.46 81.65 30.46 91.39 30.46 101.14 C30.46 118.53 30.44 135.91 30.41 153.3 C30.38 170.19 30.37 187.07 30.37 203.96 C30.37 204.48 30.37 204.48 30.37 207.11 C30.37 207.63 30.37 207.63 30.37 210.26 C30.37 229.46 30.36 248.67 30.34 267.87 C30.34 274.67 30.33 281.48 30.33 288.28 C30.33 296.56 30.32 304.84 30.31 313.12 C30.3 317.35 30.29 321.58 30.29 325.81 C30.29 329.68 30.29 333.54 30.27 337.41 C30.27 338.81 30.27 340.22 30.27 341.62 C30.28 343.52 30.27 345.42 30.26 347.31 C30.26 348.37 30.25 349.43 30.25 350.52 C30 353 30 353 28 355 C27.73 357.31 27.73 357.31 27.75 360 C27.74 360.89 27.74 361.77 27.73 362.69 C28 365 28 365 30 367 C30.23 369.25 30.23 369.25 30.2 372.01 C30.19 372.99 30.18 373.98 30.18 375 C30.16 376.03 30.14 377.06 30.12 378.12 C30.12 379.17 30.11 380.21 30.1 381.28 C30.07 383.85 30.04 386.43 30 389 C29.01 389.33 28.02 389.66 27 390 C27 390.99 27 391.98 27 393 C27.99 393.33 28.98 393.66 30 394 C30.05 402.7 30.08 411.4 30.1 420.1 C30.11 424.14 30.13 428.18 30.15 432.22 C30.17 436.12 30.18 440.02 30.19 443.91 C30.19 445.4 30.2 446.89 30.21 448.38 C30.23 450.46 30.23 452.54 30.23 454.62 C30.23 455.24 30.24 455.86 30.25 456.5 C30.23 460.77 30.23 460.77 28 463 C28.56 467.56 28.56 467.56 30 469 C30.25 472.14 30.19 475.29 30.19 478.44 C30.2 479.32 30.21 480.21 30.22 481.12 C30.23 481.97 30.23 482.81 30.23 483.68 C30.23 484.46 30.24 485.24 30.24 486.04 C30 488 30 488 28 490 C27.75 491.73 27.75 491.73 27.74 493.84 C27.74 494.23 27.74 494.23 27.72 496.22 C27.72 497.07 27.73 497.93 27.73 498.8 C27.71 500.6 27.69 502.4 27.66 504.2 C27.64 507.04 27.62 509.88 27.62 512.72 C27.61 515.46 27.58 518.19 27.54 520.93 C27.54 521.78 27.55 522.63 27.55 523.5 C27.46 529.39 27.46 529.39 25.09 532.57 C23 534 23 534 21 534 C21 534.99 21 535.98 21 537 C21.62 537.29 22.24 537.58 22.88 537.88 C25 539 25 539 27 541 C27.25 543.25 27.25 543.25 27.24 546.1 C27.24 547.18 27.25 548.26 27.25 549.37 C27.24 550.57 27.23 551.78 27.23 552.98 C27.23 554.24 27.23 555.5 27.23 556.76 C27.23 560.19 27.22 563.62 27.2 567.05 C27.19 570.63 27.19 574.21 27.19 577.8 C27.18 584.58 27.16 591.37 27.14 598.15 C27.12 605.88 27.11 613.6 27.1 621.33 C27.08 637.22 27.04 653.11 27 669 C26.01 669 25.02 669 24 669 C23.98 668.31 23.96 667.63 23.94 666.92 C23.84 663.82 23.74 660.72 23.62 657.62 C23.59 656.54 23.56 655.46 23.53 654.35 C23.49 653.32 23.45 652.29 23.41 651.23 C23.38 650.27 23.35 649.32 23.32 648.34 C23 646 23 646 21 644 C21.36 641.37 22.03 638.88 22.69 636.31 C22.79 635.55 22.89 634.79 23 634 C22.34 633.34 21.68 632.68 21 632 C20.75 629.42 20.63 626.95 20.59 624.37 C20.58 623.99 20.58 623.99 20.53 622.09 C20.47 619.68 20.42 617.28 20.38 614.88 C20.34 613.25 20.3 611.62 20.26 609.99 C20.16 605.99 20.08 602 20 598 C18.68 598 17.36 598 16 598 C15.67 609.55 15.34 621.1 15 633 C14.01 633 13.02 633 12 633 C12 628.05 12 623.1 12 618 C11.01 618 10.02 618 9 618 C8.87 618.3 8.87 618.3 8.19 619.81 C7 622 7 622 5.45 623.12 C3.09 626.18 3.56 629.47 3.57 633.24 C3.56 634.07 3.55 634.91 3.54 635.78 C3.51 638.55 3.5 641.33 3.49 644.11 C3.47 646.03 3.45 647.95 3.43 649.88 C3.39 654.94 3.36 660.01 3.33 665.07 C3.3 670.24 3.25 675.41 3.21 680.58 C3.12 690.72 3.06 700.86 3 711 C2.01 711 1.02 711 0 711 C-0 710.6 -0 710.6 -0.02 708.55 C-0.1 700.92 -0.19 693.3 -0.29 685.68 C-0.34 681.76 -0.38 677.84 -0.42 673.92 C-0.46 670.14 -0.51 666.36 -0.56 662.58 C-0.58 661.14 -0.59 659.69 -0.6 658.25 C-0.62 656.23 -0.65 654.21 -0.68 652.19 C-0.69 651.04 -0.71 649.89 -0.72 648.71 C-1 646 -1 646 -3 644 C-3.26 641.79 -3.26 641.79 -3.27 639.06 C-3.27 638.57 -3.27 638.57 -3.27 636.1 C-3.27 635.59 -3.27 635.59 -3.25 633 C-3.26 631.98 -3.27 630.95 -3.27 629.9 C-3.27 628.92 -3.27 627.94 -3.27 626.94 C-3.26 626.04 -3.26 625.14 -3.26 624.21 C-3 622 -3 622 -1 620 C-0.73 618.34 -0.73 618.34 -0.75 616.5 C-0.74 615.89 -0.74 615.28 -0.73 614.66 C-1 613 -1 613 -3 611 C-3.24 608.77 -3.24 608.77 -3.23 606.03 C-3.23 605.05 -3.23 604.06 -3.22 603.05 C-3.21 602.02 -3.2 601 -3.19 599.94 C-3.19 598.91 -3.19 597.87 -3.19 596.81 C-3.14 589.14 -3.14 589.14 -2 588 C-0.26 587.81 1.47 587.62 3.21 587.48 C5.62 586.83 6.53 586.02 8 584 C8.36 581.59 8.36 581.59 8.31 578.94 C8.31 578.06 8.3 577.18 8.3 576.28 C8 574 8 574 6 572 C5.73 570.34 5.73 570.34 5.75 568.5 C5.74 567.89 5.74 567.28 5.73 566.66 C6 565 6 565 8 563 C8.27 561.34 8.27 561.34 8.25 559.5 C8.26 558.89 8.26 558.28 8.27 557.66 C8 556 8 556 6 554 C5.88 551.38 5.88 551.38 6 549 C5.01 549 4.02 549 3 549 C3.01 549.5 3.02 550.01 3.03 550.53 C3.07 552.81 3.1 555.09 3.12 557.38 C3.14 558.17 3.16 558.96 3.18 559.78 C3.18 560.16 3.18 560.16 3.2 562.09 C3.21 562.79 3.22 563.49 3.23 564.21 C3 566 3 566 1 568 C0.29 569.65 -0.38 571.32 -1 573 C-2.65 572.67 -4.3 572.34 -6 572 C-5.83 571.17 -5.83 571.17 -5 567 C-4.34 567 -3.68 567 -3 567 C-3.11 563.71 -3.24 560.42 -3.38 557.12 C-3.41 556.19 -3.44 555.25 -3.47 554.29 C-3.49 553.84 -3.49 553.84 -3.59 551.57 C-3.62 550.74 -3.65 549.92 -3.68 549.06 C-4 547 -4 547 -6 545 C-6.25 542.49 -6.25 542.49 -6.25 539.27 C-6.26 538.97 -6.26 538.97 -6.26 537.47 C-6.27 535.48 -6.27 533.49 -6.26 531.49 C-6.26 530.07 -6.27 528.64 -6.27 527.22 C-6.28 523.34 -6.27 519.46 -6.27 515.58 C-6.26 511.53 -6.27 507.48 -6.27 503.43 C-6.28 496.62 -6.27 489.81 -6.26 483.01 C-6.25 475.13 -6.25 467.26 -6.26 459.38 C-6.27 452.62 -6.27 445.87 -6.27 439.12 C-6.27 435.08 -6.27 431.04 -6.27 427 C-6.28 423.21 -6.27 419.41 -6.26 415.62 C-6.26 414.22 -6.26 412.83 -6.27 411.43 C-6.27 409.53 -6.26 407.63 -6.25 405.73 C-6.25 404.67 -6.25 403.6 -6.25 402.51 C-6 400 -6 400 -4 398 C-3.73 395.69 -3.73 395.69 -3.75 393 C-3.74 392.11 -3.74 391.23 -3.73 390.31 C-4 388 -4 388 -6 386 C-6.25 383.96 -6.25 383.96 -6.25 381.41 C-6.26 380.44 -6.27 379.47 -6.27 378.48 C-6.27 377.41 -6.26 376.35 -6.26 375.25 C-6.26 374.13 -6.27 373.01 -6.27 371.86 C-6.28 368.79 -6.27 365.71 -6.27 362.64 C-6.26 359.43 -6.27 356.22 -6.27 353.01 C-6.28 347.61 -6.27 342.22 -6.26 336.83 C-6.25 330.59 -6.25 324.34 -6.26 318.1 C-6.27 312.75 -6.27 307.4 -6.27 302.05 C-6.27 298.85 -6.27 295.65 -6.27 292.45 C-6.28 288.88 -6.27 285.32 -6.26 281.75 C-6.26 280.69 -6.27 279.62 -6.27 278.52 C-6.27 277.56 -6.26 276.59 -6.25 275.59 C-6.25 274.75 -6.25 273.91 -6.25 273.04 C-6 271 -6 271 -4 269 C-3.73 267.34 -3.73 267.34 -3.75 265.5 C-3.74 264.89 -3.74 264.28 -3.73 263.66 C-4 262 -4 262 -6 260 C-6.27 258.34 -6.27 258.34 -6.25 256.5 C-6.25 256.2 -6.25 256.2 -6.27 254.66 C-6 253 -6 253 -4 251 C-4.56 246.44 -4.56 246.44 -6 245 C-6.07 243.31 -6.08 241.62 -6.06 239.94 C-6.05 239.02 -6.04 238.1 -6.04 237.15 C-6.02 236.44 -6.01 235.73 -6 235 C-5.01 234.67 -4.02 234.34 -3 234 C-3 233.01 -3 232.02 -3 231 C-3.99 230.67 -4.98 230.34 -6 230 C-6.05 211.52 -6.08 193.04 -6.1 174.56 C-6.11 165.98 -6.13 157.4 -6.15 148.82 C-6.17 141.34 -6.18 133.87 -6.19 126.39 C-6.19 122.43 -6.2 118.47 -6.21 114.51 C-6.22 110.78 -6.23 107.06 -6.23 103.34 C-6.23 101.97 -6.23 100.6 -6.24 99.23 C-6.25 97.36 -6.25 95.5 -6.24 93.63 C-6.24 92.59 -6.24 91.54 -6.25 90.46 C-6 88 -6 88 -4 86 C-3.73 84.34 -3.73 84.34 -3.75 82.5 C-3.74 81.89 -3.74 81.28 -3.73 80.66 C-4 79 -4 79 -6 77 C-6.2 74.78 -6.28 72.72 -6.25 70.5 C-6.26 69.91 -6.27 69.31 -6.27 68.7 C-6.25 64.25 -6.25 64.25 -4 62 C-4.31 59.69 -4.31 59.69 -5 57 C-5.33 55.33 -5.67 53.67 -6 52 C-5.5 51.84 -5.5 51.84 -3 51 C-3 50.01 -3 49.02 -3 48 C-3.99 47.67 -4.98 47.34 -6 47 C-6.08 40.95 -6.13 34.9 -6.16 28.85 C-6.18 26.79 -6.2 24.73 -6.23 22.67 C-6.26 19.71 -6.28 16.76 -6.29 13.8 C-6.31 12.88 -6.32 11.96 -6.34 11.01 C-6.34 4.67 -6.34 4.67 -4.67 1.39 C-3 0 -3 0 0 0 Z M0 246 C0 246.99 0 247.98 0 249 C0.99 249 1.98 249 3 249 C3 248.01 3 247.02 3 246 C2.01 246 1.02 246 0 246 Z M18 261 C18 262.98 18 264.96 18 267 C18.99 267 19.98 267 21 267 C21 265.02 21 263.04 21 261 C20.01 261 19.02 261 18 261 Z M9 342 C9 342.99 9 343.98 9 345 C9.99 345 10.98 345 12 345 C12 344.01 12 343.02 12 342 C11.01 342 10.02 342 9 342 Z M18 375 C18 375.99 18 376.98 18 378 C18.99 378 19.98 378 21 378 C21 377.01 21 376.02 21 375 C20.01 375 19.02 375 18 375 Z M18 420 C18 420.99 18 421.98 18 423 C18.99 423 19.98 423 21 423 C21 422.01 21 421.02 21 420 C20.01 420 19.02 420 18 420 Z M21 462 C21 462.99 21 463.98 21 465 C21.99 465 22.98 465 24 465 C24 464.01 24 463.02 24 462 C23.01 462 22.02 462 21 462 Z M6 507 C6 507.99 6 508.98 6 510 C6.99 510 7.98 510 9 510 C9 509.01 9 508.02 9 507 C8.01 507 7.02 507 6 507 Z M18 522 C18 525 18 525 19.5 526.69 C20 527.12 20.49 527.55 21 528 C21.99 527.67 22.98 527.34 24 527 C23.67 525.35 23.34 523.7 23 522 C21.35 522 19.7 522 18 522 Z M3 528 C3 528.99 3 529.98 3 531 C3.99 531 4.98 531 6 531 C6 530.01 6 529.02 6 528 C5.01 528 4.02 528 3 528 Z M3 540 C3 540.99 3 541.98 3 543 C3.99 543 4.98 543 6 543 C6 542.01 6 541.02 6 540 C5.01 540 4.02 540 3 540 Z M15 556 C14.78 557.77 14.55 559.54 14.38 561.31 C14 563 14 563 12 565 C11.8 566.95 11.8 566.95 11.88 569.12 C11.89 569.85 11.91 570.57 11.93 571.32 C11.95 571.87 11.98 572.43 12 573 C15 573 15 573 16.62 571.44 C17.93 569.12 18.26 567.93 18.56 565.38 C19 562 19 562 21 560 C20.62 557.38 20.62 557.38 20 555 C16.12 554.88 16.12 554.88 15 556 Z M1.69 598.25 C0 600 0 600 0 603 C1.69 604.75 1.69 604.75 4 606 C6.75 605.69 6.75 605.69 9 605 C9 602.69 9 600.38 9 598 C5.92 597.06 4.59 596.68 1.69 598.25 Z M9 609 C9 609.99 9 610.98 9 612 C9.99 612 10.98 612 12 612 C12 611.01 12 610.02 12 609 C11.01 609 10.02 609 9 609 Z " transform="translate(114,1317)"/>
    <path d="M0 0 C0.61 -0 1.21 -0.01 1.84 -0.01 C3.11 -0.01 4.39 -0.01 5.67 0.01 C7.62 0.03 9.57 0.01 11.52 -0.02 C12.76 -0.01 14.01 -0.01 15.25 0 C15.81 0 15.81 0 18.66 0.01 C22.37 0.66 23.34 1.58 25.62 4.53 C26.01 6.88 26.15 8.76 26.11 11.1 C26.11 11.75 26.12 12.41 26.12 13.08 C26.13 15.22 26.11 17.36 26.09 19.51 C26.08 21 26.08 22.49 26.08 23.98 C26.08 27.1 26.06 30.23 26.04 33.35 C26 37.35 25.99 41.36 26 45.37 C26 48.45 25.99 51.52 25.97 54.6 C25.96 56.08 25.96 57.56 25.96 59.03 C25.95 61.1 25.94 63.16 25.92 65.22 C25.92 65.52 25.92 65.52 25.92 67.07 C25.85 71.3 25.85 71.3 23.62 73.53 C24.18 78.09 24.18 78.09 25.62 79.53 C25.77 81.87 25.67 84.19 25.62 86.53 C24.63 86.86 23.65 87.19 22.62 87.53 C22.62 88.52 22.62 89.51 22.62 90.53 C23.62 90.86 24.6 91.19 25.62 91.53 C25.62 144.33 25.62 197.13 25.62 251.53 C24.63 251.86 23.65 252.19 22.62 252.53 C22.62 253.52 22.62 254.51 22.62 255.53 C23.62 255.86 24.6 256.19 25.62 256.53 C25.68 262.62 25.71 268.71 25.73 274.79 C25.74 276.86 25.76 278.94 25.78 281.01 C25.8 283.98 25.81 286.96 25.82 289.93 C25.83 290.86 25.84 291.79 25.85 292.75 C25.85 293.18 25.85 293.18 25.85 295.36 C25.86 296.12 25.86 296.88 25.87 297.66 C25.62 299.53 25.62 299.53 23.62 301.53 C23.36 303.19 23.36 303.19 23.38 305.03 C23.37 305.64 23.36 306.25 23.36 306.88 C23.62 308.53 23.62 308.53 25.62 310.53 C25.82 313.09 25.9 315.54 25.89 318.09 C25.89 318.47 25.89 318.47 25.9 320.36 C25.9 321.94 25.89 323.52 25.89 325.1 C25.88 327.52 25.89 329.94 25.9 332.37 C25.9 333.9 25.89 335.43 25.89 336.97 C25.89 337.7 25.9 338.42 25.9 339.17 C25.85 344.3 25.85 344.3 23.62 346.53 C24.18 351.09 24.18 351.09 25.62 352.53 C25.76 354.16 25.76 354.16 25.77 356.28 C25.78 357.08 25.78 357.87 25.79 358.69 C25.79 359.56 25.79 360.42 25.79 361.31 C25.79 361.75 25.79 361.75 25.8 363.98 C25.81 365.85 25.81 367.72 25.81 369.59 C25.81 372.45 25.83 375.32 25.85 378.19 C25.85 380 25.85 381.81 25.86 383.62 C25.86 384.48 25.87 385.34 25.88 386.23 C25.87 387.03 25.87 387.83 25.87 388.65 C25.87 389.35 25.87 390.05 25.87 390.78 C25.62 392.53 25.62 392.53 23.62 394.53 C23.36 396.84 23.36 396.84 23.38 399.53 C23.37 400.42 23.36 401.31 23.36 402.22 C23.62 404.53 23.62 404.53 25.62 406.53 C25.88 408.47 25.88 408.47 25.89 410.81 C25.89 411.23 25.89 411.23 25.9 413.36 C25.89 414.24 25.88 415.12 25.88 416.03 C25.88 416.47 25.88 416.47 25.9 418.7 C25.9 419.54 25.89 420.38 25.89 421.25 C25.89 422.02 25.89 422.8 25.88 423.59 C25.62 425.53 25.62 425.53 23.62 427.53 C24.18 432.09 24.18 432.09 25.62 433.53 C25.74 435.59 25.79 437.62 25.79 439.68 C25.79 439.99 25.79 439.99 25.8 441.55 C25.81 442.85 25.81 444.16 25.81 445.46 C25.81 447.46 25.83 449.45 25.85 451.45 C25.85 452.72 25.85 453.98 25.86 455.25 C25.86 455.85 25.87 456.44 25.88 457.06 C25.85 461.3 25.85 461.3 23.62 463.53 C23.35 466.13 23.35 466.13 23.31 469.45 C23.3 469.75 23.3 469.75 23.28 471.28 C23.24 473.29 23.23 475.29 23.21 477.29 C23.19 478.68 23.17 480.06 23.15 481.45 C23.1 485.1 23.06 488.76 23.02 492.41 C22.98 496.14 22.93 499.86 22.88 503.59 C22.79 510.9 22.7 518.22 22.62 525.53 C20.97 525.86 19.32 526.19 17.62 526.53 C17.62 527.85 17.62 529.17 17.62 530.53 C19.28 531.19 20.93 531.85 22.62 532.53 C22.46 533.36 22.46 533.36 21.62 537.53 C19.97 537.53 18.32 537.53 16.62 537.53 C16.62 538.52 16.62 539.51 16.62 540.53 C17.24 540.82 17.86 541.11 18.5 541.41 C20.62 542.53 20.62 542.53 22.62 544.53 C23.01 547.09 23.13 549.63 23.28 552.22 C23.62 554.53 23.62 554.53 25.62 556.53 C25.07 561.09 25.07 561.09 23.62 562.53 C23.51 564.89 23.46 567.23 23.45 569.59 C23.44 570.33 23.44 571.07 23.43 571.83 C23.42 573.43 23.41 575.04 23.4 576.65 C23.38 579.19 23.36 581.73 23.33 584.28 C23.26 591.51 23.2 598.74 23.15 605.96 C23.12 610.38 23.08 614.8 23.03 619.21 C23.01 620.9 23 622.59 22.99 624.28 C22.98 626.63 22.95 628.99 22.93 631.34 C22.93 632.05 22.93 632.75 22.93 633.47 C22.85 638.3 22.85 638.3 20.62 640.53 C20.31 642.87 20.31 642.87 20.21 645.76 C20.17 646.79 20.13 647.82 20.09 648.88 C20.06 649.96 20.03 651.04 20 652.16 C19.96 653.24 19.92 654.33 19.88 655.45 C19.79 658.15 19.7 660.84 19.62 663.53 C18.63 663.53 17.65 663.53 16.62 663.53 C16.58 662.98 16.53 662.42 16.48 661.85 C16.4 661.13 16.33 660.4 16.25 659.66 C16.18 658.94 16.11 658.22 16.04 657.48 C15.62 655.53 15.62 655.53 13.62 653.53 C13.37 651.79 13.37 651.79 13.37 649.66 C13.36 648.87 13.35 648.08 13.35 647.26 C13.35 646.4 13.36 645.54 13.36 644.66 C13.36 643.78 13.36 642.9 13.35 641.99 C13.35 640.13 13.36 638.26 13.36 636.4 C13.37 633.54 13.36 630.69 13.35 627.83 C13.35 626.02 13.36 624.21 13.36 622.41 C13.36 621.55 13.35 620.69 13.35 619.81 C13.35 619.01 13.36 618.22 13.37 617.4 C13.37 617.05 13.37 617.05 13.37 615.28 C13.62 613.53 13.62 613.53 15.62 611.53 C15.89 609.88 15.89 609.88 15.88 608.03 C15.88 607.42 15.89 606.81 15.89 606.19 C15.62 604.53 15.62 604.53 13.62 602.53 C13.43 599.93 13.43 599.93 13.5 596.91 C13.51 596.4 13.51 596.4 13.55 593.87 C13.58 593.1 13.6 592.33 13.62 591.53 C12.63 591.53 11.65 591.53 10.62 591.53 C8.8 594.66 8.37 596.99 8.32 600.59 C8.29 601.56 8.27 602.52 8.24 603.51 C8.21 605.52 8.17 607.54 8.15 609.55 C8.12 610.52 8.09 611.48 8.07 612.47 C8.05 613.34 8.04 614.22 8.03 615.12 C7.54 618.03 6.69 619.44 4.62 621.53 C3.63 621.53 2.65 621.53 1.62 621.53 C1.58 620.98 1.53 620.42 1.48 619.85 C1.4 619.13 1.33 618.4 1.25 617.66 C1.18 616.94 1.11 616.22 1.04 615.48 C0.62 613.53 0.62 613.53 -1.38 611.53 C-1.52 609.11 -1.56 606.82 -1.5 604.41 C-1.49 603.75 -1.48 603.09 -1.47 602.41 C-1.45 600.78 -1.41 599.16 -1.38 597.53 C-2.37 597.53 -3.35 597.53 -4.38 597.53 C-4.38 602.48 -4.38 607.43 -4.38 612.53 C-5.37 612.53 -6.35 612.53 -7.38 612.53 C-7.42 602.92 -7.46 593.3 -7.48 583.69 C-7.49 579.23 -7.5 574.76 -7.53 570.3 C-7.55 565.99 -7.56 561.69 -7.56 557.38 C-7.57 555.74 -7.58 554.09 -7.59 552.45 C-7.6 550.15 -7.6 547.85 -7.6 545.55 C-7.61 544.87 -7.62 544.18 -7.62 543.48 C-7.6 538.76 -7.6 538.76 -5.38 536.53 C-5.03 534.88 -5.03 534.88 -4.88 533.03 C-4.63 530.12 -4.57 529.73 -2.38 527.53 C-2.06 525.74 -2.06 525.74 -1.96 523.62 C-1.92 522.86 -1.88 522.1 -1.84 521.31 C-1.83 520.92 -1.83 520.92 -1.75 518.91 C-1.71 518.1 -1.67 517.3 -1.63 516.48 C-1.54 514.5 -1.45 512.51 -1.38 510.53 C-2.37 510.53 -3.35 510.53 -4.38 510.53 C-4.71 511.52 -5.03 512.51 -5.38 513.53 C-7.03 513.2 -8.68 512.87 -10.38 512.53 C-10.57 507.26 -10.57 507.26 -10.38 505.53 C-9.72 504.87 -9.06 504.21 -8.38 503.53 C-8.18 501.31 -8.1 499.25 -8.12 497.03 C-8.12 496.44 -8.11 495.84 -8.1 495.23 C-8.12 490.78 -8.12 490.78 -10.38 488.53 C-11.07 483.86 -11.29 479.81 -8.5 475.91 C-6.38 474.53 -6.38 474.53 -4.38 474.53 C-4.38 473.54 -4.38 472.55 -4.38 471.53 C-4.99 471.24 -5.61 470.95 -6.25 470.66 C-8.37 469.53 -8.37 469.53 -10.38 467.53 C-10.63 465.64 -10.63 465.64 -10.63 463.28 C-10.63 462.39 -10.64 461.5 -10.65 460.58 C-10.64 459.6 -10.64 458.62 -10.63 457.61 C-10.64 456.57 -10.64 455.54 -10.64 454.48 C-10.65 451.65 -10.65 448.82 -10.64 445.99 C-10.64 443.03 -10.64 440.07 -10.65 437.11 C-10.65 432.14 -10.65 427.17 -10.64 422.2 C-10.62 416.45 -10.63 410.7 -10.64 404.95 C-10.65 400.02 -10.65 395.09 -10.64 390.16 C-10.64 387.21 -10.64 384.26 -10.65 381.31 C-10.65 378.03 -10.64 374.74 -10.63 371.46 C-10.64 370.48 -10.64 369.5 -10.65 368.48 C-10.64 367.59 -10.63 366.7 -10.63 365.78 C-10.63 365.01 -10.63 364.23 -10.63 363.43 C-10.38 361.53 -10.38 361.53 -8.38 359.53 C-8.11 357.88 -8.11 357.88 -8.12 356.03 C-8.12 355.42 -8.11 354.81 -8.11 354.19 C-8.38 352.53 -8.38 352.53 -10.38 350.53 C-10.63 348.59 -10.63 348.59 -10.64 346.25 C-10.64 345.41 -10.65 344.57 -10.65 343.7 C-10.64 343.26 -10.64 343.26 -10.62 341.03 C-10.63 340.15 -10.64 339.27 -10.65 338.36 C-10.65 337.52 -10.64 336.68 -10.64 335.81 C-10.64 335.04 -10.64 334.27 -10.63 333.47 C-10.38 331.53 -10.38 331.53 -8.38 329.53 C-8.11 327.22 -8.11 327.22 -8.12 324.53 C-8.12 323.64 -8.11 322.76 -8.11 321.84 C-8.38 319.53 -8.38 319.53 -10.38 317.53 C-10.55 315.38 -10.61 313.36 -10.57 311.21 C-10.57 310.59 -10.56 309.97 -10.56 309.34 C-10.55 307.36 -10.53 305.38 -10.5 303.41 C-10.49 302.07 -10.48 300.73 -10.47 299.39 C-10.45 296.1 -10.42 292.82 -10.38 289.53 C-9.38 289.2 -8.4 288.87 -7.38 288.53 C-7.38 287.54 -7.38 286.55 -7.38 285.53 C-8.37 285.2 -9.35 284.87 -10.38 284.53 C-10.42 269.18 -10.46 253.83 -10.48 238.48 C-10.49 231.35 -10.5 224.22 -10.53 217.1 C-10.55 210.89 -10.56 204.68 -10.56 198.47 C-10.57 195.18 -10.57 191.89 -10.59 188.6 C-10.6 184.93 -10.6 181.26 -10.6 177.59 C-10.61 176.49 -10.62 175.4 -10.62 174.27 C-10.62 173.27 -10.62 172.28 -10.62 171.25 C-10.62 170.38 -10.62 169.51 -10.62 168.62 C-10.38 166.53 -10.38 166.53 -8.38 164.53 C-8.18 161.97 -8.1 159.53 -8.11 156.97 C-8.11 156.22 -8.11 155.47 -8.1 154.7 C-8.1 153.12 -8.11 151.54 -8.11 149.96 C-8.12 147.54 -8.11 145.12 -8.1 142.7 C-8.1 141.16 -8.11 139.63 -8.11 138.09 C-8.11 137.37 -8.1 136.64 -8.1 135.89 C-8.15 130.76 -8.15 130.76 -10.38 128.53 C-10.63 125.77 -10.63 125.77 -10.64 122.28 C-10.64 121.67 -10.64 121.05 -10.65 120.42 C-10.65 119.12 -10.64 117.83 -10.64 116.53 C-10.63 114.54 -10.64 112.55 -10.65 110.56 C-10.65 109.3 -10.64 108.04 -10.64 106.78 C-10.64 105.63 -10.64 104.48 -10.63 103.3 C-10.38 100.53 -10.38 100.53 -8.38 98.53 C-8.93 93.98 -8.93 93.98 -10.38 92.53 C-10.47 90.16 -10.5 87.81 -10.49 85.44 C-10.49 84.7 -10.49 83.96 -10.49 83.19 C-10.49 80.73 -10.48 78.27 -10.47 75.81 C-10.47 74.11 -10.47 72.4 -10.47 70.7 C-10.46 66.21 -10.45 61.72 -10.44 57.23 C-10.43 52.65 -10.43 48.08 -10.42 43.5 C-10.41 34.51 -10.4 25.52 -10.38 16.53 C-9.38 16.2 -8.4 15.87 -7.38 15.53 C-7.38 14.54 -7.38 13.55 -7.38 12.53 C-8.37 12.2 -9.35 11.87 -10.38 11.53 C-10.87 5.16 -10.87 5.16 -8.75 2.44 C-5.67 -0.03 -3.92 0.02 0 0 Z M10.62 123.53 C10.62 124.52 10.62 125.51 10.62 126.53 C11.62 126.53 12.6 126.53 13.62 126.53 C13.62 125.54 13.62 124.55 13.62 123.53 C12.63 123.53 11.65 123.53 10.62 123.53 Z M13.62 474.53 C13.62 476.51 13.62 478.49 13.62 480.53 C14.62 480.53 15.6 480.53 16.62 480.53 C16.62 478.55 16.62 476.57 16.62 474.53 C15.63 474.53 14.65 474.53 13.62 474.53 Z M7.62 498.53 C7.62 499.52 7.62 500.51 7.62 501.53 C8.62 501.53 9.6 501.53 10.62 501.53 C10.62 500.54 10.62 499.55 10.62 498.53 C9.63 498.53 8.65 498.53 7.62 498.53 Z M5.94 526.84 C4.62 528.53 4.62 528.53 4.62 531.53 C5.94 533.22 5.94 533.22 7.62 534.53 C8.62 534.53 9.6 534.53 10.62 534.53 C10.62 531.56 10.62 528.59 10.62 525.53 C7.62 525.53 7.62 525.53 5.94 526.84 Z M5.94 544.84 C4.62 546.53 4.62 546.53 4.62 549.53 C6.29 549.57 7.96 549.57 9.62 549.53 C10.62 548.53 10.62 548.53 10.69 545.97 C10.67 545.16 10.65 544.36 10.62 543.53 C7.62 543.53 7.62 543.53 5.94 544.84 Z " transform="translate(187.375,1316.46875)"/>
    <path d="M0 0 C2 1 4 2 6 3 C6.33 2.01 6.66 1.02 7 0 C12.27 -0.2 12.27 -0.2 14 0 C14.66 0.66 15.32 1.32 16 2 C20.56 1.44 20.56 1.44 22 0 C23.59 -0.13 23.59 -0.13 25.5 -0.12 C26.13 -0.13 26.76 -0.13 27.41 -0.13 C29 0 29 0 30 1 C30.1 3.63 30.13 6.24 30.12 8.87 C30.12 9.71 30.13 10.55 30.13 11.41 C30.13 14.26 30.12 17.1 30.12 19.95 C30.12 22 30.12 24.04 30.12 26.09 C30.12 31.15 30.12 36.21 30.12 41.27 C30.11 47.32 30.11 53.38 30.11 59.43 C30.12 70.61 30.11 81.79 30.11 92.96 C30.1 104.03 30.1 115.11 30.09 126.18 C30.09 126.86 30.09 127.55 30.09 128.26 C30.09 131.75 30.09 135.24 30.09 138.74 C30.09 163.49 30.08 188.24 30.08 212.99 C30.07 237.04 30.06 261.09 30.05 285.14 C30.05 285.51 30.05 285.51 30.05 287.39 C30.05 294.83 30.05 302.27 30.05 309.71 C30.05 324.87 30.05 340.02 30.04 355.18 C30.04 355.53 30.04 355.53 30.04 357.29 C30.03 403.86 30.02 450.43 30 497 C29.01 497.33 28.02 497.66 27 498 C27 498.99 27 499.98 27 501 C27.99 501 28.98 501 30 501 C30 501.99 30 502.98 30 504 C29.18 504.46 28.36 504.92 27.52 505.39 C25.3 507.04 25.02 507.87 24.59 510.66 C24.51 514.03 24.56 517.38 24.69 520.75 C24.71 521.94 24.74 523.12 24.76 524.31 C24.81 527.21 24.9 530.1 25 533 C26.65 533.33 28.3 533.66 30 534 C30 534.99 30 535.98 30 537 C29.34 537.33 28.68 537.66 28 538 C27.67 554.5 27.34 571 27 588 C26.01 588 25.02 588 24 588 C23.98 587.31 23.96 586.63 23.94 585.92 C23.84 582.82 23.74 579.72 23.62 576.62 C23.59 575.54 23.56 574.46 23.53 573.35 C23.49 572.32 23.45 571.29 23.41 570.23 C23.38 569.27 23.35 568.32 23.32 567.34 C23 565 23 565 21 563 C20.8 560.4 20.8 560.4 20.88 557.38 C20.88 556.87 20.88 556.87 20.93 554.34 C20.95 553.57 20.98 552.79 21 552 C20.01 552 19.02 552 18 552 C18 556.95 18 561.9 18 567 C17.34 567.33 16.68 567.66 16 568 C15.98 569.02 15.96 570.04 15.94 571.09 C15.86 574.87 15.78 578.64 15.68 582.42 C15.64 584.05 15.61 585.69 15.58 587.32 C15.53 589.67 15.47 592.02 15.41 594.37 C15.41 594.73 15.41 594.73 15.38 596.59 C15.23 601.77 15.23 601.77 13 604 C12.38 606.62 12.38 606.62 12 609 C10.02 609 8.04 609 6 609 C6.02 609.77 6.05 610.54 6.07 611.34 C6.09 612.34 6.11 613.34 6.12 614.38 C6.15 615.37 6.17 616.37 6.2 617.4 C6 620 6 620 4 622 C3.73 623.66 3.73 623.66 3.75 625.5 C3.74 626.11 3.74 626.72 3.73 627.34 C4 629 4 629 6 631 C6.3 633.9 6.3 633.9 6.31 637.38 C6.32 637.95 6.32 637.95 6.36 640.84 C5.97 644.23 5.46 645.66 3 648 C2.01 648 1.02 648 0 648 C-0.33 628.53 -0.66 609.06 -1 589 C-1.66 588.67 -2.32 588.34 -3 588 C-3 587.01 -3 586.02 -3 585 C-2.34 584.67 -1.68 584.34 -1 584 C-1 579.71 -1 575.42 -1 571 C-1.66 570.67 -2.32 570.34 -3 570 C-3 569.01 -3 568.02 -3 567 C-2.34 566.67 -1.68 566.34 -1 566 C-1.87 561.12 -1.87 561.12 -3 560 C-3.1 557.47 -3.13 554.97 -3.12 552.44 C-3.12 551.64 -3.12 550.84 -3.12 550.01 C-3.12 547.31 -3.12 544.6 -3.11 541.89 C-3.11 539.96 -3.11 538.03 -3.11 536.1 C-3.11 530.84 -3.11 525.58 -3.1 520.32 C-3.1 514.83 -3.09 509.34 -3.09 503.85 C-3.09 494.63 -3.08 485.41 -3.08 476.18 C-3.07 466.68 -3.06 457.18 -3.05 447.69 C-3.05 447.1 -3.05 446.51 -3.05 445.91 C-3.05 442.98 -3.05 440.04 -3.05 437.11 C-3.04 412.74 -3.02 388.37 -3 364 C-2.01 363.67 -1.02 363.34 0 363 C0 362.01 0 361.02 0 360 C-0.99 359.67 -1.98 359.34 -3 359 C-3.07 313.84 -3.12 268.69 -3.15 223.53 C-3.16 218.2 -3.16 212.87 -3.16 207.55 C-3.17 206.49 -3.17 205.43 -3.17 204.33 C-3.18 187.14 -3.2 169.96 -3.23 152.77 C-3.26 135.14 -3.28 117.51 -3.28 99.88 C-3.29 89 -3.3 78.12 -3.32 67.23 C-3.34 59.78 -3.34 52.32 -3.34 44.86 C-3.34 40.56 -3.34 36.25 -3.36 31.95 C-3.37 28.01 -3.37 24.07 -3.36 20.13 C-3.36 18.7 -3.37 17.27 -3.37 15.84 C-3.39 13.91 -3.38 11.97 -3.37 10.04 C-3.37 8.96 -3.37 7.88 -3.37 6.77 C-2.95 3.66 -2.09 2.29 0 0 Z M6 108 C6 108.99 6 109.98 6 111 C6.99 111 7.98 111 9 111 C9 110.01 9 109.02 9 108 C8.01 108 7.02 108 6 108 Z M1 120 C1 120.99 1 121.98 1 123 C2.65 123 4.3 123 6 123 C6 122.01 6 121.02 6 120 C4.35 120 2.7 120 1 120 Z M3 222 C3 222.99 3 223.98 3 225 C3.99 225 4.98 225 6 225 C6 224.01 6 223.02 6 222 C5.01 222 4.02 222 3 222 Z M18 222 C18 225 18 225 19.31 226.69 C21 228 21 228 24 228 C24.04 226.33 24.04 224.67 24 223 C23 222 23 222 20.44 221.94 C19.63 221.96 18.83 221.98 18 222 Z M15 360 C15 360.99 15 361.98 15 363 C15.99 363 16.98 363 18 363 C18 362.01 18 361.02 18 360 C17.01 360 16.02 360 15 360 Z M12 435 C12 435.99 12 436.98 12 438 C12.99 438 13.98 438 15 438 C15 437.01 15 436.02 15 435 C14.01 435 13.02 435 12 435 Z M3 471 C1.31 473.5 1.31 473.5 0 476 C1.66 476.38 3.32 476.71 5 477 C6 476 6 476 6.06 473.44 C6.04 472.63 6.02 471.83 6 471 C5.01 471 4.02 471 3 471 Z M21 483 C21 483.99 21 484.98 21 486 C21.99 486 22.98 486 24 486 C24 485.01 24 484.02 24 483 C23.01 483 22.02 483 21 483 Z M1 489 C0 490 0 490 -0.11 492.22 C-0.11 493.18 -0.1 494.14 -0.1 495.13 C-0.09 496.16 -0.09 497.2 -0.09 498.26 C-0.08 499.35 -0.07 500.44 -0.06 501.56 C-0.06 502.65 -0.05 503.75 -0.05 504.87 C-0.04 507.58 -0.02 510.29 0 513 C0.99 513 1.98 513 3 513 C3.15 512.52 3.15 512.52 3.94 510.06 C5 507 5 507 6 506 C6.11 504.42 6.11 504.42 6.1 502.4 C6.09 501.68 6.09 500.97 6.09 500.22 C6.08 499.47 6.07 498.72 6.06 497.94 C6.06 497.18 6.05 496.42 6.05 495.64 C6.04 493.76 6.02 491.88 6 490 C4.34 489.62 2.68 489.29 1 489 Z M15 498 C15 498.99 15 499.98 15 501 C15.99 501 16.98 501 18 501 C18 500.01 18 499.02 18 498 C17.01 498 16.02 498 15 498 Z M6 516 C6 516.99 6 517.98 6 519 C6.99 519 7.98 519 9 519 C9 518.01 9 517.02 9 516 C8.01 516 7.02 516 6 516 Z M1.32 526.58 C-0.37 529.68 -0.33 532.32 -0.19 535.75 C-0.17 536.35 -0.16 536.95 -0.15 537.57 C-0.11 539.05 -0.06 540.53 0 542 C1.65 542.33 3.3 542.66 5 543 C5.62 540.62 5.62 540.62 6 538 C5.34 537.34 4.68 536.68 4 536 C4.56 531.44 4.56 531.44 6 530 C6.04 528.33 6.04 526.67 6 525 C3 525 3 525 1.32 526.58 Z M0 550 C-0.07 551.35 -0.08 552.71 -0.06 554.06 C-0.05 554.8 -0.04 555.53 -0.04 556.29 C-0.02 556.85 -0.01 557.42 0 558 C3 558 3 558 4.75 556.31 C6 554 6 554 5.69 551.25 C5.57 550.88 5.57 550.88 5 549 C1.12 548.88 1.12 548.88 0 550 Z M9 597 C9 597.99 9 598.98 9 600 C9.99 600 10.98 600 12 600 C12 599.01 12 598.02 12 597 C11.01 597 10.02 597 9 597 Z " transform="translate(252,1317)"/>
  </g>
</svg>
