<?xml version="1.0" encoding="UTF-8"?>
<!-- FRONT separation — RED plate (PMS 193 C) — LibertyLift1776 merch. 2 spot colors: Black + PMS 193 C (Old Glory Red). Vector art at final print size. -->
<svg xmlns="http://www.w3.org/2000/svg" width="11.56in" height="16.58in" viewBox="0 0 1374 1971">
  <g id="plate-red-PMS193C" fill="#B22234" fill-rule="nonzero">
    <path d="M0 0 C3 0 3 0 4.62 1.56 C5.93 3.88 6.26 5.07 6.56 7.62 C7 11 7 11 9 13 C9.37 14.78 9.5 16.53 9.66 18.34 C10 20 10 20 12 22 C12.37 23.78 12.5 25.53 12.66 27.34 C13 29 13 29 15 31 C15.16 31.66 15.16 31.66 16 35 C21.77 35.16 21.77 35.16 51 36 C51 39 51 39 49.64 40.54 C46.17 43.43 43.25 45.39 39 47 C38.67 47.33 38.67 47.33 37 49 C35 51 35 51 32.56 51.94 C29.24 53.32 26.76 54.84 25 58 C24.48 61.39 24.43 64.62 25 68 C25.66 68.66 26.32 69.32 27 70 C27.37 71.78 27.5 73.53 27.66 75.34 C28 77 28 77 30 79 C30.2 80.95 30.2 80.95 30.12 83.12 C30.11 83.85 30.09 84.57 30.07 85.32 C30.05 85.87 30.02 86.43 30 87 C30.5 87.16 30.5 87.16 33 88 C32.67 89.65 32.34 91.3 32 93 C27.58 92.51 26.03 91.13 23 88 C22.17 87.67 21.35 87.34 20.5 87 C17.58 85.83 16.21 84.21 14 82 C13.22 81.71 12.43 81.42 11.62 81.12 C8 79.57 5.44 77.08 3 74 C3 73.34 3 72.68 3 72 C2.01 72 1.02 72 0 72 C-0.29 72.62 -0.58 73.24 -0.88 73.88 C-2.34 76.64 -3.43 77.79 -6.38 78.88 C-9 80 -9 80 -11 82 C-13 84 -13 84 -15.38 84.81 C-18.79 86.36 -20.34 88.59 -22.57 91.54 C-23.04 92.02 -23.51 92.5 -24 93 C-24.99 93 -25.98 93 -27 93 C-27.05 91.71 -27.09 90.42 -27.12 89.12 C-27.15 88.41 -27.17 87.69 -27.2 86.95 C-27 85 -27 85 -25 83 C-24.66 80.69 -24.66 80.69 -24.5 78 C-24.22 73.22 -24.22 73.22 -22 71 C-21.59 69.27 -21.59 69.27 -21.38 67.38 C-21.25 66.26 -21.13 65.15 -21 64 C-20.5 63.84 -20.5 63.84 -18 63 C-18 62.01 -18 61.02 -18 60 C-18.54 59.79 -19.07 59.59 -19.62 59.38 C-21.88 58.07 -23.17 56.88 -24.94 55 C-26.84 53.02 -27.83 52.06 -30.44 51.06 C-33.87 49.64 -35.75 47.29 -38.29 44.62 C-40.34 42.68 -42.28 41.74 -45 41 C-45 38.69 -45 36.38 -45 34 C-42.62 33.38 -42.62 33.38 -40 33 C-39.34 33.66 -38.68 34.32 -38 35 C-34.45 35.39 -30.9 35.33 -27.33 35.32 C-25.57 35.31 -23.81 35.34 -22.05 35.36 C-20.94 35.36 -19.83 35.36 -18.69 35.36 C-17.67 35.37 -16.65 35.37 -15.6 35.37 C-13 35 -13 35 -11.21 33.64 C-9.68 31.57 -8.89 29.41 -8 27 C-7.84 26.84 -7.84 26.84 -7 26 C-6.78 24.23 -6.55 22.46 -6.38 20.69 C-6 19 -6 19 -4 17 C-3.66 15.34 -3.66 15.34 -3.5 13.5 C-3.25 10.59 -3.2 10.2 -1 8 C-0.59 6.05 -0.59 6.05 -0.38 3.88 C-0.3 3.15 -0.23 2.43 -0.15 1.68 C-0.1 1.13 -0.05 0.57 0 0 Z " transform="translate(690,36)"/>
    <path d="M0 0 C0.62 0.01 1.24 0.01 1.88 0.02 C2.2 0.02 2.2 0.02 3.86 0.02 C6.02 0.02 8.19 0.04 10.35 0.05 C11.85 0.06 13.35 0.06 14.85 0.06 C18.8 0.07 22.75 0.09 26.7 0.11 C30.72 0.13 34.75 0.14 38.78 0.15 C46.69 0.17 54.59 0.21 62.5 0.25 C62.83 1.24 63.16 2.23 63.5 3.25 C64.49 3.25 65.48 3.25 66.5 3.25 C66.83 2.26 67.16 1.27 67.5 0.25 C68.26 0.41 69.03 0.58 69.81 0.75 C72.5 1.25 72.5 1.25 75.5 1.25 C75.83 0.92 76.16 0.59 76.5 0.25 C78.12 0.15 79.75 0.13 81.37 0.13 C81.9 0.12 81.9 0.12 84.58 0.12 C85.78 0.12 86.97 0.13 88.16 0.13 C89.42 0.13 90.67 0.13 91.92 0.13 C95.39 0.12 98.85 0.13 102.32 0.13 C106.05 0.14 109.78 0.14 113.5 0.13 C119.97 0.13 126.44 0.14 132.9 0.14 C142.25 0.15 151.6 0.15 160.95 0.16 C176.12 0.16 191.29 0.16 206.46 0.17 C221.2 0.18 235.93 0.19 250.67 0.19 C251.13 0.19 251.13 0.19 253.42 0.19 C257.98 0.2 262.53 0.2 267.08 0.2 C304.89 0.21 342.69 0.23 380.5 0.25 C380.83 1.9 381.16 3.55 381.5 5.25 C381 5.41 381 5.41 378.5 6.25 C378.51 7.03 378.52 7.81 378.53 8.62 C378.54 9.13 378.54 9.13 378.56 11.69 C378.57 12.7 378.58 13.71 378.6 14.74 C378.5 17.25 378.5 17.25 377.5 18.25 C375.86 18.37 374.21 18.42 372.56 18.44 C371.67 18.45 370.77 18.46 369.85 18.48 C367.5 18.25 367.5 18.25 365.5 16.25 C360.94 16.8 360.94 16.8 359.5 18.25 C357.78 18.35 356.05 18.37 354.33 18.37 C353.21 18.37 352.09 18.37 350.93 18.37 C349.68 18.37 348.43 18.37 347.18 18.36 C345.87 18.36 344.56 18.36 343.25 18.36 C339.68 18.36 336.11 18.36 332.54 18.35 C328.82 18.34 325.09 18.34 321.37 18.34 C314.31 18.34 307.25 18.33 300.19 18.32 C292.16 18.31 284.12 18.3 276.09 18.3 C259.56 18.29 243.03 18.27 226.5 18.25 C226.17 17.26 225.84 16.27 225.5 15.25 C224.51 15.25 223.52 15.25 222.5 15.25 C222.17 16.24 221.84 17.23 221.5 18.25 C185.53 18.25 149.56 18.25 112.5 18.25 C112.17 17.26 111.84 16.27 111.5 15.25 C110.51 15.25 109.52 15.25 108.5 15.25 C108.17 16.24 107.84 17.23 107.5 18.25 C102.27 18.3 97.03 18.33 91.8 18.36 C90.02 18.37 88.24 18.38 86.46 18.4 C83.9 18.42 81.35 18.44 78.79 18.44 C77.99 18.45 77.19 18.46 76.37 18.48 C75.63 18.48 74.89 18.48 74.12 18.48 C73.8 18.48 73.8 18.48 72.14 18.49 C70.5 18.25 70.5 18.25 68.5 16.25 C66.84 15.98 66.84 15.98 65 16 C64.39 15.99 63.78 15.99 63.16 15.98 C61.5 16.25 61.5 16.25 59.5 18.25 C57.28 18.45 55.21 18.53 53 18.5 C52.7 18.5 52.7 18.5 51.2 18.52 C46.75 18.5 46.75 18.5 44.5 16.25 C42.84 15.98 42.84 15.98 41 16 C40.39 15.99 39.78 15.99 39.16 15.98 C37.5 16.25 37.5 16.25 35.5 18.25 C33.19 18.51 33.19 18.51 30.5 18.5 C30.06 18.5 30.06 18.5 27.81 18.51 C25.5 18.25 25.5 18.25 23.5 16.25 C21.19 15.98 21.19 15.98 18.5 16 C17.61 15.99 16.73 15.99 15.81 15.98 C13.5 16.25 13.5 16.25 11.5 18.25 C9.84 18.51 9.84 18.51 8 18.5 C7.7 18.5 7.7 18.5 6.16 18.51 C4.5 18.25 4.5 18.25 2.5 16.25 C0.7 15.97 0.7 15.97 -1.49 15.93 C-2.31 15.91 -3.13 15.89 -3.98 15.87 C-4.86 15.86 -5.75 15.85 -6.66 15.83 C-7.57 15.82 -8.48 15.8 -9.41 15.78 C-12.32 15.72 -15.22 15.67 -18.13 15.62 C-20.09 15.59 -22.06 15.55 -24.02 15.51 C-28.85 15.41 -33.68 15.33 -38.5 15.25 C-38.5 13.27 -38.5 11.29 -38.5 9.25 C-39.49 9.25 -40.48 9.25 -41.5 9.25 C-41.66 9.56 -41.66 9.56 -42.44 11.12 C-43.13 12.5 -43.81 13.87 -44.5 15.25 C-45.49 15.25 -46.48 15.25 -47.5 15.25 C-50.5 11.92 -50.5 11.92 -50.5 9.25 C-51.49 9.25 -52.48 9.25 -53.5 9.25 C-53.83 10.24 -54.16 11.23 -54.5 12.25 C-58.13 12.31 -61.75 12.34 -65.38 12.37 C-66.41 12.39 -67.44 12.41 -68.5 12.42 C-69.49 12.43 -70.48 12.44 -71.49 12.44 C-71.95 12.45 -71.95 12.45 -74.25 12.48 C-76.5 12.25 -76.5 12.25 -78.5 10.25 C-81.21 9.97 -81.21 9.97 -84.69 9.93 C-85.33 9.92 -85.96 9.91 -86.62 9.9 C-88.72 9.87 -90.82 9.85 -92.91 9.83 C-94.37 9.82 -95.82 9.8 -97.28 9.78 C-101.11 9.72 -104.94 9.69 -108.77 9.65 C-112.68 9.61 -116.59 9.56 -120.49 9.51 C-128.16 9.41 -135.83 9.33 -143.5 9.25 C-143.5 8.26 -143.5 7.27 -143.5 6.25 C-143.21 6.24 -143.21 6.24 -141.73 6.22 C-135.66 6.14 -129.6 6.04 -123.53 5.93 C-121.26 5.89 -119 5.86 -116.73 5.83 C-113.48 5.78 -110.23 5.72 -106.98 5.66 C-105.96 5.65 -104.94 5.64 -103.89 5.63 C-102.95 5.61 -102.01 5.59 -101.04 5.57 C-100.21 5.55 -99.38 5.54 -98.53 5.53 C-96.5 5.25 -96.5 5.25 -94.5 3.25 C-89.95 3.8 -89.95 3.8 -88.5 5.25 C-85.86 5.5 -83.21 5.43 -80.56 5.44 C-79.82 5.45 -79.08 5.46 -78.32 5.47 C-77.6 5.48 -76.89 5.48 -76.16 5.48 C-75.51 5.48 -74.85 5.49 -74.18 5.49 C-72.5 5.25 -72.5 5.25 -70.5 3.25 C-67.87 3.6 -65.38 4.28 -62.81 4.94 C-62.05 5.04 -61.29 5.14 -60.5 5.25 C-59.84 4.59 -59.18 3.93 -58.5 3.25 C-56.3 2.98 -56.3 2.98 -53.53 2.96 C-53.01 2.96 -53.01 2.96 -50.4 2.92 C-49.28 2.92 -48.16 2.91 -47 2.91 C-45.25 2.88 -43.5 2.86 -41.75 2.84 C-38.04 2.79 -34.33 2.76 -30.63 2.73 C-27.58 2.71 -24.53 2.68 -21.48 2.64 C-19.19 2.61 -16.89 2.59 -14.6 2.58 C-14.09 2.57 -14.09 2.57 -11.47 2.54 C-10.56 2.53 -9.64 2.52 -8.7 2.51 C-5.23 2.1 -3.93 0.02 0 0 Z M3.5 9.25 C3.5 10.24 3.5 11.23 3.5 12.25 C4.49 12.25 5.48 12.25 6.5 12.25 C6.83 11.59 7.16 10.93 7.5 10.25 C10.06 9.62 10.06 9.62 12.5 9.25 C12.5 8.26 12.5 7.27 12.5 6.25 C8.47 5.91 6.4 6.35 3.5 9.25 Z M72.5 6.25 C72.5 7.24 72.5 8.23 72.5 9.25 C73.49 9.25 74.48 9.25 75.5 9.25 C75.5 8.26 75.5 7.27 75.5 6.25 C74.51 6.25 73.52 6.25 72.5 6.25 Z M99.5 6.25 C99.5 7.24 99.5 8.23 99.5 9.25 C100.49 9.25 101.48 9.25 102.5 9.25 C102.5 8.26 102.5 7.27 102.5 6.25 C101.51 6.25 100.52 6.25 99.5 6.25 Z M108.5 6.25 C108.5 7.24 108.5 8.23 108.5 9.25 C109.49 9.25 110.48 9.25 111.5 9.25 C111.5 8.26 111.5 7.27 111.5 6.25 C110.51 6.25 109.52 6.25 108.5 6.25 Z M225.5 6.25 C225.5 7.24 225.5 8.23 225.5 9.25 C226.49 9.25 227.48 9.25 228.5 9.25 C228.5 8.26 228.5 7.27 228.5 6.25 C227.51 6.25 226.52 6.25 225.5 6.25 Z " transform="translate(236.50074768066406,83.75115966796875)"/>
    <path d="M0 0 C1.06 -0 2.12 -0.01 3.21 -0.01 C4.4 -0.01 5.59 -0.01 6.78 -0.01 C8.04 -0.01 9.29 -0.01 10.54 -0.01 C14 -0.02 17.46 -0.02 20.92 -0.02 C24.65 -0.02 28.37 -0.02 32.1 -0.03 C39.4 -0.04 46.71 -0.04 54.01 -0.04 C59.95 -0.04 65.88 -0.04 71.82 -0.04 C88.62 -0.05 105.43 -0.06 122.23 -0.06 C123.14 -0.06 124.05 -0.06 124.98 -0.06 C125.44 -0.06 125.44 -0.06 127.73 -0.06 C142.46 -0.06 157.18 -0.07 171.9 -0.08 C187 -0.09 202.1 -0.1 217.2 -0.1 C225.69 -0.1 234.17 -0.1 242.65 -0.11 C249.88 -0.12 257.1 -0.12 264.32 -0.12 C268.01 -0.11 271.7 -0.11 275.39 -0.12 C278.76 -0.13 282.13 -0.13 285.5 -0.12 C286.73 -0.12 287.95 -0.12 289.18 -0.13 C290.83 -0.13 292.49 -0.13 294.14 -0.12 C295.07 -0.12 295.99 -0.12 296.94 -0.12 C299.13 0.13 299.13 0.13 301.13 2.13 C302.79 2.39 302.79 2.39 304.63 2.38 C304.94 2.38 304.94 2.38 306.48 2.39 C308.13 2.13 308.13 2.13 310.13 0.13 C312.68 -0.13 312.68 -0.13 315.93 -0.13 C316.52 -0.13 317.11 -0.14 317.72 -0.14 C319.68 -0.15 321.64 -0.14 323.6 -0.14 C324.96 -0.14 326.32 -0.14 327.68 -0.14 C330.54 -0.15 333.39 -0.14 336.24 -0.13 C339.9 -0.12 343.56 -0.13 347.21 -0.14 C350.02 -0.15 352.83 -0.14 355.64 -0.14 C356.99 -0.14 358.34 -0.14 359.69 -0.14 C361.57 -0.15 363.46 -0.14 365.34 -0.13 C366.41 -0.13 367.49 -0.13 368.59 -0.13 C371.13 0.13 371.13 0.13 373.13 2.13 C375.35 2.33 377.42 2.41 379.63 2.38 C380.23 2.39 380.82 2.39 381.44 2.4 C385.88 2.38 385.88 2.38 388.13 0.13 C392.69 0.68 392.69 0.68 394.13 2.13 C396.63 2.26 399.1 2.34 401.6 2.37 C403.14 2.41 404.67 2.44 406.21 2.47 C408.64 2.52 411.08 2.57 413.51 2.61 C415.85 2.65 418.2 2.7 420.54 2.75 C421.27 2.76 422 2.77 422.75 2.78 C427.91 2.9 427.91 2.9 430.13 5.13 C432.52 5.32 432.52 5.32 435.26 5.25 C435.71 5.24 435.71 5.24 438.02 5.2 C438.72 5.18 439.42 5.15 440.13 5.13 C440.46 4.47 440.79 3.81 441.13 3.13 C442.78 3.79 444.43 4.45 446.13 5.13 C446.79 4.47 447.45 3.81 448.13 3.13 C450.35 2.93 452.42 2.85 454.63 2.88 C455.23 2.87 455.82 2.86 456.44 2.86 C460.88 2.88 460.88 2.88 463.13 5.13 C465.57 5.37 467.89 5.5 470.33 5.54 C471.04 5.56 471.75 5.58 472.47 5.6 C474.74 5.66 477 5.71 479.26 5.75 C480.79 5.79 482.32 5.83 483.86 5.87 C487.62 5.97 491.38 6.05 495.13 6.13 C495.13 7.12 495.13 8.11 495.13 9.13 C494.45 9.15 493.76 9.17 493.06 9.19 C489.96 9.28 486.86 9.39 483.76 9.5 C482.68 9.53 481.6 9.57 480.49 9.6 C479.46 9.64 478.42 9.67 477.36 9.71 C476.88 9.73 476.88 9.73 474.47 9.81 C472.13 10.13 472.13 10.13 470.13 12.13 C465.58 11.57 465.58 11.57 464.13 10.13 C462.05 10.04 460 10.01 457.91 10.03 C457.29 10.03 456.67 10.03 456.03 10.04 C454.05 10.04 452.06 10.05 450.07 10.07 C448.73 10.07 447.38 10.08 446.04 10.08 C442.74 10.09 439.44 10.11 436.13 10.13 C435.8 10.79 435.47 11.45 435.13 12.13 C433.13 11.13 431.13 10.13 429.13 9.13 C428.83 9.75 428.52 10.37 428.2 11 C427.51 12.38 426.82 13.75 426.13 15.13 C424.13 14.13 422.13 13.13 420.13 12.13 C419.8 13.12 419.47 14.11 419.13 15.13 C415.51 15.19 411.89 15.22 408.26 15.25 C407.23 15.27 406.19 15.29 405.13 15.3 C404.14 15.31 403.16 15.32 402.14 15.32 C401.69 15.33 401.69 15.33 399.38 15.36 C397.13 15.13 397.13 15.13 395.13 13.13 C393.01 13 393.01 13 391.13 13.13 C390.8 13.79 390.47 14.45 390.13 15.13 C388.13 14.13 386.13 13.13 384.13 12.13 C383.8 13.12 383.47 14.11 383.13 15.13 C382.48 15.15 381.82 15.17 381.15 15.19 C378.18 15.28 375.22 15.39 372.26 15.5 C371.74 15.52 371.74 15.52 369.13 15.6 C368.64 15.62 368.64 15.62 366.14 15.71 C365.23 15.75 364.32 15.78 363.38 15.81 C361.13 16.13 361.13 16.13 359.13 18.13 C356.92 18.33 354.85 18.41 352.63 18.38 C352.34 18.38 352.34 18.38 350.83 18.4 C346.39 18.38 346.39 18.38 344.13 16.13 C341.88 15.98 339.76 15.94 337.51 16 C336.9 16.01 336.29 16.02 335.66 16.03 C334.15 16.05 332.64 16.09 331.13 16.13 C330.8 16.79 330.47 17.45 330.13 18.13 C329.14 18.13 328.15 18.13 327.13 18.13 C326.8 17.47 326.47 16.81 326.13 16.13 C323.01 16.07 319.89 16.04 316.76 16 C316.32 16 316.32 16 314.06 15.95 C313.21 15.95 312.36 15.94 311.49 15.93 C310.7 15.92 309.92 15.91 309.11 15.9 C307.13 16.13 307.13 16.13 305.13 18.13 C302.82 17.82 302.82 17.82 300.13 17.13 C299.21 16.94 298.28 16.76 297.32 16.57 C296.6 16.42 295.88 16.28 295.13 16.13 C294.8 16.79 294.47 17.45 294.13 18.13 C292.13 17.13 290.13 16.13 288.13 15.13 C287.8 16.12 287.47 17.11 287.13 18.13 C285.51 18.18 283.89 18.22 282.26 18.25 C281.81 18.27 281.81 18.27 279.52 18.32 C277.13 18.13 277.13 18.13 275.13 16.13 C270.58 16.68 270.58 16.68 269.13 18.13 C267.5 18.25 267.5 18.25 265.34 18.25 C264.93 18.25 264.93 18.25 262.86 18.26 C261.94 18.25 261.03 18.25 260.09 18.25 C259.13 18.25 258.17 18.25 257.18 18.25 C253.94 18.25 250.69 18.25 247.45 18.24 C245.13 18.24 242.82 18.24 240.5 18.24 C235.5 18.24 230.51 18.24 225.51 18.23 C218.28 18.23 211.05 18.22 203.83 18.22 C192.1 18.22 180.38 18.21 168.66 18.2 C157.27 18.19 145.87 18.19 134.48 18.18 C134.13 18.18 134.13 18.18 132.36 18.18 C128.84 18.18 125.32 18.18 121.8 18.18 C92.58 18.17 63.36 18.15 34.13 18.13 C33.97 17.63 33.97 17.63 33.13 15.13 C32.14 15.13 31.15 15.13 30.13 15.13 C29.8 16.12 29.47 17.11 29.13 18.13 C24.31 18.15 19.49 18.17 14.66 18.18 C13.02 18.19 11.38 18.2 9.74 18.2 C7.38 18.22 5.03 18.22 2.67 18.23 C1.93 18.23 1.19 18.24 0.43 18.24 C-1.33 18.24 -3.1 18.19 -4.87 18.13 C-6.32 16.68 -5.99 15.59 -6 13.57 C-6 12.85 -6 12.14 -6 11.4 C-6 10.65 -5.99 9.9 -5.99 9.13 C-5.99 8.38 -6 7.63 -6 6.86 C-6 6.14 -6 5.43 -6 4.69 C-6 4.03 -6 3.37 -5.99 2.7 C-5.7 -0.85 -2.92 0 0 0 Z M348.13 7.13 C348.09 8.79 348.09 10.46 348.13 12.13 C351.13 12.13 351.13 12.13 352.82 10.82 C354.13 9.13 354.13 9.13 354.13 6.13 C349.26 6 349.26 6 348.13 7.13 Z " transform="translate(776.8651418685913,83.87136554718018)"/>
    <path d="M0 0 C5.94 0 11.88 0 18 0 C18 0.99 18 1.98 18 3 C12.06 3 6.12 3 0 3 C0 2.01 0 1.02 0 0 Z " transform="translate(1278,90)"/>
    <path d="M0 0 C3 0 3 0 4.62 1.56 C5.93 3.88 6.26 5.07 6.56 7.62 C7 11 7 11 9 13 C9.37 14.78 9.5 16.53 9.66 18.34 C10 20 10 20 12 22 C12.16 23.15 12.16 23.15 13 29 C23.23 29.33 33.46 29.66 44 30 C44.16 30.83 44.16 30.83 45 35 C44.09 35.41 43.19 35.83 42.25 36.25 C39.99 37.37 38.77 38.23 36.94 40.06 C34.74 42.26 32.86 42.86 30 44 C29.32 44.68 28.64 45.36 27.94 46.06 C25.84 48.16 24.81 48.43 22 49 C21.95 50.62 21.91 52.25 21.88 53.88 C21.85 54.78 21.83 55.68 21.8 56.62 C22 59 22 59 24 61 C24.37 62.78 24.5 64.53 24.66 66.34 C25 68 25 68 27 70 C27.12 72.62 27.12 72.62 27 75 C27.5 75.16 27.5 75.16 30 76 C29.67 77.65 29.34 79.3 29 81 C21.54 79.9 17.71 76.85 12.66 71.58 C10.59 69.61 8.76 68.73 6 68 C5.56 67.88 5.56 67.88 3.31 67.25 C2.55 67.17 1.79 67.09 1 67 C0.34 67.66 -0.32 68.32 -1 69 C-1.78 69.29 -2.57 69.58 -3.38 69.88 C-6 71 -6 71 -8 73 C-10.24 75.24 -12.1 75.84 -15 77 C-15.33 77.36 -15.33 77.36 -17 79.19 C-17.66 79.79 -18.32 80.38 -19 81 C-21.75 80.75 -21.75 80.75 -24 80 C-23.67 78.35 -23.34 76.7 -23 75 C-22.34 75 -21.68 75 -21 75 C-21.02 74.45 -21.05 73.89 -21.07 73.32 C-21.08 72.96 -21.08 72.96 -21.12 71.12 C-21.15 70.41 -21.17 69.69 -21.2 68.95 C-21 67 -21 67 -19 65 C-18.66 63.34 -18.66 63.34 -18.5 61.5 C-18.25 58.59 -18.2 58.2 -16 56 C-16.09 52.65 -17.01 50.7 -19.25 48.31 C-21.01 46.67 -22.07 45.97 -24.38 45.12 C-27.83 43.65 -29.73 41.32 -32.29 38.62 C-34.34 36.68 -36.28 35.74 -39 35 C-38.67 33.35 -38.34 31.7 -38 30 C-37.58 29.99 -37.58 29.99 -35.48 29.96 C-32.39 29.89 -29.29 29.82 -26.2 29.74 C-24.86 29.7 -23.53 29.68 -22.19 29.65 C-20.26 29.62 -18.34 29.57 -16.42 29.51 C-16.12 29.51 -16.12 29.51 -14.61 29.49 C-11.91 29.4 -10.31 29.23 -8.13 27.58 C-6.83 25.76 -6.59 24.65 -6.44 22.44 C-6 19 -6 19 -4 17 C-3.66 15.34 -3.66 15.34 -3.5 13.5 C-3.25 10.59 -3.2 10.2 -1 8 C-0.59 6.05 -0.59 6.05 -0.38 3.88 C-0.3 3.15 -0.23 2.43 -0.15 1.68 C-0.1 1.13 -0.05 0.57 0 0 Z " transform="translate(138,588)"/>
    <path d="M0 0 C3 0 3 0 4.62 1.56 C5.93 3.88 6.26 5.07 6.56 7.62 C7 11 7 11 9 13 C9.69 14.66 10.36 16.32 11 18 C11.33 18.33 11.66 18.66 12 19 C12.19 20.74 12.38 22.47 12.52 24.21 C13.18 26.66 13.97 27.46 16 29 C18.22 29.33 20.19 29.49 22.42 29.51 C23.04 29.53 23.65 29.55 24.29 29.57 C26.25 29.62 28.22 29.65 30.19 29.69 C31.52 29.72 32.86 29.76 34.19 29.79 C37.46 29.88 40.73 29.94 44 30 C44.16 30.83 44.16 30.83 45 35 C44.09 35.41 43.19 35.83 42.25 36.25 C39.99 37.37 38.77 38.23 36.94 40.06 C34.74 42.26 32.86 42.86 30 44 C29.32 44.68 28.64 45.36 27.94 46.06 C25.9 48.1 24.8 48.6 22 49 C21.96 50.11 21.92 51.23 21.88 52.38 C21.85 53 21.83 53.63 21.8 54.27 C22 56 22 56 24 58 C24.38 60.56 24.51 63.1 24.66 65.69 C25 68 25 68 27 70 C27.12 72.62 27.12 72.62 27 75 C27.5 75.16 27.5 75.16 30 76 C29.67 77.65 29.34 79.3 29 81 C21.54 79.9 17.71 76.85 12.66 71.58 C10.59 69.61 8.76 68.73 6 68 C5.56 67.88 5.56 67.88 3.31 67.25 C2.55 67.17 1.79 67.09 1 67 C0.34 67.66 -0.32 68.32 -1 69 C-1.72 69.23 -2.44 69.45 -3.19 69.69 C-6.05 71.02 -7.35 72.24 -9.5 74.5 C-13.59 78.77 -17.22 80.01 -23 81 C-23.16 80.17 -23.16 80.17 -24 76 C-23.5 75.84 -23.5 75.84 -21 75 C-21.02 74.45 -21.05 73.89 -21.07 73.32 C-21.08 72.96 -21.08 72.96 -21.12 71.12 C-21.15 70.41 -21.17 69.69 -21.2 68.95 C-21 67 -21 67 -19 65 C-18.66 63.34 -18.66 63.34 -18.5 61.5 C-18.25 58.59 -18.2 58.2 -16 56 C-15.8 54.27 -15.8 54.27 -15.88 52.38 C-15.92 51.26 -15.96 50.15 -16 49 C-16.7 48.73 -17.4 48.46 -18.12 48.19 C-23.99 45.77 -27.94 43.49 -32.25 38.88 C-36.79 34.1 -36.79 34.1 -39 33 C-39 32.01 -39 31.02 -39 30 C-28.44 29.67 -17.88 29.34 -7 29 C-6.67 25.7 -6.34 22.4 -6 19 C-5.34 18.34 -4.68 17.68 -4 17 C-3.31 15.34 -2.64 13.68 -2 12 C-1.67 11.67 -1.34 11.34 -1 11 C-0.77 9.15 -0.59 7.3 -0.44 5.44 C-0.35 4.43 -0.27 3.41 -0.18 2.37 C-0.15 1.98 -0.15 1.98 0 0 Z " transform="translate(240,588)"/>
    <path d="M0 0 C0.05 0.55 0.1 1.11 0.15 1.68 C0.22 2.4 0.3 3.13 0.38 3.88 C0.41 4.23 0.41 4.23 0.59 6.05 C1 8 1 8 3 10 C3.38 12.56 3.51 15.1 3.66 17.69 C4 20 4 20 6 22 C6.17 23.15 6.17 23.15 7 29 C17.23 29.33 27.46 29.66 38 30 C38.16 30.83 38.16 30.83 39 35 C38.09 35.41 37.19 35.83 36.25 36.25 C33.99 37.37 32.77 38.23 30.94 40.06 C29 42 29 42 26.65 42.88 C23.69 44.13 21.92 45.58 19.62 47.81 C18.92 48.48 18.21 49.15 17.48 49.83 C16 52 16 52 16.21 54.7 C17 57 17 57 18 58 C18.22 59.77 18.45 61.54 18.62 63.31 C19 65 19 65 21 67 C21.37 68.78 21.5 70.53 21.66 72.34 C22 74 22 74 24 76 C24.2 77.95 24.2 77.95 24.12 80.12 C24.11 80.85 24.09 81.57 24.07 82.32 C24.05 82.87 24.02 83.43 24 84 C23.01 84 22.02 84 21 84 C20.38 83.22 19.76 82.43 19.12 81.62 C17 79 17 79 14.67 78.16 C10.85 76.5 8.56 73.57 5.93 70.46 C4.21 68.58 2.73 67.15 0.19 66.63 C-1.7 66.57 -1.7 66.57 -5 67 C-5.66 67.66 -6.32 68.32 -7 69 C-7.72 69.23 -8.44 69.45 -9.19 69.69 C-12.69 71.32 -14.69 73.59 -17.25 76.44 C-19.2 78.18 -20.51 78.45 -23 79 C-23.33 79.66 -23.66 80.32 -24 81 C-24.99 81 -25.98 81 -27 81 C-27.05 79.21 -27.09 77.42 -27.12 75.62 C-27.15 74.63 -27.17 73.63 -27.2 72.6 C-27 70 -27 70 -25 68 C-24.66 66.34 -24.66 66.34 -24.5 64.5 C-24.25 61.59 -24.2 61.2 -22 59 C-21.8 56.62 -21.8 56.62 -21.88 53.88 C-21.89 52.96 -21.91 52.05 -21.93 51.12 C-21.95 50.42 -21.98 49.72 -22 49 C-22.74 48.75 -23.49 48.5 -24.25 48.25 C-27.23 46.89 -28.71 45.29 -31 43 C-31.76 42.73 -32.53 42.46 -33.31 42.19 C-36.81 40.64 -38.86 38.32 -41.45 35.56 C-43 34 -43 34 -45 33 C-45 32.01 -45 31.02 -45 30 C-34.44 29.67 -23.88 29.34 -13 29 C-12.67 26.69 -12.34 24.38 -12 22 C-11.34 21.34 -10.68 20.68 -10 20 C-9.66 18.34 -9.66 18.34 -9.5 16.5 C-9.25 13.59 -9.2 13.2 -7 11 C-6.77 9.25 -6.55 7.5 -6.34 5.75 C-5.56 1.71 -4.07 0 0 0 Z " transform="translate(348,588)"/>
    <path d="M0 0 C3 0 3 0 4.62 1.56 C5.93 3.88 6.26 5.07 6.56 7.62 C7 11 7 11 9 13 C9.38 15.56 9.51 18.1 9.66 20.69 C10 23 10 23 12 25 C12.16 25.66 12.16 25.66 13 29 C18.28 29.16 18.28 29.16 45 30 C45 33 45 33 43.64 34.54 C38.53 38.8 38.53 38.8 35.5 39.94 C32.11 41.38 30.19 43.73 27.75 46.44 C25.82 48.16 24.52 48.6 22 49 C21.86 51.56 21.77 54.12 21.69 56.69 C21.67 57.05 21.67 57.05 21.56 58.87 C21.44 64.24 21.44 64.24 23.11 66.5 C24.38 67.7 25.69 68.85 27 70 C27.64 71.98 27.64 71.98 27.69 73.75 C27.79 74.82 27.89 75.89 28 77 C28.66 77.33 29.32 77.66 30 78 C30 78.99 30 79.98 30 81 C27.18 81.54 24.81 81.64 22 81 C19.7 79.16 17.86 77.19 15.96 74.95 C13.76 72.76 11.88 72.06 9 71 C8.69 70.65 8.69 70.65 7.12 68.88 C4.75 66.78 3.11 66.19 -0.07 66.34 C-3.55 67.53 -5.65 70.33 -8.01 73.05 C-10.23 75.22 -12.12 75.94 -15 77 C-15.33 77.36 -15.33 77.36 -17 79.19 C-17.66 79.79 -18.32 80.38 -19 81 C-21.75 80.75 -21.75 80.75 -24 80 C-23.67 78.35 -23.34 76.7 -23 75 C-22.34 75 -21.68 75 -21 75 C-21.02 74.45 -21.05 73.89 -21.07 73.32 C-21.08 72.96 -21.08 72.96 -21.12 71.12 C-21.15 70.41 -21.17 69.69 -21.2 68.95 C-21 67 -21 67 -19 65 C-18.66 63.34 -18.66 63.34 -18.5 61.5 C-18.25 58.59 -18.2 58.2 -16 56 C-16.09 52.65 -17.01 50.7 -19.25 48.31 C-21.01 46.67 -22.07 45.97 -24.38 45.12 C-27.83 43.65 -29.73 41.32 -32.29 38.62 C-34.34 36.68 -36.28 35.74 -39 35 C-38.67 33.35 -38.34 31.7 -38 30 C-37.58 29.99 -37.58 29.99 -35.48 29.96 C-32.39 29.89 -29.29 29.82 -26.2 29.74 C-24.86 29.7 -23.53 29.68 -22.19 29.65 C-20.26 29.62 -18.34 29.57 -16.42 29.51 C-16.12 29.51 -16.12 29.51 -14.61 29.49 C-11.94 29.4 -10.31 29.23 -8.13 27.62 C-6.58 25.39 -6.56 23.63 -6.44 20.94 C-6.21 16.21 -6.21 16.21 -4 14 C-3.59 12.27 -3.59 12.27 -3.38 10.38 C-3.31 9.82 -3.31 9.82 -3 7 C-2.01 6.67 -1.02 6.34 0 6 C0 4.02 0 2.04 0 0 Z " transform="translate(1059,588)"/>
    <path d="M0 0 C3 0 3 0 4.62 1.56 C5.93 3.88 6.26 5.07 6.56 7.62 C7 11 7 11 9 13 C9.37 14.78 9.5 16.53 9.66 18.34 C10 20 10 20 12 22 C12.16 23.15 12.16 23.15 13 29 C17.62 29.16 17.62 29.16 41 30 C41.16 30.83 41.16 30.83 42 35 C40.12 37.53 38.67 38.76 35.69 39.81 C32.85 41.07 31.61 42.28 29.5 44.5 C26.83 47.29 24.8 48.95 21 50 C20.01 50.33 19.02 50.66 18 51 C18 51.99 18 52.98 18 54 C18.99 54.33 19.98 54.66 21 55 C22.12 57.5 22.12 57.5 23 60 C23.33 60.33 23.66 60.66 24 61 C24.28 63.55 24.45 66.1 24.62 68.65 C25 71 25 71 27 73 C27.27 75.36 27.09 77.62 27 80 C24.75 80.74 24.75 80.74 22 81 C19.94 79.42 19.94 79.42 18 77.19 C15.15 73.94 13.04 72.49 9 71 C8.69 70.65 8.69 70.65 7.12 68.88 C4.75 66.78 3.11 66.19 -0.07 66.34 C-3.55 67.53 -5.65 70.33 -8.01 73.05 C-10.23 75.22 -12.12 75.94 -15 77 C-15.33 77.36 -15.33 77.36 -17 79.19 C-17.66 79.79 -18.32 80.38 -19 81 C-21.75 80.75 -21.75 80.75 -24 80 C-24.2 74.73 -24.2 74.73 -24 73 C-23.67 72.67 -23.67 72.67 -22 71 C-21.31 69.34 -20.64 67.68 -20 66 C-19.67 65.67 -19.34 65.34 -19 65 C-18.77 63.32 -18.59 61.63 -18.44 59.94 C-18.35 59.02 -18.27 58.1 -18.18 57.15 C-18.15 56.8 -18.15 56.8 -18 55 C-17.51 54.84 -17.51 54.84 -15 54 C-15 53.01 -15 52.02 -15 51 C-15.6 50.73 -16.2 50.46 -16.81 50.19 C-19 49 -19 49 -20.44 47.5 C-22 46 -22 46 -24.44 45.06 C-27.38 43.84 -28.77 42.23 -31 40 C-32.66 39.31 -34.32 38.64 -36 38 C-37.88 36.69 -37.88 36.69 -39 35 C-38.67 33.35 -38.34 31.7 -38 30 C-28.76 29.67 -19.52 29.34 -10 29 C-9.34 27.35 -8.68 25.7 -8 24 C-7.67 23.67 -7.34 23.34 -7 23 C-6.78 21.23 -6.55 19.46 -6.38 17.69 C-6 16 -6 16 -4 14 C-3.31 12.34 -2.64 10.68 -2 9 C-1.67 8.67 -1.34 8.34 -1 8 C-0.77 6.65 -0.59 5.3 -0.44 3.94 C-0.35 3.2 -0.27 2.47 -0.18 1.71 C-0.15 1.43 -0.15 1.43 0 0 Z " transform="translate(1161,588)"/>
    <path d="M0 0 C0.99 0 1.98 0 3 0 C3 1.98 3 3.96 3 6 C3.99 6.33 4.98 6.66 6 7 C6.2 8.76 6.39 10.52 6.59 12.27 C7 14 7 14 9 16 C9.34 18.53 9.44 21.04 9.56 23.59 C10.1 26.53 10.61 27.24 13 29 C15.22 29.33 17.19 29.49 19.42 29.51 C20.04 29.53 20.65 29.55 21.29 29.57 C23.25 29.62 25.22 29.65 27.19 29.69 C28.52 29.72 29.86 29.76 31.19 29.79 C34.46 29.88 37.73 29.94 41 30 C41.16 30.83 41.16 30.83 42 35 C41.09 35.41 40.18 35.83 39.25 36.25 C36.99 37.37 35.77 38.23 33.94 40.06 C32 42 32 42 29.69 42.81 C26.17 44.37 24.13 46.73 21.55 49.54 C20 51 20 51 18 51 C18 51.99 18 52.98 18 54 C18.99 54.33 19.98 54.66 21 55 C21.2 56.76 21.39 58.52 21.59 60.27 C22 62 22 62 24 64 C24.37 65.78 24.5 67.53 24.66 69.34 C25 71 25 71 27 73 C27.2 75.6 27.2 75.6 27.12 78.62 C27.11 79.63 27.09 80.63 27.07 81.66 C27.05 82.43 27.02 83.21 27 84 C26.01 84 25.02 84 24 84 C22.35 82.32 22.35 82.32 20.62 80.12 C17.85 76.8 16.05 75.52 12 74 C10.85 72.82 9.73 71.61 8.62 70.38 C6.29 67.95 4.8 66.47 1.38 66.25 C-2.39 67.09 -3.42 67.97 -5.83 70.78 C-7 72 -7 72 -9.38 72.88 C-12.26 74.11 -13.4 75.39 -15.5 77.69 C-17.29 79.58 -17.29 79.58 -19 81 C-21.94 80.94 -21.94 80.94 -24 80 C-24.2 74.73 -24.2 74.73 -24 73 C-23.67 72.67 -23.67 72.67 -22 71 C-21.66 69.34 -21.66 69.34 -21.5 67.5 C-21.25 64.59 -21.2 64.2 -19 62 C-18.86 59.75 -18.81 57.62 -18.88 55.38 C-18.88 54.76 -18.89 54.15 -18.9 53.52 C-18.93 52.02 -18.96 50.51 -19 49 C-19.78 48.71 -20.57 48.42 -21.38 48.12 C-24.33 46.86 -25.75 45.25 -28 43 C-28.78 42.71 -29.57 42.42 -30.38 42.12 C-33.93 40.6 -36.99 38.35 -39 35 C-38.67 33.35 -38.34 31.7 -38 30 C-28.76 29.67 -19.52 29.34 -10 29 C-9.34 27.35 -8.68 25.7 -8 24 C-7.67 23.67 -7.34 23.34 -7 23 C-6.78 21.23 -6.55 19.46 -6.38 17.69 C-6 16 -6 16 -4 14 C-3.66 11.5 -3.56 9.03 -3.44 6.51 C-2.92 3.56 -2.09 2.13 0 0 Z " transform="translate(1263,588)"/>
    <path d="M0 0 C1.11 -0 2.22 -0.01 3.37 -0.01 C3.95 -0 4.53 0 5.13 0 C6.9 0.02 8.67 0 10.44 -0.01 C11.55 -0.01 12.67 -0 13.81 0 C14.84 0 15.86 0 16.92 0.01 C19.41 0.27 19.41 0.27 21.41 2.27 C23.72 2.61 23.72 2.61 26.41 2.77 C31.18 3.04 31.18 3.04 33.41 5.27 C35.06 5.96 36.73 6.62 38.41 7.27 C42.84 9.24 46.09 11.5 49.52 14.98 C49.97 15.43 50.42 15.88 50.89 16.34 C51.84 17.29 52.78 18.24 53.72 19.19 C55.16 20.64 56.61 22.07 58.06 23.51 C58.98 24.43 59.91 25.36 60.83 26.29 C61.04 26.5 61.04 26.5 62.13 27.57 C64.77 30.28 66.18 32.71 67.41 36.27 C67.74 36.6 68.07 36.93 68.41 37.27 C68.63 39.03 68.85 40.8 69.03 42.57 C69.41 44.27 69.41 44.27 71.41 46.27 C71.73 49.05 71.87 51.77 71.97 54.57 C72.21 59.07 72.21 59.07 74.41 61.27 C74.65 63.25 74.65 63.25 74.65 65.7 C74.65 66.62 74.66 67.53 74.66 68.48 C74.65 68.98 74.65 68.98 74.64 71.49 C74.64 72.5 74.64 73.52 74.64 74.57 C74.63 76.72 74.62 78.87 74.61 81.01 C74.59 84.32 74.59 87.62 74.59 90.92 C74.59 93.01 74.58 95.09 74.57 97.18 C74.57 98.17 74.57 99.17 74.57 100.19 C74.56 101.1 74.56 102.02 74.55 102.96 C74.55 103.77 74.54 104.58 74.54 105.41 C74.41 107.27 74.41 107.27 73.41 108.27 C71.88 108.36 70.34 108.39 68.81 108.4 C68.32 108.4 68.32 108.4 65.85 108.4 C64.78 108.4 63.72 108.4 62.62 108.4 C62.08 108.4 62.08 108.4 59.34 108.4 C56.45 108.4 53.57 108.4 50.68 108.39 C48.91 108.39 47.14 108.39 45.36 108.4 C41.97 108.4 38.58 108.4 35.19 108.4 C34.12 108.4 33.06 108.4 31.96 108.4 C30.99 108.4 30.01 108.4 29 108.4 C28.14 108.39 27.27 108.39 26.38 108.39 C24.41 108.27 24.41 108.27 23.41 107.27 C23.32 105.63 23.3 103.99 23.31 102.36 C23.31 101.86 23.31 101.86 23.32 99.36 C23.32 98.84 23.32 98.84 23.34 96.2 C23.35 95.16 23.35 94.11 23.36 93.04 C23.37 90.45 23.39 87.86 23.41 85.27 C24.4 84.94 25.39 84.61 26.41 84.27 C26.41 83.28 26.41 82.29 26.41 81.27 C25.91 81.1 25.91 81.1 23.41 80.27 C23.4 79.98 23.4 79.98 23.35 78.55 C23.25 76 23.14 73.44 23.03 70.89 C23 70 22.97 69.11 22.94 68.2 C22.9 67.34 22.86 66.49 22.82 65.62 C22.79 64.83 22.76 64.05 22.73 63.24 C22.41 61.27 22.41 61.27 20.41 59.27 C19.74 57.6 19.07 55.93 18.41 54.27 C16.18 52.04 14.31 51.38 11.41 50.27 C11.08 49.94 10.75 49.61 10.41 49.27 C8.76 49.14 7.12 49.09 5.47 49.08 C4.57 49.06 3.68 49.05 2.75 49.04 C0.41 49.27 0.41 49.27 -1.59 51.27 C-2.36 51.53 -3.12 51.8 -3.91 52.08 C-7.23 53.54 -9.62 55.22 -11.59 58.27 C-12.31 61.32 -12.27 64.3 -12.23 67.43 C-12.24 68.31 -12.25 69.19 -12.26 70.09 C-12.29 72.88 -12.29 75.66 -12.28 78.45 C-12.29 81.25 -12.31 84.05 -12.33 86.85 C-12.35 88.59 -12.35 90.33 -12.34 92.07 C-12.35 92.85 -12.35 93.64 -12.35 94.45 C-12.35 94.79 -12.35 94.79 -12.35 96.54 C-12.59 98.27 -12.59 98.27 -14.59 100.27 C-14.04 104.82 -14.04 104.82 -12.59 106.27 C-12.48 108.76 -12.43 111.23 -12.43 113.73 C-12.42 114.1 -12.42 114.1 -12.42 116 C-12.41 117.58 -12.41 119.17 -12.41 120.76 C-12.41 123.19 -12.39 125.62 -12.37 128.05 C-12.37 129.59 -12.36 131.13 -12.36 132.67 C-12.36 133.4 -12.35 134.13 -12.34 134.88 C-12.36 140.04 -12.36 140.04 -14.59 142.27 C-14.86 143.92 -14.86 143.92 -14.84 145.77 C-14.85 146.37 -14.85 146.98 -14.86 147.61 C-14.59 149.27 -14.59 149.27 -12.59 151.27 C-12.45 153.52 -12.41 155.64 -12.47 157.89 C-12.48 158.5 -12.49 159.11 -12.5 159.74 C-12.52 161.25 -12.56 162.76 -12.59 164.27 C-13.58 164.6 -14.57 164.93 -15.59 165.27 C-15.59 166.26 -15.59 167.25 -15.59 168.27 C-14.6 168.6 -13.61 168.93 -12.59 169.27 C-12.59 169.65 -12.59 169.65 -12.57 171.57 C-12.49 178.72 -12.4 185.87 -12.31 193.02 C-12.26 196.7 -12.21 200.38 -12.17 204.05 C-12.14 207.6 -12.09 211.15 -12.04 214.69 C-12.02 216.05 -12 217.4 -11.99 218.76 C-11.97 220.65 -11.94 222.54 -11.91 224.44 C-11.9 225.52 -11.89 226.6 -11.87 227.71 C-11.59 230.27 -11.59 230.27 -9.59 232.27 C-9.47 234.89 -9.47 234.89 -9.59 237.27 C-8.81 237.22 -8.03 237.18 -7.22 237.14 C-4.59 237.27 -4.59 237.27 -2.59 239.27 C3.86 240.24 10.31 240.53 16.43 238.03 C20.29 235.01 22.04 232.49 22.83 227.71 C23.36 221.93 23.41 216.17 23.23 210.37 C23.41 208.27 23.41 208.27 25.41 206.27 C25.67 204.61 25.67 204.61 25.66 202.77 C25.66 202.16 25.67 201.55 25.67 200.92 C25.41 199.27 25.41 199.27 23.41 197.27 C22.93 194.16 23.04 191.03 23.03 187.89 C23.01 187.03 22.98 186.16 22.96 185.27 C22.93 178.94 22.93 178.94 25.26 175.65 C27.41 174.27 27.41 174.27 30.09 174.45 C32.41 175.27 32.41 175.27 33.41 176.27 C34.66 176.38 35.92 176.43 37.18 176.46 C37.97 176.47 38.77 176.49 39.59 176.51 C40.46 176.52 41.33 176.53 42.22 176.55 C42.66 176.56 42.66 176.56 44.9 176.6 C47.73 176.66 50.57 176.71 53.41 176.77 C57.14 176.83 60.86 176.91 64.59 176.98 C65.03 176.99 65.03 176.99 67.22 177.03 C68.02 177.04 68.82 177.06 69.64 177.08 C70.34 177.09 71.05 177.1 71.77 177.11 C73.41 177.27 73.41 177.27 74.41 178.27 C74.51 179.97 74.54 181.69 74.55 183.4 C74.56 184.49 74.56 185.59 74.57 186.71 C74.57 187.92 74.57 189.12 74.57 190.32 C74.58 191.55 74.58 192.78 74.58 194 C74.59 196.58 74.59 199.15 74.59 201.73 C74.59 205.03 74.61 208.34 74.62 211.64 C74.63 214.17 74.64 216.71 74.63 219.24 C74.64 220.46 74.64 221.68 74.65 222.9 C74.66 224.6 74.65 226.3 74.65 228.01 C74.65 228.98 74.65 229.94 74.65 230.94 C74.41 233.27 74.41 233.27 72.41 235.27 C72.06 237.58 72.06 237.58 71.91 240.27 C71.63 245.04 71.63 245.04 69.41 247.27 C69.3 248.36 69.2 249.45 69.09 250.58 C68.76 253.54 68.16 254.87 65.97 256.89 C63.41 259.27 63.41 259.27 62.61 261.53 C60.97 265.27 58.49 267.62 55.59 270.45 C55.07 270.99 54.55 271.52 54.01 272.07 C50.97 275.09 48.52 276.85 44.41 278.27 C43.79 278.95 43.17 279.63 42.53 280.33 C39.56 283.04 37.36 282.83 33.41 283.27 C32.75 283.93 32.09 284.59 31.41 285.27 C29.62 285.64 27.88 285.77 26.06 285.92 C24.41 286.27 24.41 286.27 22.41 288.27 C19.85 288.47 17.4 288.55 14.84 288.53 C14.1 288.53 13.35 288.54 12.58 288.54 C11 288.54 9.42 288.53 7.84 288.53 C5.42 288.52 2.99 288.53 0.57 288.54 C-0.96 288.54 -2.5 288.54 -4.03 288.53 C-4.76 288.54 -5.49 288.54 -6.23 288.54 C-11.36 288.5 -11.36 288.5 -13.59 286.27 C-15.25 285.92 -15.25 285.92 -17.09 285.77 C-20.01 285.52 -20.4 285.46 -22.59 283.27 C-23.69 283.16 -24.78 283.06 -25.91 282.95 C-28.87 282.62 -30.2 282.02 -32.22 279.83 C-34.59 277.27 -34.59 277.27 -36.76 276.56 C-41.09 274.58 -43.98 271.32 -47.28 267.95 C-47.96 267.29 -48.63 266.62 -49.33 265.94 C-52.66 262.59 -55.26 259.91 -56.59 255.27 C-59.17 249.69 -59.17 249.69 -60.59 248.27 C-60.82 246.5 -61.04 244.73 -61.21 242.96 C-61.59 241.27 -61.59 241.27 -63.59 239.27 C-63.8 236.66 -63.88 234.15 -63.88 231.54 C-63.89 230.75 -63.89 229.95 -63.9 229.13 C-63.92 227.4 -63.92 225.66 -63.93 223.93 C-63.94 221.19 -63.96 218.45 -63.98 215.71 C-64.04 208.91 -64.07 202.1 -64.11 195.3 C-64.14 189.55 -64.18 183.8 -64.23 178.06 C-64.25 175.35 -64.26 172.65 -64.27 169.94 C-64.28 168.29 -64.29 166.64 -64.31 164.99 C-64.31 164.23 -64.3 163.48 -64.3 162.7 C-64.37 157.49 -64.37 157.49 -66.59 155.27 C-66.79 153.05 -66.87 150.98 -66.84 148.77 C-66.85 148.17 -66.86 147.58 -66.87 146.96 C-66.85 142.52 -66.85 142.52 -64.59 140.27 C-64.34 138.65 -64.34 138.65 -64.33 136.7 C-64.32 135.96 -64.31 135.22 -64.3 134.45 C-64.3 133.64 -64.31 132.83 -64.31 131.99 C-64.3 131.14 -64.29 130.28 -64.29 129.4 C-64.27 127.54 -64.26 125.68 -64.26 123.82 C-64.25 120.88 -64.23 117.94 -64.21 114.99 C-64.16 108.75 -64.12 102.51 -64.09 96.27 C-64.06 89.03 -64.02 81.8 -63.96 74.57 C-63.94 71.67 -63.93 68.76 -63.92 65.86 C-63.91 64.08 -63.9 62.31 -63.88 60.54 C-63.88 59.73 -63.88 58.91 -63.88 58.08 C-63.88 57.34 -63.87 56.6 -63.86 55.83 C-63.86 55.51 -63.86 55.51 -63.85 53.88 C-63.59 52.27 -63.59 52.27 -61.59 50.27 C-61.25 48.61 -61.25 48.61 -61.09 46.77 C-60.85 43.85 -60.79 43.46 -58.59 41.27 C-58.55 40.23 -58.51 39.2 -58.47 38.14 C-57.97 33.46 -54.9 31.23 -51.5 28.26 C-49.36 26.02 -48.73 24.12 -47.59 21.27 C-45.61 18.88 -45.61 18.88 -43.28 16.58 C-42.52 15.81 -41.76 15.04 -40.98 14.25 C-38.55 12.23 -36.56 11.28 -33.59 10.27 C-31.59 9.28 -29.59 8.28 -27.59 7.27 C-26.49 6.72 -25.39 6.18 -24.28 5.64 C-21.59 4.27 -21.59 4.27 -20.59 3.27 C-17.84 3.03 -15.1 2.87 -12.34 2.75 C-7.38 2.45 -5.12 0.01 0 0 Z " transform="translate(1248.59375,713.734375)"/>
    <path d="M0 0 C0.44 0 0.44 0 2.66 0.01 C4.94 0.31 4.94 0.31 6.94 2.31 C9.16 2.51 11.22 2.59 13.44 2.56 C14.03 2.57 14.63 2.58 15.24 2.59 C19.68 2.57 19.68 2.57 21.94 0.31 C23.6 0.05 23.6 0.05 25.56 0.05 C26.27 0.04 26.98 0.04 27.7 0.04 C28.44 0.05 29.18 0.05 29.94 0.06 C30.31 0.06 30.31 0.06 32.17 0.04 C32.88 0.04 33.58 0.04 34.31 0.05 C34.64 0.05 34.64 0.05 36.27 0.05 C37.94 0.31 37.94 0.31 39.94 2.31 C42.25 2.58 42.25 2.58 44.94 2.56 C45.38 2.57 45.38 2.57 47.62 2.58 C49.94 2.31 49.94 2.31 51.94 0.31 C53.88 0.05 53.88 0.05 56.22 0.05 C57.06 0.04 57.9 0.04 58.77 0.04 C59.21 0.04 59.21 0.04 61.44 0.06 C62.32 0.05 63.2 0.05 64.11 0.04 C64.95 0.04 65.79 0.04 66.66 0.05 C67.04 0.05 67.04 0.05 69 0.05 C70.94 0.31 70.94 0.31 72.94 2.31 C74.6 2.6 74.6 2.6 76.56 2.66 C77.27 2.69 77.98 2.72 78.7 2.75 C79.07 2.76 79.07 2.76 80.94 2.81 C82.4 2.86 83.85 2.91 85.31 2.97 C85.96 2.99 86.61 3.01 87.27 3.03 C88.94 3.31 88.94 3.31 90.94 5.31 C92.59 5.66 92.59 5.66 94.44 5.81 C97.35 6.06 97.74 6.12 99.94 8.31 C101.59 9 103.26 9.67 104.94 10.31 C109.99 12.49 113.36 15.27 117.19 19.19 C117.45 19.45 117.45 19.45 118.79 20.75 C121.79 23.77 123.54 26.22 124.94 30.31 C125.27 30.64 125.27 30.64 126.94 32.31 C129.15 34.53 129.91 36.39 130.94 39.31 C131.27 39.64 131.6 39.97 131.94 40.31 C132.22 42.86 132.39 45.41 132.56 47.96 C132.94 50.31 132.94 50.31 134.94 52.31 C135.26 55.09 135.4 57.82 135.5 60.61 C135.74 65.11 135.74 65.11 137.94 67.31 C138.2 69.25 138.2 69.25 138.2 71.59 C138.21 72.44 138.21 73.28 138.21 74.14 C138.2 75.02 138.2 75.91 138.19 76.81 C138.2 77.69 138.2 78.57 138.21 79.48 C138.21 80.32 138.21 81.16 138.2 82.03 C138.2 82.8 138.2 83.58 138.2 84.37 C137.94 86.31 137.94 86.31 135.94 88.31 C135.74 90.53 135.66 92.6 135.69 94.81 C135.68 95.41 135.67 96 135.66 96.61 C135.68 101.06 135.68 101.06 137.94 103.31 C138.2 104.97 138.2 104.97 138.19 106.81 C138.19 107.12 138.19 107.12 138.2 108.66 C137.94 110.31 137.94 110.31 135.94 112.31 C135.65 113.98 135.65 113.98 135.59 115.94 C135.56 116.64 135.53 117.35 135.5 118.08 C135.49 118.45 135.49 118.45 135.44 120.31 C135.39 121.77 135.34 123.23 135.28 124.69 C135.26 125.33 135.24 125.98 135.22 126.65 C134.94 128.31 134.94 128.31 132.94 130.31 C132.83 131.41 132.73 132.5 132.62 133.62 C132.29 136.59 131.69 137.92 129.5 139.94 C126.94 142.31 126.94 142.31 126.14 144.57 C124.5 148.31 122.02 150.67 119.12 153.5 C118.6 154.03 118.08 154.57 117.54 155.12 C114.54 158.1 112.07 160.06 107.94 161.31 C106.95 161.64 105.96 161.97 104.94 162.31 C104.94 163.3 104.94 164.29 104.94 165.31 C105.93 165.64 106.92 165.97 107.94 166.31 C108.13 168.07 108.33 169.83 108.52 171.59 C108.94 173.31 108.94 173.31 110.94 175.31 C111.32 177.88 111.44 180.41 111.59 183 C111.94 185.31 111.94 185.31 113.94 187.31 C114.31 189.1 114.44 190.84 114.59 192.66 C114.94 194.31 114.94 194.31 116.94 196.31 C117.31 198.1 117.44 199.84 117.59 201.66 C117.94 203.31 117.94 203.31 119.94 205.31 C120.31 207.1 120.44 208.84 120.59 210.66 C120.94 212.31 120.94 212.31 122.94 214.31 C123.32 216.88 123.44 219.41 123.59 222 C123.94 224.31 123.94 224.31 125.94 226.31 C126.31 228.1 126.44 229.84 126.59 231.66 C126.94 233.31 126.94 233.31 128.94 235.31 C129.31 237.1 129.44 238.84 129.59 240.66 C129.94 242.31 129.94 242.31 131.94 244.31 C132.32 246.88 132.44 249.41 132.59 252 C132.94 254.31 132.94 254.31 134.94 256.31 C135.31 258.1 135.44 259.84 135.59 261.66 C135.94 263.31 135.94 263.31 137.94 265.31 C138.31 267.1 138.44 268.84 138.59 270.66 C138.94 272.31 138.94 272.31 140.94 274.31 C141.26 276.7 141.07 278.89 140.94 281.31 C139.94 282.31 139.94 282.31 137.84 282.43 C137.38 282.43 137.38 282.43 135.05 282.43 C134.01 282.43 132.97 282.43 131.9 282.43 C130.76 282.42 129.63 282.42 128.46 282.41 C127.89 282.41 127.89 282.41 124.97 282.41 C121.9 282.4 118.83 282.39 115.76 282.38 C112.63 282.37 109.5 282.37 106.37 282.36 C100.23 282.35 94.08 282.33 87.94 282.31 C87.46 281.34 86.99 280.37 86.5 279.38 C84.94 276.31 84.94 276.31 83.94 275.31 C83.65 272.76 83.49 270.22 83.32 267.66 C82.94 265.31 82.94 265.31 80.94 263.31 C80.56 260.75 80.43 258.21 80.28 255.62 C79.94 253.31 79.94 253.31 77.94 251.31 C77.56 248.75 77.43 246.21 77.28 243.62 C76.94 241.31 76.94 241.31 74.94 239.31 C74.57 237.53 74.44 235.78 74.28 233.97 C73.94 232.31 73.94 232.31 71.94 230.31 C71.56 227.75 71.43 225.21 71.28 222.62 C70.94 220.31 70.94 220.31 68.94 218.31 C68.57 216.53 68.44 214.78 68.28 212.97 C67.94 211.31 67.94 211.31 65.94 209.31 C65.57 207.53 65.44 205.78 65.28 203.97 C64.94 202.31 64.94 202.31 62.94 200.31 C62.56 197.75 62.43 195.21 62.28 192.62 C61.94 190.31 61.94 190.31 59.94 188.31 C59.56 185.75 59.43 183.21 59.28 180.62 C58.94 178.31 58.94 178.31 56.94 176.31 C56.31 174.19 56.31 174.19 55.94 172.31 C54.84 172.25 53.75 172.19 52.62 172.12 C52.01 172.09 51.4 172.06 50.76 172.02 C48.27 172.42 47.52 173.38 45.94 175.31 C45.56 177.14 45.56 177.14 45.56 179.23 C45.56 180.02 45.55 180.81 45.54 181.63 C45.55 182.06 45.55 182.06 45.57 184.25 C45.56 185.16 45.56 186.08 45.55 187.02 C45.55 190.05 45.56 193.07 45.57 196.1 C45.57 198.2 45.57 200.29 45.57 202.39 C45.57 206.79 45.58 211.19 45.6 215.59 C45.62 221.24 45.62 226.89 45.62 232.54 C45.61 236.87 45.62 241.2 45.63 245.53 C45.63 247.62 45.64 249.7 45.63 251.78 C45.63 254.69 45.65 257.6 45.66 260.5 C45.66 261.37 45.66 262.24 45.66 263.13 C45.66 263.92 45.67 264.71 45.68 265.52 C45.68 266.21 45.68 266.9 45.68 267.61 C45.94 269.31 45.94 269.31 47.94 271.31 C48.59 277.22 48.59 277.22 46.61 280.52 C42.3 283.41 37.87 282.81 32.81 282.69 C31.8 282.69 30.78 282.68 29.74 282.68 C22.22 282.59 22.22 282.59 19.94 280.31 C15.38 280.87 15.38 280.87 13.94 282.31 C10.84 282.62 7.73 282.59 4.62 282.62 C3.76 282.65 2.89 282.68 1.99 282.71 C-4.41 282.78 -4.41 282.78 -7.68 280.46 C-9.06 278.31 -9.06 278.31 -8.88 275.62 C-8.06 273.31 -8.06 273.31 -7.06 272.31 C-6.93 269.82 -6.85 267.35 -6.82 264.85 C-6.78 263.31 -6.75 261.77 -6.72 260.24 C-6.67 257.8 -6.62 255.37 -6.59 252.93 C-6.55 250.59 -6.49 248.25 -6.44 245.91 C-6.43 245.18 -6.42 244.45 -6.42 243.7 C-6.29 238.54 -6.29 238.54 -4.06 236.31 C-3.8 234.66 -3.8 234.66 -3.81 232.81 C-3.81 232.2 -3.8 231.6 -3.8 230.97 C-4.06 229.31 -4.06 229.31 -6.06 227.31 C-6.26 225.09 -6.34 223.03 -6.31 220.81 C-6.32 220.22 -6.33 219.62 -6.34 219.01 C-6.32 214.57 -6.32 214.57 -4.06 212.31 C-4.62 207.76 -4.62 207.76 -6.06 206.31 C-6.17 204.7 -6.22 203.08 -6.24 201.46 C-6.25 200.42 -6.26 199.39 -6.28 198.32 C-6.29 197.2 -6.3 196.07 -6.31 194.91 C-6.33 193.16 -6.36 191.4 -6.38 189.65 C-6.44 185.31 -6.49 180.97 -6.54 176.63 C-6.56 174.19 -6.6 171.76 -6.63 169.33 C-6.67 167.03 -6.69 164.74 -6.71 162.44 C-6.72 161.92 -6.72 161.92 -6.76 159.3 C-6.77 158.38 -6.78 157.46 -6.79 156.52 C-7.06 154.31 -7.06 154.31 -9.06 152.31 C-9.33 150.66 -9.33 150.66 -9.31 148.81 C-9.32 148.51 -9.32 148.51 -9.33 146.97 C-9.06 145.31 -9.06 145.31 -7.06 143.31 C-6.8 141.5 -6.8 141.5 -6.78 139.28 C-6.77 138.43 -6.76 137.59 -6.75 136.72 C-6.75 135.79 -6.75 134.86 -6.74 133.91 C-6.73 132.93 -6.72 131.95 -6.71 130.95 C-6.68 127.71 -6.67 124.48 -6.65 121.24 C-6.63 119 -6.61 116.76 -6.59 114.52 C-6.54 109.23 -6.51 103.93 -6.47 98.63 C-6.43 92.6 -6.39 86.57 -6.34 80.54 C-6.23 68.13 -6.14 55.72 -6.06 43.31 C-5.57 43.15 -5.57 43.15 -3.06 42.31 C-3.06 41.32 -3.06 40.33 -3.06 39.31 C-4.05 38.98 -5.04 38.65 -6.06 38.31 C-6.08 37.47 -6.1 36.64 -6.12 35.77 C-6.2 32.67 -6.29 29.56 -6.38 26.46 C-6.42 25.12 -6.45 23.77 -6.48 22.43 C-6.53 20.49 -6.59 18.56 -6.65 16.63 C-6.66 16.03 -6.67 15.43 -6.68 14.81 C-6.83 10.54 -6.83 10.54 -9.06 8.31 C-8.85 5.6 -8.47 3.86 -6.83 1.67 C-4.47 -0.15 -2.95 -0.06 0 0 Z M11.94 15.31 C11.94 16.3 11.94 17.29 11.94 18.31 C12.93 18.31 13.92 18.31 14.94 18.31 C14.94 17.32 14.94 16.33 14.94 15.31 C13.95 15.31 12.96 15.31 11.94 15.31 Z M44.94 51.31 C44.94 52.3 44.94 53.29 44.94 54.31 C45.93 54.31 46.92 54.31 47.94 54.31 C47.94 55.3 47.94 56.29 47.94 57.31 C46.95 57.64 45.96 57.97 44.94 58.31 C45.01 58.67 45.01 58.67 45.38 60.5 C45.56 61.43 45.75 62.36 45.94 63.31 C46.16 64.2 46.39 65.09 46.62 66 C46.73 66.76 46.83 67.53 46.94 68.31 C46.28 68.97 45.62 69.63 44.94 70.31 C44.69 72.63 44.69 72.63 44.69 75.57 C44.69 76.67 44.69 77.77 44.69 78.9 C44.69 80.1 44.7 81.3 44.71 82.5 C44.71 83.73 44.71 84.96 44.71 86.19 C44.71 88.76 44.72 91.33 44.73 93.91 C44.75 97.21 44.75 100.52 44.75 103.82 C44.75 106.36 44.76 108.89 44.76 111.43 C44.77 112.64 44.77 113.86 44.77 115.08 C44.77 116.78 44.78 118.48 44.79 120.18 C44.8 121.15 44.8 122.12 44.8 123.12 C44.94 125.31 44.94 125.31 45.94 126.31 C49.48 126.53 53.03 126.5 56.58 126.5 C58.36 126.5 60.14 126.52 61.92 126.54 C63.04 126.54 64.16 126.54 65.31 126.54 C66.34 126.55 67.37 126.55 68.43 126.56 C70.94 126.31 70.94 126.31 72.94 124.31 C73.74 124 74.55 123.69 75.38 123.38 C79.1 121.83 80.48 120.39 82.06 116.69 C82.21 116.3 82.21 116.3 82.94 114.31 C83.27 113.98 83.6 113.65 83.94 113.31 C84.04 111.79 84.08 110.26 84.08 108.73 C84.09 107.76 84.1 106.78 84.1 105.78 C84.1 104.72 84.1 103.66 84.11 102.57 C84.11 101.48 84.11 100.4 84.12 99.29 C84.12 97 84.12 94.7 84.12 92.41 C84.12 90.06 84.13 87.7 84.14 85.34 C84.16 81.96 84.17 78.58 84.17 75.19 C84.18 74.13 84.18 73.07 84.19 71.98 C84.19 71.5 84.19 71.5 84.18 69.02 C84.18 68.16 84.18 67.3 84.18 66.41 C83.94 64.31 83.94 64.31 81.94 62.31 C81.69 61.57 81.44 60.83 81.19 60.06 C79.07 55.4 75.76 52.16 71.12 50 C70.4 49.77 69.68 49.55 68.94 49.31 C68.61 48.98 68.28 48.65 67.94 48.31 C64.84 48.03 61.73 48.08 58.62 48.06 C58.19 48.05 58.19 48.05 55.99 48 C47.74 47.95 47.74 47.95 44.94 51.31 Z M11.94 132.31 C11.94 133.3 11.94 134.29 11.94 135.31 C12.93 135.31 13.92 135.31 14.94 135.31 C14.94 134.32 14.94 133.33 14.94 132.31 C13.95 132.31 12.96 132.31 11.94 132.31 Z M5.94 135.31 C5.94 137.29 5.94 139.27 5.94 141.31 C6.93 141.31 7.92 141.31 8.94 141.31 C8.94 139.33 8.94 137.35 8.94 135.31 C7.95 135.31 6.96 135.31 5.94 135.31 Z M1.25 166.62 C-0.06 168.31 -0.06 168.31 -0.06 171.31 C1.6 171.36 3.27 171.35 4.94 171.31 C5.94 170.31 5.94 170.31 6 167.75 C5.98 166.95 5.96 166.14 5.94 165.31 C2.94 165.31 2.94 165.31 1.25 166.62 Z " transform="translate(93.0625,716.6875)"/>
    <path d="M0 0 C0.6 -0.01 1.2 -0.02 1.81 -0.04 C3.4 -0.04 4.98 0.07 6.56 0.19 C7.22 0.85 7.88 1.51 8.56 2.19 C10.69 2.31 10.69 2.31 12.56 2.19 C12.89 1.53 13.22 0.87 13.56 0.19 C14.55 0.19 15.54 0.19 16.56 0.19 C16.89 0.85 17.22 1.51 17.56 2.19 C18.12 2.21 18.12 2.21 20.94 2.31 C21.25 2.32 21.25 2.32 22.84 2.38 C24.56 2.19 24.56 2.19 26.56 0.19 C28.32 -0.05 28.32 -0.05 30.46 -0.04 C30.86 -0.04 30.86 -0.04 32.89 -0.04 C33.75 -0.03 34.62 -0.02 35.51 -0.01 C35.95 -0.01 35.95 -0.01 38.19 0 C41.02 0.01 43.85 0.04 46.69 0.06 C48.61 0.07 50.52 0.08 52.44 0.09 C57.15 0.11 61.86 0.15 66.56 0.19 C66.73 0.68 66.73 0.68 67.56 3.19 C68.55 2.2 69.54 1.21 70.56 0.19 C71.31 0.56 72.05 0.93 72.81 1.31 C75.56 2.19 75.56 2.19 77.88 1.31 C78.43 0.94 78.99 0.57 79.56 0.19 C80.55 1.18 81.54 2.17 82.56 3.19 C82.89 2.2 83.22 1.21 83.56 0.19 C85.19 0.13 86.81 0.09 88.44 0.06 C88.89 0.05 88.89 0.05 91.18 -0.01 C93.56 0.19 93.56 0.19 95.56 2.19 C97.69 2.31 97.69 2.31 99.56 2.19 C99.89 1.53 100.22 0.87 100.56 0.19 C101.55 0.19 102.54 0.19 103.56 0.19 C103.73 0.52 103.73 0.52 104.56 2.19 C104.92 2.12 104.92 2.12 106.75 1.75 C107.68 1.56 108.61 1.38 109.56 1.19 C110.41 0.92 111.25 0.65 112.12 0.38 C114.56 0.19 114.56 0.19 116.68 1.57 C119.51 5.51 119.14 9.11 119.09 13.84 C119.1 14.31 119.1 14.31 119.11 16.69 C119.11 18.67 119.1 20.66 119.08 22.64 C119.06 25.68 119.08 28.71 119.11 31.75 C119.11 33.67 119.1 35.6 119.09 37.53 C119.1 38.44 119.11 39.35 119.12 40.28 C119.03 46.54 119.03 46.54 116.68 49.8 C114.56 51.19 114.56 51.19 112.12 51 C111.28 50.73 110.43 50.46 109.56 50.19 C106.88 49.5 106.88 49.5 104.56 49.19 C104.23 49.52 104.23 49.52 102.56 51.19 C100.04 51.41 100.04 51.41 96.9 51.38 C95.78 51.38 94.66 51.37 93.5 51.36 C92.31 51.35 91.12 51.33 89.94 51.31 C88.74 51.3 87.55 51.29 86.35 51.29 C83.42 51.26 80.49 51.23 77.56 51.19 C77.23 50.2 76.9 49.21 76.56 48.19 C75.57 48.19 74.58 48.19 73.56 48.19 C73.23 49.18 72.9 50.17 72.56 51.19 C68.44 51.35 68.44 51.35 47.56 52.19 C47.56 72.32 47.56 92.45 47.56 113.19 C73.5 113.62 73.5 113.62 81.7 113.76 C83.83 113.79 85.96 113.83 88.09 113.87 C89.21 113.89 90.33 113.9 91.48 113.92 C92.53 113.94 93.59 113.96 94.68 113.98 C95.6 114 96.52 114.01 97.47 114.03 C99.56 114.19 99.56 114.19 100.56 115.19 C100.68 116.45 100.74 117.71 100.77 118.97 C100.78 119.37 100.78 119.37 100.83 121.4 C100.84 122.27 100.86 123.14 100.88 124.04 C100.9 124.92 100.92 125.81 100.94 126.72 C101.01 129.56 101.07 132.41 101.12 135.25 C101.17 137.17 101.21 139.1 101.26 141.02 C101.36 145.74 101.46 150.46 101.56 155.19 C102.22 155.52 102.88 155.85 103.56 156.19 C103.56 157.18 103.56 158.17 103.56 159.19 C100.63 162.1 98.39 162.57 94.33 162.62 C93.28 162.64 92.22 162.66 91.14 162.68 C90.03 162.69 88.93 162.69 87.8 162.7 C86.78 162.72 85.76 162.73 84.71 162.75 C80.91 162.81 77.11 162.84 73.31 162.88 C64.81 162.98 56.32 163.08 47.56 163.19 C47.56 186.29 47.56 209.39 47.56 233.19 C50.86 233.19 54.16 233.19 57.56 233.19 C58.22 232.53 58.88 231.87 59.56 231.19 C61.82 231.04 63.94 231 66.19 231.06 C66.8 231.07 67.41 231.08 68.04 231.09 C69.55 231.11 71.05 231.15 72.56 231.19 C72.89 232.18 73.22 233.17 73.56 234.19 C74.55 234.19 75.54 234.19 76.56 234.19 C76.89 233.2 77.22 232.21 77.56 231.19 C82.84 230.99 82.84 230.99 84.56 231.19 C85.22 231.85 85.88 232.51 86.56 233.19 C91.12 232.63 91.12 232.63 92.56 231.19 C94.76 231.11 96.93 231.09 99.12 231.12 C99.74 231.13 100.36 231.13 100.99 231.14 C102.51 231.15 104.04 231.17 105.56 231.19 C105.89 232.18 106.22 233.17 106.56 234.19 C107.55 234.19 108.54 234.19 109.56 234.19 C109.89 233.2 110.22 232.21 110.56 231.19 C116.72 230.71 116.72 230.71 120 232.56 C122.37 236.54 122.24 240.66 121.56 245.19 C120.9 245.85 120.24 246.51 119.56 247.19 C119.3 248.85 119.3 248.85 119.3 250.81 C119.29 251.52 119.29 252.23 119.29 252.95 C119.29 253.32 119.29 253.32 119.31 255.19 C119.3 255.92 119.3 256.66 119.29 257.42 C119.29 257.78 119.29 257.78 119.3 259.56 C119.3 259.89 119.3 259.89 119.3 261.52 C119.56 263.19 119.56 263.19 121.56 265.19 C121.9 268.09 121.9 268.09 121.94 271.56 C121.97 272.7 121.99 273.85 122.02 275.02 C121.56 278.19 121.56 278.19 119.77 280.58 C116.39 283.04 114.65 282.64 110.56 282.19 C109.9 281.53 109.24 280.87 108.56 280.19 C104.01 280.74 104.01 280.74 102.56 282.19 C97.56 282.46 97.56 282.46 95.56 282.19 C94.9 281.53 94.24 280.87 93.56 280.19 C91.91 279.92 91.91 279.92 90.06 279.94 C89.45 279.93 88.85 279.93 88.22 279.92 C86.56 280.19 86.56 280.19 84.56 282.19 C82.35 282.45 82.35 282.45 79.62 282.45 C78.65 282.46 77.67 282.46 76.66 282.46 C75.64 282.45 74.62 282.45 73.56 282.44 C73.05 282.44 73.05 282.44 70.46 282.46 C69.48 282.46 68.51 282.46 67.5 282.45 C66.6 282.45 65.7 282.45 64.78 282.45 C62.56 282.19 62.56 282.19 60.56 280.19 C58.25 280.5 58.25 280.5 55.56 281.19 C52.88 281.88 52.88 281.88 50.56 282.19 C49.9 281.53 49.24 280.87 48.56 280.19 C44.01 280.74 44.01 280.74 42.56 282.19 C41.14 282.3 39.72 282.35 38.29 282.36 C37.38 282.38 36.47 282.39 35.54 282.4 C35.04 282.41 35.04 282.41 32.54 282.43 C31.53 282.43 30.52 282.44 29.48 282.45 C27.34 282.46 25.2 282.47 23.05 282.48 C19.77 282.5 16.5 282.54 13.22 282.59 C11.14 282.6 9.06 282.61 6.98 282.61 C6.49 282.62 6.49 282.62 4 282.67 C-2.8 282.64 -2.8 282.64 -6.06 280.32 C-7.75 277.7 -7.91 276.16 -7.81 273.06 C-7.8 272.19 -7.79 271.32 -7.77 270.43 C-7.44 268.19 -7.44 268.19 -5.44 266.19 C-5.21 264.22 -5.21 264.22 -5.24 261.84 C-5.25 261.41 -5.25 261.41 -5.26 259.26 C-5.27 258.81 -5.27 258.81 -5.31 256.56 C-5.32 255.67 -5.33 254.77 -5.34 253.84 C-5.36 251.62 -5.4 249.41 -5.44 247.19 C-6.1 246.86 -6.76 246.53 -7.44 246.19 C-7.44 245.2 -7.44 244.21 -7.44 243.19 C-6.78 242.86 -6.12 242.53 -5.44 242.19 C-5.58 241.47 -5.73 240.74 -5.88 240 C-6.4 237.4 -6.92 234.79 -7.44 232.19 C-6.45 231.86 -5.46 231.53 -4.44 231.19 C-4.44 230.2 -4.44 229.21 -4.44 228.19 C-5.43 227.86 -6.42 227.53 -7.44 227.19 C-7.49 225.56 -7.53 223.94 -7.56 222.31 C-7.57 221.86 -7.57 221.86 -7.63 219.57 C-7.44 217.19 -7.44 217.19 -5.44 215.19 C-5.17 212.88 -5.17 212.88 -5.19 210.19 C-5.18 209.3 -5.18 208.41 -5.17 207.5 C-5.44 205.19 -5.44 205.19 -7.44 203.19 C-7.7 201.25 -7.7 201.25 -7.7 198.91 C-7.71 198.06 -7.71 197.22 -7.71 196.36 C-7.71 195.92 -7.71 195.92 -7.69 193.69 C-7.7 192.81 -7.7 191.93 -7.71 191.02 C-7.71 190.18 -7.71 189.34 -7.7 188.47 C-7.7 187.7 -7.7 186.92 -7.7 186.13 C-7.44 184.19 -7.44 184.19 -5.44 182.19 C-5.18 180.25 -5.18 180.25 -5.17 177.91 C-5.17 177.06 -5.17 176.22 -5.16 175.36 C-5.17 174.48 -5.18 173.59 -5.19 172.69 C-5.18 171.81 -5.17 170.93 -5.16 170.02 C-5.17 169.18 -5.17 168.34 -5.17 167.47 C-5.17 166.7 -5.18 165.92 -5.18 165.13 C-5.44 163.19 -5.44 163.19 -7.44 161.19 C-7.7 158.42 -7.7 158.42 -7.7 154.94 C-7.71 154.32 -7.71 153.71 -7.71 153.08 C-7.71 151.78 -7.71 150.48 -7.7 149.18 C-7.69 147.2 -7.7 145.21 -7.71 143.22 C-7.71 141.96 -7.71 140.7 -7.7 139.44 C-7.7 138.29 -7.7 137.14 -7.7 135.95 C-7.44 133.19 -7.44 133.19 -5.44 131.19 C-5.17 128.88 -5.17 128.88 -5.19 126.19 C-5.18 125.3 -5.18 124.41 -5.17 123.5 C-5.44 121.19 -5.44 121.19 -7.44 119.19 C-7.7 117.53 -7.7 117.53 -7.69 115.69 C-7.69 115.08 -7.7 114.47 -7.7 113.84 C-7.44 112.19 -7.44 112.19 -5.44 110.19 C-5.17 108.53 -5.17 108.53 -5.19 106.69 C-5.18 106.08 -5.18 105.47 -5.17 104.84 C-5.44 103.19 -5.44 103.19 -7.44 101.19 C-7.7 99.52 -7.7 99.52 -7.7 97.56 C-7.71 96.86 -7.71 96.15 -7.71 95.42 C-7.7 94.68 -7.7 93.95 -7.69 93.19 C-7.7 92.45 -7.7 91.71 -7.71 90.95 C-7.71 90.25 -7.71 89.54 -7.7 88.81 C-7.7 88.17 -7.7 87.52 -7.7 86.85 C-7.44 85.19 -7.44 85.19 -5.44 83.19 C-5.17 81.53 -5.17 81.53 -5.19 79.69 C-5.18 79.08 -5.18 78.47 -5.17 77.84 C-5.44 76.19 -5.44 76.19 -7.44 74.19 C-7.64 71.97 -7.72 69.9 -7.69 67.69 C-7.7 67.09 -7.7 66.5 -7.71 65.89 C-7.69 61.44 -7.69 61.44 -5.44 59.19 C-5.17 57.53 -5.17 57.53 -5.19 55.69 C-5.18 55.08 -5.18 54.47 -5.17 53.84 C-5.44 52.19 -5.44 52.19 -7.44 50.19 C-6.88 45.63 -6.88 45.63 -5.44 44.19 C-5.22 40.64 -5.25 37.09 -5.25 33.54 C-5.25 31.76 -5.23 29.98 -5.21 28.2 C-5.21 27.08 -5.21 25.97 -5.21 24.82 C-5.2 23.79 -5.2 22.76 -5.19 21.69 C-5.44 19.19 -5.44 19.19 -7.44 17.19 C-7.68 15.51 -7.68 15.51 -7.67 13.53 C-7.67 12.82 -7.66 12.11 -7.66 11.37 C-7.65 10.63 -7.64 9.89 -7.62 9.12 C-7.62 8.38 -7.62 7.63 -7.62 6.87 C-7.57 0.19 -6.65 0.01 0 0 Z M37.56 129.19 C37.56 130.18 37.56 131.17 37.56 132.19 C39.54 132.19 41.52 132.19 43.56 132.19 C43.56 131.2 43.56 130.21 43.56 129.19 C41.58 129.19 39.6 129.19 37.56 129.19 Z M4.56 171.19 C4.56 172.18 4.56 173.17 4.56 174.19 C5.55 174.19 6.54 174.19 7.56 174.19 C7.56 173.2 7.56 172.21 7.56 171.19 C6.57 171.19 5.58 171.19 4.56 171.19 Z " transform="translate(271.4375,716.8125)"/>
    <path d="M0 0 C0.7 0 1.41 0 2.13 0 C2.5 -0 2.5 -0 4.37 -0.01 C6.82 -0.02 9.27 -0.02 11.73 -0.02 C13.42 -0.02 15.12 -0.03 16.82 -0.03 C20.38 -0.04 23.95 -0.04 27.51 -0.04 C32.09 -0.04 36.66 -0.05 41.23 -0.07 C44.74 -0.08 48.25 -0.08 51.76 -0.08 C53.45 -0.08 55.13 -0.09 56.82 -0.1 C59.18 -0.11 61.53 -0.1 63.89 -0.1 C64.59 -0.1 65.29 -0.11 66.01 -0.11 C70.85 -0.08 70.85 -0.08 73.07 2.15 C74.74 2.43 74.74 2.43 76.7 2.49 C77.41 2.52 78.11 2.55 78.84 2.58 C79.21 2.59 79.21 2.59 81.07 2.65 C82.53 2.69 83.99 2.74 85.45 2.8 C86.1 2.82 86.74 2.84 87.41 2.86 C89.07 3.15 89.07 3.15 91.07 5.15 C92.73 5.49 92.73 5.49 94.57 5.65 C97.49 5.89 97.88 5.95 100.07 8.15 C101.73 8.84 103.4 9.5 105.07 10.15 C111.43 12.63 115.59 17.22 120.32 22.02 C121.14 22.82 121.95 23.63 122.79 24.46 C123.57 25.24 124.35 26.02 125.15 26.83 C125.51 27.18 125.51 27.18 127.29 28.97 C129.18 31.28 130.08 33.35 131.07 36.15 C131.4 36.48 131.73 36.81 132.07 37.15 C132.3 38.91 132.52 40.68 132.7 42.46 C133.07 44.15 133.07 44.15 135.07 46.15 C135.36 47.81 135.36 47.81 135.42 49.77 C135.45 50.48 135.48 51.18 135.51 51.91 C135.55 53.4 135.6 54.89 135.64 56.38 C135.67 57.09 135.7 57.79 135.73 58.52 C135.75 59.17 135.77 59.82 135.79 60.48 C136.07 62.15 136.07 62.15 138.07 64.15 C138.33 66.58 138.33 66.58 138.33 69.67 C138.34 70.82 138.35 71.98 138.35 73.16 C138.35 74.43 138.34 75.69 138.34 76.96 C138.34 78.25 138.34 79.54 138.35 80.84 C138.35 83.55 138.34 86.26 138.34 88.97 C138.32 92.45 138.33 95.92 138.34 99.4 C138.35 102.07 138.35 104.74 138.34 107.41 C138.34 108.69 138.34 109.97 138.35 111.25 C138.35 113.05 138.34 114.84 138.33 116.63 C138.33 117.65 138.33 118.67 138.33 119.72 C138.07 122.15 138.07 122.15 136.07 124.15 C135.73 125.8 135.73 125.8 135.57 127.65 C135.33 130.56 135.27 130.95 133.07 133.15 C132.73 134.8 132.73 134.8 132.57 136.65 C132.33 139.56 132.27 139.95 130.07 142.15 C129.79 142.93 129.5 143.71 129.2 144.52 C127.93 147.47 126.33 148.89 124.07 151.15 C123.79 151.93 123.5 152.71 123.2 153.52 C121.27 158.02 117.95 161.34 113.45 163.27 C113.06 163.42 113.06 163.42 111.07 164.15 C110.41 164.81 109.75 165.47 109.07 166.15 C106.86 168.36 105 169.12 102.07 170.15 C101.74 170.48 101.41 170.81 101.07 171.15 C99.31 171.37 97.54 171.59 95.77 171.77 C94.07 172.15 94.07 172.15 92.07 174.15 C90.22 174.4 90.22 174.4 87.95 174.42 C87.52 174.42 87.52 174.42 85.37 174.45 C84.91 174.45 84.91 174.45 82.58 174.46 C80.64 174.48 78.7 174.51 76.76 174.53 C73.69 174.56 70.63 174.58 67.56 174.6 C64.61 174.62 61.66 174.66 58.7 174.71 C58.24 174.71 58.24 174.71 55.92 174.71 C55.49 174.71 55.49 174.71 53.33 174.75 C52.58 174.75 51.83 174.76 51.05 174.76 C48.53 175.25 47.63 176.13 46.07 178.15 C45.71 180.56 45.71 180.56 45.76 183.21 C45.76 183.65 45.76 183.65 45.77 185.87 C46.07 188.15 46.07 188.15 48.07 190.15 C47.52 194.7 47.52 194.7 46.07 196.15 C45.97 198.33 45.93 200.47 45.93 202.65 C45.93 203.33 45.92 204.01 45.92 204.71 C45.91 206.97 45.91 209.23 45.91 211.49 C45.9 213.05 45.9 214.61 45.9 216.18 C45.89 219.46 45.89 222.74 45.89 226.02 C45.89 230.23 45.88 234.44 45.86 238.65 C45.85 241.88 45.85 245.11 45.85 248.34 C45.84 249.9 45.84 251.45 45.83 253 C45.82 255.17 45.83 257.34 45.83 259.51 C45.83 260.16 45.82 260.8 45.81 261.47 C45.85 265.92 45.85 265.92 48.07 268.15 C48.41 270.39 48.41 270.39 48.45 273.02 C48.46 273.45 48.46 273.45 48.54 275.64 C47.91 279.04 46.89 280.16 44.07 282.15 C41.65 282.44 39.72 282.53 37.32 282.4 C36.72 282.38 36.12 282.36 35.5 282.34 C34.02 282.3 32.55 282.22 31.07 282.15 C30.91 281.65 30.91 281.65 30.07 279.15 C29.08 279.15 28.09 279.15 27.07 279.15 C26.74 280.14 26.41 281.13 26.07 282.15 C21.68 282.17 17.28 282.19 12.89 282.2 C11.39 282.21 9.89 282.21 8.39 282.22 C6.25 282.23 4.1 282.24 1.95 282.24 C1.62 282.25 1.62 282.25 -0.09 282.26 C-1.7 282.26 -3.31 282.21 -4.93 282.15 C-6.45 280.62 -6.06 279.25 -6.07 277.12 C-6.07 276.69 -6.07 276.69 -6.09 274.53 C-6.09 273.6 -6.09 272.67 -6.09 271.71 C-6.1 270.76 -6.1 269.82 -6.1 268.84 C-6.11 266.83 -6.11 264.82 -6.11 262.81 C-6.11 259.73 -6.13 256.64 -6.15 253.56 C-6.15 251.61 -6.15 249.66 -6.16 247.71 C-6.16 246.79 -6.17 245.86 -6.18 244.9 C-6.17 244.05 -6.17 243.19 -6.17 242.31 C-6.17 241.55 -6.17 240.79 -6.17 240.01 C-5.93 238.15 -5.93 238.15 -3.93 236.15 C-4.24 233.83 -4.24 233.83 -4.93 231.15 C-5.61 228.46 -5.61 228.46 -5.93 226.15 C-5.6 225.82 -5.6 225.82 -3.93 224.15 C-3.73 222.42 -3.73 222.42 -3.8 220.52 C-3.84 219.41 -3.88 218.29 -3.93 217.15 C-4.59 216.82 -5.25 216.49 -5.93 216.15 C-5.93 215.16 -5.93 214.17 -5.93 213.15 C-4.94 213.15 -3.95 213.15 -2.93 213.15 C-2.93 212.16 -2.93 211.17 -2.93 210.15 C-3.92 209.82 -4.91 209.49 -5.93 209.15 C-5.93 208.42 -5.94 207.7 -5.95 206.96 C-6.03 200.16 -6.11 193.36 -6.21 186.56 C-6.26 183.07 -6.31 179.57 -6.35 176.08 C-6.38 172.71 -6.43 169.33 -6.48 165.96 C-6.5 164.68 -6.52 163.39 -6.53 162.1 C-6.55 160.3 -6.57 158.5 -6.61 156.7 C-6.62 155.67 -6.63 154.65 -6.65 153.59 C-6.93 151.15 -6.93 151.15 -8.93 149.15 C-8.37 144.59 -8.37 144.59 -6.93 143.15 C-6.81 140.88 -6.76 138.64 -6.75 136.36 C-6.74 135.65 -6.74 134.95 -6.73 134.22 C-6.72 132.67 -6.71 131.13 -6.7 129.58 C-6.68 127.14 -6.66 124.7 -6.63 122.26 C-6.56 115.32 -6.5 108.37 -6.45 101.43 C-6.42 97.19 -6.38 92.95 -6.33 88.71 C-6.31 87.09 -6.3 85.47 -6.29 83.85 C-6.28 81.58 -6.26 79.32 -6.23 77.06 C-6.23 76.39 -6.23 75.71 -6.23 75.02 C-6.15 70.37 -6.15 70.37 -3.93 68.15 C-4.48 63.59 -4.48 63.59 -5.93 62.15 C-6.02 60.25 -6.05 58.35 -6.05 56.45 C-6.06 55.86 -6.06 55.26 -6.06 54.65 C-6.06 52.68 -6.06 50.71 -6.06 48.74 C-6.06 47.38 -6.06 46.01 -6.06 44.65 C-6.06 41.79 -6.06 38.93 -6.06 36.06 C-6.05 32.39 -6.05 28.71 -6.06 25.04 C-6.06 22.22 -6.06 19.4 -6.06 16.59 C-6.06 15.23 -6.06 13.87 -6.06 12.52 C-6.06 10.63 -6.06 8.74 -6.05 6.84 C-6.05 5.77 -6.05 4.69 -6.05 3.58 C-5.83 -0.77 -3.86 0.03 0 0 Z M45.07 52.15 C44.68 54.66 44.53 56.73 44.56 59.24 C44.55 59.94 44.54 60.65 44.54 61.38 C44.52 63.71 44.53 66.04 44.54 68.37 C44.54 69.99 44.54 71.61 44.53 73.23 C44.53 76.63 44.53 80.02 44.55 83.42 C44.58 87.77 44.56 92.12 44.54 96.47 C44.52 99.82 44.53 103.17 44.54 106.51 C44.54 108.12 44.54 109.72 44.53 111.33 C44.52 113.57 44.53 115.81 44.56 118.05 C44.55 118.72 44.54 119.38 44.53 120.06 C44.59 123.34 44.91 124.94 46.95 127.56 C49.57 129.52 50.97 129.64 54.21 129.61 C55.18 129.6 56.15 129.6 57.15 129.6 C58.16 129.57 59.16 129.55 60.2 129.52 C60.71 129.52 60.71 129.52 63.27 129.52 C70.79 129.43 70.79 129.43 73.07 127.15 C73.82 126.9 74.56 126.65 75.32 126.4 C79.11 124.68 81.83 122.69 84.07 119.15 C84.63 116.49 84.82 114.03 84.87 111.32 C85.07 109.15 85.07 109.15 87.07 107.15 C87.33 105.51 87.33 105.51 87.33 103.55 C87.34 102.82 87.35 102.09 87.35 101.33 C87.35 100.54 87.34 99.74 87.34 98.93 C87.34 98.11 87.34 97.3 87.35 96.46 C87.35 94.74 87.34 93.02 87.34 91.3 C87.32 88.66 87.34 86.02 87.35 83.38 C87.35 81.71 87.34 80.04 87.34 78.37 C87.34 77.57 87.35 76.78 87.35 75.96 C87.35 75.23 87.34 74.49 87.33 73.74 C87.33 73.09 87.33 72.44 87.33 71.78 C87.07 70.15 87.07 70.15 85.07 68.15 C84.7 66.36 84.57 64.62 84.42 62.8 C84.07 61.15 84.07 61.15 82.07 59.15 C81.77 58.34 81.46 57.54 81.14 56.71 C80.02 54.03 79.45 52.79 77.07 51.15 C75.4 50.81 75.4 50.81 73.51 50.58 C70.07 50.15 70.07 50.15 68.07 48.15 C64.97 47.67 61.83 47.78 58.7 47.77 C57.84 47.75 56.97 47.72 56.08 47.7 C55.25 47.69 54.41 47.69 53.55 47.69 C52.79 47.68 52.03 47.67 51.24 47.66 C48.11 48.36 47.05 49.64 45.07 52.15 Z " transform="translate(428.9252624511719,716.8533630371094)"/>
    <path d="M0 0 C0.33 0.99 0.66 1.98 1 3 C1.99 3 2.98 3 4 3 C4.33 2.01 4.66 1.02 5 0 C10.27 -0.2 10.27 -0.2 12 0 C12.66 0.66 13.32 1.32 14 2 C16.22 2.2 18.28 2.28 20.5 2.25 C21.09 2.26 21.69 2.27 22.3 2.27 C26.75 2.25 26.75 2.25 29 0 C31.9 -0.34 31.9 -0.34 35.38 -0.38 C36.52 -0.4 37.66 -0.43 38.84 -0.46 C42 0 42 0 44.43 1.86 C46 4 46 4 45.81 6.69 C45 9 45 9 44 10 C43.9 11.45 43.88 12.91 43.88 14.37 C43.88 15.32 43.88 16.26 43.88 17.23 C43.88 18.28 43.88 19.32 43.89 20.39 C43.89 21.49 43.89 22.58 43.89 23.71 C43.89 26.71 43.89 29.71 43.9 32.72 C43.9 35.85 43.91 38.99 43.91 42.13 C43.91 48.07 43.92 54.01 43.93 59.95 C43.94 66.72 43.94 73.48 43.95 80.25 C43.96 94.16 43.98 108.08 44 122 C44.33 122.16 44.33 122.16 46 123 C46 123.99 46 124.98 46 126 C45.67 126.16 45.67 126.16 44 127 C43.95 139.61 43.92 152.23 43.9 164.84 C43.89 170.69 43.87 176.55 43.85 182.41 C43.83 188.05 43.82 193.7 43.81 199.35 C43.81 201.51 43.8 203.67 43.79 205.82 C43.77 208.84 43.77 211.85 43.77 214.87 C43.77 215.77 43.76 216.67 43.75 217.6 C43.75 218.41 43.76 219.23 43.76 220.08 C43.76 220.43 43.76 220.43 43.75 222.24 C44 224 44 224 46 226 C46.67 227.67 47.33 229.33 48 231 C50.23 233.23 52.09 233.88 55 235 C55.33 235.33 55.66 235.66 56 236 C58.16 236.13 60.28 236.19 62.44 236.19 C63.04 236.2 63.64 236.21 64.25 236.22 C65.84 236.23 67.42 236.12 69 236 C69.66 235.34 70.32 234.68 71 234 C72.67 233.33 74.33 232.67 76 232 C78.2 229.8 78.25 229.41 78.5 226.5 C78.75 223.59 78.8 223.2 81 221 C81.19 218.56 81.25 216.24 81.23 213.8 C81.23 213.05 81.23 212.31 81.23 211.55 C81.23 209.09 81.21 206.64 81.2 204.18 C81.19 202.48 81.19 200.78 81.19 199.08 C81.18 194.59 81.16 190.11 81.14 185.63 C81.12 181.06 81.11 176.49 81.1 171.92 C81.08 162.95 81.04 153.97 81 145 C80.34 144.67 79.68 144.34 79 144 C79 143.01 79 142.02 79 141 C79.66 140.67 80.32 140.34 81 140 C81 139.28 81.01 138.57 81.01 137.83 C81.12 120.45 81.22 103.07 81.34 85.68 C81.39 77.28 81.45 68.87 81.5 60.46 C81.54 53.14 81.59 45.81 81.64 38.49 C81.66 34.61 81.69 30.73 81.71 26.85 C81.73 23.2 81.75 19.55 81.78 15.9 C81.79 14.56 81.8 13.22 81.8 11.87 C81.81 10.05 81.83 8.22 81.84 6.4 C81.85 5.37 81.85 4.35 81.86 3.29 C82 1 82 1 83 0 C88 -0.27 88 -0.27 90 0 C90.33 0.33 90.33 0.33 92 2 C94.49 2.26 94.49 2.26 97.59 2.27 C98.71 2.27 99.82 2.27 100.96 2.27 C101.54 2.27 102.12 2.27 102.72 2.26 C104.49 2.25 106.26 2.26 108.04 2.27 C109.15 2.27 110.26 2.27 111.41 2.27 C111.92 2.26 111.92 2.26 114.51 2.26 C117 2 117 2 119 0 C121.24 -0.34 121.24 -0.34 123.88 -0.38 C124.74 -0.4 125.6 -0.43 126.49 -0.46 C129.85 0.16 130.87 1.37 133 4 C133.5 6.61 133.5 6.61 133.51 9.63 C133.52 10.78 133.53 11.92 133.54 13.11 C133.53 14.37 133.52 15.64 133.51 16.91 C133.52 18.24 133.53 19.58 133.54 20.92 C133.55 23.8 133.55 26.67 133.55 29.55 C133.54 34.09 133.55 38.64 133.57 43.19 C133.61 50.37 133.62 57.56 133.62 64.75 C133.63 77.63 133.66 90.51 133.71 103.39 C133.72 107.91 133.73 112.43 133.72 116.95 C133.72 119.76 133.73 122.57 133.74 125.38 C133.74 126.68 133.74 127.99 133.74 129.29 C133.73 131.07 133.74 132.85 133.75 134.62 C133.75 135.62 133.75 136.62 133.75 137.64 C134 140 134 140 136 142 C136.27 143.66 136.27 143.66 136.25 145.5 C136.25 145.8 136.25 145.8 136.27 147.34 C136 149 136 149 134 151 C133.79 153.52 133.71 155.93 133.71 158.45 C133.71 159.21 133.7 159.98 133.69 160.77 C133.68 162.44 133.67 164.11 133.66 165.78 C133.66 168.42 133.64 171.06 133.61 173.7 C133.56 179.3 133.53 184.9 133.5 190.5 C133.46 196.99 133.42 203.48 133.36 209.97 C133.34 212.57 133.34 215.18 133.33 217.78 C133.31 219.37 133.3 220.96 133.29 222.55 C133.29 222.92 133.29 222.92 133.29 224.76 C133.23 229.77 133.23 229.77 131 232 C130.66 234.31 130.66 234.31 130.5 237 C130.22 241.78 130.22 241.78 128 244 C127.31 245.66 126.65 247.33 126 249 C123.98 253.89 121.4 256.7 117.57 260.33 C115.65 262.37 114.88 264.36 114 267 C112.3 269.18 111.17 269.94 108.56 270.94 C106 272 106 272 104 274 C101.74 276.26 99.99 276.93 97 278 C91.41 280.59 91.41 280.59 90 282 C87.25 282.24 84.51 282.4 81.75 282.52 C77.21 282.79 77.21 282.79 75 285 C72.66 285.2 70.44 285.28 68.09 285.27 C67.41 285.27 66.73 285.27 66.03 285.27 C64.59 285.27 63.15 285.27 61.71 285.26 C59.51 285.25 57.3 285.26 55.1 285.27 C53.7 285.27 52.3 285.27 50.91 285.27 C50.24 285.27 49.58 285.27 48.9 285.28 C44.23 285.23 44.23 285.23 42 283 C40.34 282.66 40.34 282.66 38.5 282.5 C35.59 282.25 35.2 282.2 33 280 C31.34 279.31 29.67 278.65 28 278 C23.83 276.13 21.2 274.2 18 271 C17.62 270.86 17.62 270.86 15.67 270.15 C12.52 268.79 10.72 267.12 8.31 264.69 C7.55 263.93 6.78 263.17 5.99 262.39 C3.97 259.97 3.08 257.92 2 255 C1.32 254.38 0.64 253.76 -0.06 253.12 C-2.77 250.16 -2.56 247.95 -3 244 C-3.66 243.34 -4.32 242.68 -5 242 C-5.37 240.22 -5.5 238.47 -5.66 236.66 C-6 235 -6 235 -8 233 C-8.21 230.39 -8.29 227.89 -8.29 225.28 C-8.29 224.48 -8.3 223.68 -8.31 222.86 C-8.32 221.13 -8.33 219.4 -8.34 217.66 C-8.34 214.92 -8.36 212.18 -8.39 209.45 C-8.44 202.64 -8.48 195.84 -8.52 189.03 C-8.55 183.29 -8.59 177.54 -8.64 171.79 C-8.66 169.09 -8.66 166.38 -8.67 163.68 C-8.69 162.03 -8.7 160.37 -8.71 158.72 C-8.71 157.97 -8.71 157.21 -8.71 156.43 C-8.77 151.23 -8.77 151.23 -11 149 C-11.27 147.34 -11.27 147.34 -11.25 145.5 C-11.25 145.2 -11.25 145.2 -11.27 143.66 C-11 142 -11 142 -9 140 C-8.75 137.68 -8.75 137.68 -8.76 134.71 C-8.76 133.59 -8.75 132.47 -8.75 131.31 C-8.76 130.06 -8.77 128.81 -8.77 127.56 C-8.77 126.25 -8.77 124.94 -8.77 123.63 C-8.77 120.07 -8.78 116.5 -8.8 112.94 C-8.81 109.22 -8.81 105.5 -8.81 101.77 C-8.82 94.72 -8.84 87.67 -8.86 80.62 C-8.88 72.59 -8.89 64.57 -8.9 56.54 C-8.92 40.03 -8.96 23.51 -9 7 C-9.66 6.67 -10.32 6.34 -11 6 C-11 3 -11 3 -9.44 1.31 C-6.08 -0.49 -3.78 -0.22 0 0 Z " transform="translate(605,717)"/>
    <path d="M0 0 C0.33 0.99 0.66 1.98 1 3 C1.99 3 2.98 3 4 3 C4.33 2.01 4.66 1.02 5 0 C6.62 -0.05 8.25 -0.09 9.88 -0.12 C10.33 -0.14 10.33 -0.14 12.62 -0.2 C15 0 15 0 17 2 C18.66 2.26 18.66 2.26 20.62 2.27 C21.33 2.27 22.04 2.27 22.77 2.27 C23.13 2.27 23.13 2.27 25 2.25 C25.74 2.26 26.47 2.27 27.23 2.27 C27.94 2.27 28.65 2.27 29.38 2.27 C30.02 2.26 30.67 2.26 31.34 2.26 C33 2 33 2 35 0 C37.34 -0.2 39.56 -0.28 41.91 -0.27 C42.25 -0.27 42.25 -0.27 43.97 -0.27 C45.41 -0.27 46.85 -0.27 48.29 -0.26 C50.49 -0.25 52.7 -0.26 54.9 -0.27 C56.3 -0.27 57.7 -0.27 59.09 -0.27 C59.76 -0.27 60.42 -0.27 61.1 -0.28 C65.77 -0.23 65.77 -0.23 68 2 C69.66 2.29 69.66 2.29 71.62 2.34 C72.33 2.37 73.04 2.4 73.77 2.43 C74.13 2.44 74.13 2.44 76 2.5 C77.46 2.54 78.92 2.6 80.38 2.66 C81.02 2.67 81.67 2.69 82.34 2.71 C84 3 84 3 86 5 C87.66 5.34 87.66 5.34 89.5 5.5 C92.41 5.75 92.8 5.8 95 8 C96.66 8.69 98.33 9.35 100 10 C105.72 12.35 109.45 16 113.75 20.38 C114.42 21.03 115.09 21.7 115.79 22.38 C119.1 25.71 121.66 28.38 123 33 C125.58 38.58 125.58 38.58 127 40 C127.28 41.8 127.45 43.6 127.62 45.41 C127.75 45.93 127.87 46.46 128 47 C128.66 47.33 129.32 47.66 130 48 C130 48.99 130 49.98 130 51 C129.67 51.16 129.67 51.16 128 52 C128.88 56.88 128.88 56.88 130 58 C130.1 59.52 130.14 61.05 130.15 62.58 C130.15 63.55 130.16 64.53 130.16 65.53 C130.17 66.06 130.17 66.06 130.17 68.75 C130.17 69.83 130.17 70.91 130.18 72.02 C130.18 74.32 130.19 76.61 130.19 78.9 C130.19 81.26 130.19 83.61 130.21 85.97 C130.22 89.35 130.23 92.74 130.23 96.12 C130.24 97.18 130.24 98.24 130.25 99.33 C130.25 100.31 130.25 101.28 130.24 102.29 C130.24 103.15 130.25 104.02 130.25 104.91 C130 107 130 107 128 109 C127.31 110.66 126.65 112.33 126 114 C125.02 116.01 124.02 118.01 123 120 C122.57 120.99 122.13 121.98 121.69 123 C119.38 127.11 116.48 131.24 111.81 132.67 C111.21 132.78 110.61 132.89 110 133 C110.75 137.75 110.75 137.75 113 140 C115.62 140.62 115.62 140.62 118 141 C118.19 141.85 118.37 142.69 118.56 143.56 C119.82 147.45 122.47 149.6 125.38 152.32 C127.34 154.35 128.21 156.31 129 159 C129.33 159.33 129.66 159.66 130 160 C130.28 162.55 130.45 165.1 130.62 167.65 C131 170 131 170 133 172 C133.25 174.54 133.25 174.54 133.26 177.79 C133.26 178.09 133.26 178.09 133.27 179.59 C133.28 181.55 133.27 183.51 133.27 185.47 C133.27 186.83 133.27 188.19 133.27 189.55 C133.27 192.4 133.27 195.25 133.26 198.1 C133.25 201.76 133.26 205.42 133.27 209.08 C133.28 211.89 133.27 214.7 133.27 217.51 C133.27 218.85 133.27 220.2 133.27 221.55 C133.28 223.44 133.27 225.32 133.26 227.21 C133.26 228.28 133.26 229.35 133.25 230.46 C133 233 133 233 131 235 C130.66 236.66 130.66 236.66 130.5 238.5 C130.25 241.41 130.2 241.8 128 244 C127.31 245.66 126.65 247.33 126 249 C123.52 255.36 118.93 259.52 114.12 264.25 C113.72 264.66 113.72 264.66 111.69 266.72 C110.91 267.5 110.13 268.28 109.32 269.08 C108.61 269.78 107.9 270.49 107.17 271.22 C104.87 273.11 102.79 274 100 275 C99.67 275.33 99.34 275.66 99 276 C97.23 276.22 95.46 276.45 93.69 276.62 C92 277 92 277 90 279 C88.34 279.29 88.34 279.29 86.38 279.34 C86.02 279.36 86.02 279.36 84.23 279.43 C82.74 279.48 81.26 279.52 79.77 279.57 C79.41 279.58 79.41 279.58 77.62 279.66 C76.98 279.67 76.33 279.69 75.66 279.71 C74 280 74 280 72 282 C70.06 282.26 70.06 282.26 67.72 282.27 C66.88 282.27 66.04 282.27 65.17 282.27 C64.29 282.27 63.41 282.26 62.5 282.25 C61.62 282.26 60.74 282.27 59.83 282.27 C58.99 282.27 58.15 282.27 57.28 282.27 C56.51 282.26 55.74 282.26 54.94 282.26 C53 282 53 282 51 280 C49.34 279.73 49.34 279.73 47.5 279.75 C46.89 279.74 46.28 279.74 45.66 279.73 C44 280 44 280 42 282 C40.34 282.26 40.34 282.26 38.38 282.27 C37.67 282.27 36.96 282.27 36.23 282.27 C35.5 282.27 34.76 282.26 34 282.25 C33.26 282.26 32.53 282.27 31.77 282.27 C31.06 282.27 30.35 282.27 29.62 282.27 C28.98 282.26 28.33 282.26 27.66 282.26 C26 282 26 282 24 280 C21.69 279.73 21.69 279.73 19 279.75 C18.11 279.74 17.23 279.74 16.31 279.73 C14 280 14 280 12 282 C8.9 282.47 5.76 282.37 2.62 282.38 C1.76 282.4 0.9 282.42 0.01 282.45 C-6.31 282.48 -6.31 282.48 -9.58 280.2 C-11.78 276.79 -11.44 275 -11 271 C-10.34 270.34 -9.68 269.68 -9 269 C-8.75 266.96 -8.75 266.96 -8.75 264.41 C-8.74 263.44 -8.73 262.47 -8.73 261.48 C-8.73 260.41 -8.74 259.35 -8.74 258.25 C-8.74 257.13 -8.73 256.01 -8.73 254.86 C-8.72 251.79 -8.73 248.71 -8.73 245.64 C-8.74 242.43 -8.73 239.22 -8.73 236.01 C-8.72 230.61 -8.73 225.22 -8.74 219.83 C-8.75 213.59 -8.75 207.34 -8.74 201.1 C-8.73 195.75 -8.73 190.4 -8.73 185.05 C-8.73 181.85 -8.73 178.65 -8.73 175.45 C-8.72 171.88 -8.73 168.32 -8.74 164.75 C-8.74 163.69 -8.73 162.62 -8.73 161.52 C-8.73 160.56 -8.74 159.59 -8.75 158.59 C-8.75 157.75 -8.75 156.91 -8.75 156.04 C-9 154 -9 154 -11 152 C-11.27 149.69 -11.27 149.69 -11.25 147 C-11.26 146.11 -11.26 145.23 -11.27 144.31 C-11 142 -11 142 -9 140 C-8.74 138.38 -8.74 138.38 -8.72 136.42 C-8.71 135.68 -8.7 134.93 -8.69 134.17 C-8.69 133.35 -8.68 132.54 -8.68 131.69 C-8.68 131.27 -8.68 131.27 -8.65 129.09 C-8.62 126.25 -8.6 123.4 -8.59 120.55 C-8.57 118.58 -8.55 116.61 -8.53 114.64 C-8.48 109.45 -8.44 104.26 -8.4 99.07 C-8.36 93.77 -8.31 88.48 -8.26 83.18 C-8.16 72.79 -8.08 62.39 -8 52 C-7.5 51.84 -7.5 51.84 -5 51 C-5 50.01 -5 49.02 -5 48 C-5.99 47.67 -6.98 47.34 -8 47 C-8.02 45.89 -8.04 44.78 -8.06 43.64 C-8.14 39.52 -8.22 35.41 -8.32 31.3 C-8.36 29.52 -8.39 27.74 -8.42 25.96 C-8.47 23.4 -8.53 20.85 -8.59 18.29 C-8.59 17.89 -8.59 17.89 -8.62 15.87 C-8.64 15.13 -8.66 14.39 -8.68 13.62 C-8.69 12.97 -8.71 12.32 -8.72 11.65 C-9 10 -9 10 -11 8 C-10.79 5.31 -10.3 3.49 -8.88 1.19 C-5.95 -0.67 -3.42 -0.19 0 0 Z M43 49 C42.9 50.99 42.87 52.98 42.87 54.97 C42.87 55.6 42.87 56.22 42.87 56.86 C42.86 58.93 42.86 60.99 42.87 63.06 C42.87 64.49 42.87 65.92 42.86 67.36 C42.86 70.36 42.86 73.36 42.87 76.36 C42.88 80.22 42.87 84.08 42.87 87.94 C42.86 90.89 42.86 93.85 42.87 96.8 C42.87 98.23 42.87 99.65 42.86 101.07 C42.86 103.06 42.87 105.04 42.87 107.03 C42.87 108.16 42.87 109.29 42.87 110.46 C43 113 43 113 44 114 C48.03 114.39 52.08 114.42 56.12 114.5 C56.69 114.53 56.69 114.53 59.55 114.66 C67.76 114.8 67.76 114.8 71.32 112.51 C74.53 109.36 76.71 106.37 78 102 C78.33 101.67 78.66 101.34 79 101 C79.13 99.37 79.13 99.37 79.15 97.25 C79.15 96.45 79.16 95.66 79.16 94.84 C79.17 93.98 79.17 93.11 79.17 92.22 C79.17 91.34 79.17 90.46 79.18 89.55 C79.18 87.68 79.19 85.81 79.19 83.94 C79.19 81.08 79.21 78.21 79.22 75.35 C79.23 73.53 79.23 71.72 79.23 69.91 C79.24 69.05 79.24 68.19 79.25 67.3 C79.25 66.9 79.25 66.9 79.24 64.88 C79.24 64.18 79.25 63.48 79.25 62.75 C79 61 79 61 77 59 C76.69 58.2 76.38 57.39 76.06 56.56 C74.52 52.84 73.08 51.46 69.38 49.88 C68.59 49.59 67.81 49.3 67 49 C66.67 48.67 66.34 48.34 66 48 C64.38 47.9 62.75 47.87 61.12 47.87 C60.14 47.87 59.16 47.86 58.14 47.86 C57.62 47.87 57.62 47.87 55 47.88 C53.96 47.87 52.93 47.87 51.86 47.86 C50.87 47.86 49.89 47.87 48.88 47.87 C47.96 47.87 47.05 47.87 46.12 47.87 C44 48 44 48 43 49 Z M44.33 160.57 C42.62 163.7 42.59 166.39 42.64 169.86 C42.64 170.55 42.64 171.23 42.64 171.93 C42.63 174.18 42.65 176.42 42.67 178.67 C42.67 180.23 42.68 181.79 42.68 183.35 C42.68 186.62 42.7 189.89 42.72 193.15 C42.75 197.35 42.76 201.55 42.76 205.74 C42.77 208.97 42.78 212.19 42.79 215.41 C42.79 216.96 42.8 218.5 42.8 220.05 C42.81 222.21 42.82 224.37 42.84 226.52 C42.84 227.17 42.84 227.81 42.84 228.48 C42.89 232.89 42.89 232.89 44 234 C47.55 234.22 51.09 234.19 54.65 234.19 C56.43 234.19 58.21 234.21 59.99 234.22 C61.1 234.23 62.22 234.23 63.37 234.23 C64.4 234.23 65.43 234.24 66.49 234.24 C69 234 69 234 71 232 C71.8 231.69 72.61 231.38 73.44 231.06 C77.16 229.52 78.54 228.08 80.12 224.38 C80.41 223.59 80.7 222.81 81 222 C81.33 221.67 81.66 221.34 82 221 C82.14 218.72 82.21 216.47 82.25 214.19 C82.28 212.79 82.31 211.39 82.35 209.99 C82.39 207.77 82.44 205.56 82.48 203.34 C82.52 201.21 82.57 199.07 82.62 196.94 C82.63 196.28 82.64 195.61 82.65 194.93 C82.77 190.23 82.77 190.23 85 188 C84.44 183.44 84.44 183.44 83 182 C82.78 180.23 82.55 178.46 82.38 176.69 C82 175 82 175 80 173 C79.69 172.2 79.38 171.39 79.06 170.56 C77.52 166.84 76.08 165.46 72.38 163.88 C71.59 163.59 70.81 163.3 70 163 C69.67 162.67 69.34 162.34 69 162 C67.59 161.84 66.17 161.75 64.75 161.68 C63.89 161.64 63.04 161.6 62.16 161.56 C61.26 161.52 60.36 161.48 59.44 161.44 C58.54 161.39 57.63 161.35 56.71 161.31 C54.47 161.2 52.24 161.1 50 161 C49.67 160.34 49.34 159.68 49 159 C46 159 46 159 44.33 160.57 Z " transform="translate(785,717)"/>
    <path d="M0 0 C2.31 0.81 2.31 0.81 3.31 1.81 C4.95 1.94 6.6 1.99 8.25 2 C9.15 2.01 10.04 2.03 10.96 2.04 C13.31 1.81 13.31 1.81 15.31 -0.19 C17.94 0.17 20.43 0.84 23 1.5 C23.76 1.6 24.53 1.71 25.31 1.81 C25.97 1.15 26.63 0.49 27.31 -0.19 C29.91 -0.65 32.55 -0.56 35.19 -0.56 C35.55 -0.57 35.55 -0.57 37.37 -0.64 C41.06 -0.66 42.78 -0.58 45.83 1.67 C47.31 3.81 47.31 3.81 47.12 6.5 C46.31 8.81 46.31 8.81 45.31 9.81 C45.21 12.45 45.17 15.06 45.17 17.7 C45.16 18.52 45.16 19.35 45.16 20.2 C45.15 22.94 45.15 25.69 45.14 28.43 C45.14 30.33 45.14 32.23 45.13 34.13 C45.13 38.12 45.13 42.11 45.13 46.09 C45.13 51.21 45.11 56.33 45.1 61.45 C45.09 65.38 45.08 69.3 45.08 73.23 C45.08 75.11 45.08 77 45.07 78.89 C45.06 81.53 45.06 84.16 45.07 86.8 C45.06 87.58 45.06 88.37 45.05 89.18 C45.08 94.58 45.08 94.58 47.31 96.81 C47.58 98.47 47.58 98.47 47.56 100.31 C47.57 100.62 47.57 100.62 47.58 102.16 C47.31 103.81 47.31 103.81 45.31 105.81 C45.05 108.12 45.05 108.12 45.06 110.81 C45.06 111.7 45.05 112.59 45.05 113.5 C45.31 115.81 45.31 115.81 47.31 117.81 C47.51 120.03 47.59 122.1 47.56 124.31 C47.57 124.61 47.57 124.61 47.59 126.11 C47.57 130.56 47.57 130.56 45.31 132.81 C45.05 134.47 45.05 134.47 45.06 136.31 C45.06 136.92 45.05 137.53 45.05 138.16 C45.31 139.81 45.31 139.81 47.31 141.81 C47.57 143.48 47.57 143.48 47.58 145.44 C47.58 145.79 47.58 145.79 47.59 147.58 C47.58 148.32 47.57 149.05 47.56 149.81 C47.57 150.18 47.57 150.18 47.59 152.05 C47.58 152.75 47.58 153.46 47.58 154.19 C47.58 154.83 47.57 155.48 47.57 156.15 C47.31 157.81 47.31 157.81 45.31 159.81 C45.05 161.47 45.05 161.47 45.06 163.31 C45.06 163.92 45.05 164.53 45.05 165.16 C45.31 166.81 45.31 166.81 47.31 168.81 C47.58 171.12 47.58 171.12 47.56 173.81 C47.57 174.26 47.57 174.26 47.58 176.5 C47.31 178.81 47.31 178.81 45.31 180.81 C45.11 183.03 45.03 185.1 45.06 187.31 C45.06 187.61 45.06 187.61 45.04 189.11 C45.06 193.56 45.06 193.56 47.31 195.81 C46.76 200.37 46.76 200.37 45.31 201.81 C45.2 203.39 45.2 203.39 45.21 205.41 C45.22 206.13 45.22 206.85 45.22 207.59 C45.23 208.34 45.24 209.1 45.25 209.88 C45.25 210.63 45.26 211.39 45.26 212.17 C45.28 214.05 45.29 215.93 45.31 217.81 C45.97 218.14 46.63 218.47 47.31 218.81 C47.31 219.8 47.31 220.79 47.31 221.81 C46.32 221.81 45.33 221.81 44.31 221.81 C44.31 222.8 44.31 223.79 44.31 224.81 C45.3 224.81 46.29 224.81 47.31 224.81 C47.31 225.8 47.31 226.79 47.31 227.81 C46.32 227.81 45.33 227.81 44.31 227.81 C44.31 228.8 44.31 229.79 44.31 230.81 C47.85 233.01 50.71 233.05 54.83 233.01 C55.44 233 56.06 233 56.69 233 C58.65 232.99 60.61 232.96 62.56 232.94 C63.89 232.93 65.22 232.92 66.55 232.91 C69.81 232.89 73.06 232.85 76.31 232.81 C76.64 232.15 76.97 231.49 77.31 230.81 C78.3 230.81 79.29 230.81 80.31 230.81 C80.64 231.47 80.97 232.13 81.31 232.81 C84.94 232.87 88.56 232.91 92.19 232.94 C92.7 232.95 92.7 232.95 95.32 232.99 C96.3 232.99 97.29 233 98.3 233.01 C99.22 233.02 100.13 233.03 101.07 233.04 C103.31 232.81 103.31 232.81 105.31 230.81 C109.47 230.35 111.33 230.15 114.81 232.5 C116.31 234.81 116.31 234.81 116.12 237.5 C115.31 239.81 115.31 239.81 114.31 240.81 C114.2 242.87 114.15 244.9 114.14 246.96 C114.14 247.58 114.14 248.2 114.13 248.83 C114.13 250.13 114.13 251.44 114.13 252.74 C114.13 254.74 114.11 256.74 114.09 258.73 C114.08 260 114.08 261.26 114.08 262.53 C114.07 263.13 114.07 263.73 114.06 264.34 C114.08 268.58 114.08 268.58 116.31 270.81 C116.99 276.89 116.99 276.89 114.7 280.02 C111.55 282.38 109.59 282.28 105.69 282.19 C104.54 282.17 103.39 282.16 102.21 282.15 C99.31 281.81 99.31 281.81 97.31 279.81 C95.06 279.67 92.93 279.63 90.69 279.69 C90.08 279.7 89.47 279.71 88.84 279.71 C87.33 279.74 85.82 279.77 84.31 279.81 C83.98 280.47 83.65 281.13 83.31 281.81 C82.32 281.81 81.33 281.81 80.31 281.81 C79.98 281.15 79.65 280.49 79.31 279.81 C74.44 280.69 74.44 280.69 73.31 281.81 C71.15 281.94 69.04 282 66.88 282 C66.28 282.01 65.68 282.02 65.06 282.04 C63.48 282.04 61.89 281.93 60.31 281.81 C59.65 281.15 58.99 280.49 58.31 279.81 C56.1 279.55 56.1 279.55 53.38 279.55 C52.4 279.54 51.42 279.54 50.41 279.54 C49.9 279.54 49.9 279.54 47.31 279.56 C46.29 279.55 45.27 279.55 44.21 279.54 C43.23 279.54 42.26 279.54 41.25 279.55 C40.8 279.55 40.8 279.55 38.53 279.55 C36.31 279.81 36.31 279.81 34.31 281.81 C32.58 282.07 32.58 282.07 30.48 282.09 C29.69 282.1 28.9 282.11 28.09 282.12 C27.66 282.12 27.66 282.12 25.51 282.11 C24.63 282.12 23.76 282.12 22.85 282.13 C21 282.13 19.15 282.13 17.29 282.13 C14.46 282.13 11.62 282.15 8.79 282.17 C6.98 282.18 5.18 282.18 3.38 282.18 C2.53 282.18 1.69 282.19 0.81 282.2 C-2.72 282.18 -5.08 282.13 -8.25 280.48 C-9.69 278.81 -9.69 278.81 -9.69 275.81 C-9.03 275.48 -8.37 275.15 -7.69 274.81 C-7.64 258.68 -7.61 242.55 -7.58 226.41 C-7.57 218.92 -7.56 211.43 -7.54 203.94 C-7.52 197.41 -7.5 190.89 -7.5 184.36 C-7.5 180.9 -7.49 177.45 -7.48 173.99 C-7.46 170.74 -7.46 167.48 -7.46 164.23 C-7.46 162.47 -7.45 160.7 -7.44 158.93 C-7.44 157.88 -7.44 156.84 -7.45 155.76 C-7.45 155.3 -7.45 155.3 -7.44 153 C-7.69 150.81 -7.69 150.81 -9.69 148.81 C-9.95 147.16 -9.95 147.16 -9.94 145.31 C-9.94 145.01 -9.94 145.01 -9.95 143.47 C-9.69 141.81 -9.69 141.81 -7.69 139.81 C-7.44 137.45 -7.44 137.45 -7.44 134.44 C-7.43 133.29 -7.43 132.15 -7.42 130.98 C-7.42 129.71 -7.43 128.44 -7.43 127.16 C-7.43 125.83 -7.43 124.5 -7.42 123.16 C-7.41 120.29 -7.41 117.41 -7.41 114.54 C-7.42 109.99 -7.4 105.44 -7.38 100.9 C-7.34 87.97 -7.31 75.04 -7.31 62.11 C-7.3 54.97 -7.28 47.83 -7.25 40.7 C-7.23 36.18 -7.23 31.66 -7.24 27.14 C-7.24 24.32 -7.23 21.51 -7.21 18.7 C-7.2 17.39 -7.21 16.09 -7.21 14.79 C-7.23 13 -7.21 11.22 -7.19 9.44 C-7.19 8.45 -7.19 7.45 -7.19 6.42 C-6.39 2.26 -4.37 -0.31 0 0 Z M44.31 248.81 C44.31 249.8 44.31 250.79 44.31 251.81 C45.3 251.81 46.29 251.81 47.31 251.81 C47.31 250.82 47.31 249.83 47.31 248.81 C46.32 248.81 45.33 248.81 44.31 248.81 Z M32.31 260.81 C32.31 262.79 32.31 264.77 32.31 266.81 C33.3 266.81 34.29 266.81 35.31 266.81 C35.31 264.83 35.31 262.85 35.31 260.81 C34.32 260.81 33.33 260.81 32.31 260.81 Z " transform="translate(957.6875,717.1875)"/>
    <path d="M0 0 C0.66 0.66 1.32 1.32 2 2 C4.49 2.26 4.49 2.26 7.59 2.27 C8.71 2.27 9.82 2.27 10.96 2.27 C11.54 2.27 12.12 2.27 12.72 2.26 C14.49 2.25 16.26 2.26 18.04 2.27 C19.15 2.27 20.26 2.27 21.41 2.27 C21.92 2.26 21.92 2.26 24.51 2.26 C27 2 27 2 29 0 C31.25 -0.14 33.38 -0.19 35.62 -0.12 C35.93 -0.12 35.93 -0.12 37.48 -0.1 C38.98 -0.07 40.49 -0.04 42 0 C42.29 0.8 42.58 1.61 42.88 2.44 C44 5 44 5 46 6 C46 6.99 46 7.98 46 9 C45.34 9.33 44.68 9.66 44 10 C43.95 26.92 43.92 43.83 43.9 60.75 C43.89 68.6 43.87 76.45 43.85 84.31 C43.83 91.15 43.82 97.99 43.81 104.84 C43.81 108.46 43.8 112.09 43.79 115.71 C43.78 119.12 43.77 122.53 43.77 125.94 C43.77 127.2 43.77 128.45 43.76 129.7 C43.75 131.41 43.76 133.12 43.76 134.82 C43.76 135.3 43.76 135.3 43.75 137.72 C44 140 44 140 46 142 C46.27 143.66 46.27 143.66 46.25 145.5 C46.25 145.8 46.25 145.8 46.27 147.34 C46 149 46 149 44 151 C43.75 153.13 43.75 153.13 43.75 155.82 C43.74 156.33 43.74 156.33 43.73 158.91 C43.73 160.03 43.74 161.15 43.74 162.3 C43.74 163.49 43.73 164.68 43.73 165.87 C43.72 169.1 43.73 172.34 43.73 175.57 C43.74 178.95 43.73 182.33 43.73 185.71 C43.72 191.39 43.73 197.06 43.74 202.74 C43.75 209.31 43.75 215.87 43.74 222.44 C43.73 228.07 43.73 233.71 43.73 239.34 C43.73 242.71 43.73 246.07 43.73 249.44 C43.72 252.61 43.73 255.77 43.74 258.94 C43.74 260.66 43.74 262.37 43.73 264.09 C43.73 265.11 43.74 266.13 43.75 267.18 C43.75 267.62 43.75 267.62 43.75 269.87 C44 272 44 272 46 274 C45.79 276.69 45.4 278.45 43.8 280.64 C41.27 282.55 39.46 282.37 36.31 282.36 C35.2 282.36 34.09 282.36 32.95 282.36 C32.37 282.35 31.8 282.34 31.2 282.34 C29.44 282.31 27.68 282.32 25.92 282.32 C17.27 282.27 17.27 282.27 15 280 C12.69 279.73 12.69 279.73 10 279.75 C9.11 279.74 8.23 279.74 7.31 279.73 C5 280 5 280 3 282 C-1.53 282.68 -5.65 282.8 -9.62 280.44 C-11.57 276.98 -11.44 274.94 -11 271 C-10.34 270.34 -9.68 269.68 -9 269 C-8.75 266.96 -8.75 266.96 -8.75 264.41 C-8.74 263.44 -8.73 262.47 -8.73 261.48 C-8.73 260.41 -8.74 259.35 -8.74 258.25 C-8.74 257.13 -8.73 256.01 -8.73 254.86 C-8.72 251.79 -8.73 248.71 -8.73 245.64 C-8.74 242.43 -8.73 239.22 -8.73 236.01 C-8.72 230.61 -8.73 225.22 -8.74 219.83 C-8.75 213.59 -8.75 207.34 -8.74 201.1 C-8.73 195.75 -8.73 190.4 -8.73 185.05 C-8.73 181.85 -8.73 178.65 -8.73 175.45 C-8.72 171.88 -8.73 168.32 -8.74 164.75 C-8.74 163.69 -8.73 162.62 -8.73 161.52 C-8.73 160.56 -8.74 159.59 -8.75 158.59 C-8.75 157.75 -8.75 156.91 -8.75 156.04 C-9 154 -9 154 -11 152 C-11.2 149.78 -11.28 147.72 -11.25 145.5 C-11.26 144.91 -11.27 144.31 -11.27 143.7 C-11.25 139.25 -11.25 139.25 -9 137 C-8.75 134.82 -8.75 134.82 -8.75 132.07 C-8.74 131.02 -8.73 129.98 -8.73 128.9 C-8.73 127.76 -8.74 126.61 -8.74 125.42 C-8.74 124.2 -8.73 122.98 -8.73 121.77 C-8.72 118.45 -8.73 115.14 -8.73 111.82 C-8.74 108.36 -8.73 104.9 -8.73 101.43 C-8.72 95.62 -8.73 89.8 -8.74 83.98 C-8.75 77.25 -8.75 70.52 -8.74 63.79 C-8.73 58.01 -8.73 52.24 -8.73 46.47 C-8.73 43.02 -8.73 39.57 -8.73 36.11 C-8.72 32.87 -8.73 29.63 -8.74 26.38 C-8.74 24.62 -8.74 22.86 -8.73 21.1 C-8.73 20.05 -8.74 19.01 -8.75 17.93 C-8.75 17.02 -8.75 16.11 -8.75 15.18 C-9 13 -9 13 -11 11 C-11.45 6.95 -11.65 5.01 -9.44 1.56 C-5.99 -0.65 -4.05 -0.45 0 0 Z " transform="translate(1106,717)"/>
    <path d="M0 0 C0.38 0 0.38 0 2.28 0.01 C3.08 0 3.87 -0 4.69 -0.01 C7.32 -0.02 9.95 -0.02 12.58 -0.02 C14.41 -0.02 16.24 -0.03 18.06 -0.03 C21.89 -0.04 25.73 -0.04 29.56 -0.03 C34.47 -0.03 39.38 -0.04 44.29 -0.07 C48.07 -0.08 51.84 -0.08 55.61 -0.08 C57.42 -0.08 59.23 -0.09 61.04 -0.1 C63.58 -0.11 66.11 -0.1 68.64 -0.09 C69.39 -0.1 70.14 -0.11 70.91 -0.11 C74.19 -0.08 76.16 0.05 79.09 1.62 C80.59 3.28 80.59 3.28 80.59 6.28 C79.6 6.28 78.61 6.28 77.59 6.28 C77.59 7.27 77.59 8.26 77.59 9.28 C78.58 9.28 79.57 9.28 80.59 9.28 C80.59 12.28 80.59 12.28 79.09 13.95 C75.56 15.83 72.56 15.68 68.61 15.62 C68.21 15.62 68.21 15.62 66.18 15.62 C63.54 15.62 60.9 15.6 58.26 15.58 C56.43 15.57 54.6 15.57 52.77 15.56 C47.95 15.55 43.13 15.52 38.31 15.49 C33.39 15.46 28.46 15.44 23.54 15.43 C13.89 15.4 4.24 15.35 -5.41 15.28 C-5.57 14.79 -5.57 14.79 -6.41 12.28 C-7.03 12.78 -7.65 13.27 -8.28 13.78 C-10.41 15.28 -10.41 15.28 -12.41 15.28 C-12.57 14.95 -12.57 14.95 -13.41 13.28 C-17.04 13.12 -17.04 13.12 -35.41 12.28 C-35.57 11.79 -35.57 11.79 -36.41 9.28 C-37.4 9.28 -38.39 9.28 -39.41 9.28 C-39.74 10.27 -40.07 11.26 -40.41 12.28 C-44.77 12.33 -49.13 12.37 -53.49 12.39 C-54.97 12.4 -56.45 12.42 -57.94 12.43 C-60.07 12.46 -62.2 12.47 -64.33 12.48 C-65 12.49 -65.66 12.5 -66.34 12.51 C-72.02 12.51 -72.02 12.51 -74.41 10.28 C-75.07 10.61 -75.07 10.61 -78.41 12.28 C-78.74 11.62 -79.07 10.96 -79.41 10.28 C-85.02 9.95 -90.63 9.62 -96.41 9.28 C-96.41 8.29 -96.41 7.3 -96.41 6.28 C-96.02 6.27 -96.02 6.27 -94.05 6.22 C-91.17 6.14 -88.29 6.06 -85.41 5.96 C-84.16 5.93 -82.91 5.89 -81.67 5.86 C-79.87 5.81 -78.08 5.76 -76.29 5.7 C-75.75 5.68 -75.75 5.68 -73.02 5.6 C-70.41 5.28 -70.41 5.28 -68.41 3.28 C-66.1 3.02 -66.1 3.02 -63.41 3.03 C-62.52 3.03 -61.63 3.02 -60.72 3.02 C-58.41 3.28 -58.41 3.28 -56.41 5.28 C-51.85 4.73 -51.85 4.73 -50.41 3.28 C-49.07 3.17 -47.72 3.13 -46.38 3.11 C-45.52 3.1 -44.67 3.08 -43.79 3.07 C-42.86 3.06 -41.93 3.05 -40.97 3.04 C-39.03 3 -37.08 2.97 -35.13 2.94 C-32.05 2.89 -28.96 2.84 -25.88 2.81 C-22.91 2.77 -19.94 2.71 -16.97 2.66 C-16.51 2.66 -16.51 2.66 -14.17 2.64 C-13.31 2.62 -12.45 2.6 -11.57 2.59 C-10.81 2.57 -10.05 2.56 -9.27 2.55 C-5.78 2.04 -4.14 0.04 0 0 Z " transform="translate(165.40823364257813,1802.7178344726563)"/>
    <path d="M0 0 C0.39 0 0.39 0 2.39 0 C3.21 -0 4.04 -0.01 4.89 -0.01 C7.64 -0.02 10.38 -0.02 13.12 -0.02 C15.02 -0.02 16.92 -0.03 18.82 -0.03 C22.81 -0.04 26.8 -0.04 30.79 -0.04 C35.9 -0.04 41.02 -0.05 46.14 -0.07 C50.07 -0.08 53.99 -0.08 57.92 -0.08 C59.81 -0.08 61.69 -0.09 63.58 -0.1 C66.22 -0.11 68.85 -0.1 71.49 -0.1 C72.28 -0.1 73.06 -0.11 73.87 -0.11 C79.28 -0.08 79.28 -0.08 81.5 2.15 C83.93 2.41 83.93 2.41 87.02 2.43 C88.18 2.45 89.33 2.46 90.52 2.47 C91.14 2.48 91.76 2.48 92.4 2.48 C94.33 2.49 96.26 2.51 98.19 2.53 C102.3 2.58 106.4 2.62 110.5 2.65 C115.26 2.68 120.01 2.72 124.77 2.78 C126.67 2.8 128.58 2.81 130.49 2.82 C131.64 2.83 132.79 2.85 133.98 2.86 C135 2.87 136.02 2.87 137.07 2.88 C139.5 3.15 139.5 3.15 141.5 5.15 C144.12 5.47 144.12 5.47 147.39 5.56 C147.96 5.58 148.53 5.6 149.13 5.62 C150.96 5.68 152.79 5.73 154.63 5.77 C155.87 5.81 157.12 5.85 158.36 5.89 C161.41 5.98 164.46 6.07 167.5 6.15 C167.5 7.14 167.5 8.13 167.5 9.15 C166.91 9.17 166.31 9.19 165.7 9.21 C163.01 9.3 160.32 9.41 157.63 9.52 C156.69 9.55 155.75 9.58 154.79 9.62 C154.34 9.63 154.34 9.63 152.07 9.73 C151.25 9.76 150.42 9.8 149.57 9.83 C147.5 10.15 147.5 10.15 145.5 12.15 C142.96 12.41 142.96 12.41 139.71 12.43 C139.41 12.44 139.41 12.44 137.91 12.45 C136.63 12.47 135.34 12.48 134.06 12.48 C132.02 12.49 129.99 12.51 127.95 12.53 C122.9 12.59 117.85 12.63 112.8 12.66 C108.53 12.69 104.27 12.73 100 12.78 C97.99 12.8 95.99 12.81 93.98 12.82 C92.75 12.83 91.53 12.85 90.3 12.86 C89.23 12.87 88.15 12.87 87.05 12.88 C84.5 13.15 84.5 13.15 82.5 15.15 C80.89 15.4 80.89 15.4 78.93 15.39 C78.56 15.4 78.56 15.4 76.68 15.41 C75.87 15.4 75.05 15.4 74.21 15.39 C73.36 15.39 72.5 15.39 71.62 15.4 C68.78 15.4 65.93 15.39 63.09 15.38 C61.13 15.38 59.16 15.38 57.19 15.38 C53.06 15.37 48.94 15.37 44.81 15.35 C39.51 15.34 34.21 15.33 28.9 15.33 C24.84 15.33 20.78 15.33 16.71 15.32 C14.76 15.32 12.8 15.31 10.85 15.31 C8.12 15.31 5.39 15.3 2.66 15.29 C2.26 15.29 2.26 15.29 0.19 15.29 C-5.38 15.26 -5.38 15.26 -6.5 14.15 C-6.6 11.97 -6.64 9.83 -6.62 7.65 C-6.63 7.04 -6.63 6.43 -6.63 5.81 C-6.62 -0.13 -5.81 0.03 0 0 Z " transform="translate(1152.4964141845703,1802.8533630371094)"/>
    <path d="M0 0 C0.99 0 1.98 0 3 0 C3.31 0.97 3.62 1.94 3.94 2.94 C5 6 5 6 6 7 C6.22 8.77 6.45 10.54 6.62 12.31 C7 14 7 14 9 16 C9.34 18.53 9.44 21.04 9.56 23.59 C10.1 26.53 10.6 27.24 13 29 C15.3 29.33 17.34 29.49 19.64 29.51 C20.28 29.53 20.92 29.55 21.57 29.57 C23.61 29.62 25.65 29.65 27.69 29.69 C29.07 29.72 30.45 29.76 31.84 29.79 C35.23 29.88 38.61 29.94 42 30 C42 30.99 42 31.98 42 33 C39.94 34.91 38.13 35.95 35.5 36.94 C33 38 33 38 31 40 C29 42 29 42 26.56 42.94 C23.01 44.41 21.4 45.97 19 49 C19.19 53.19 19.19 53.19 21 55 C21.22 56.77 21.45 58.54 21.62 60.31 C22 62 22 62 24 64 C24.2 65.95 24.2 65.95 24.12 68.12 C24.11 68.85 24.09 69.57 24.07 70.32 C24.05 70.87 24.02 71.43 24 72 C24.99 72.33 25.98 72.66 27 73 C26.67 74.65 26.34 76.3 26 78 C21.58 77.51 20.03 76.13 17 73 C16.17 72.67 15.35 72.34 14.5 72 C11.58 70.83 10.21 69.21 8 67 C5.56 65.81 5.56 65.81 3 65 C2.2 64.74 1.41 64.48 0.59 64.21 C-2 64 -2 64 -4.06 65.58 C-4.38 65.95 -4.38 65.95 -6 67.81 C-8.85 71.06 -10.96 72.51 -15 74 C-15.33 74.36 -15.33 74.36 -17 76.19 C-17.66 76.79 -18.32 77.38 -19 78 C-21.75 77.75 -21.75 77.75 -24 77 C-23.67 75.35 -23.34 73.7 -23 72 C-22.34 72 -21.68 72 -21 72 C-21.01 71.72 -21.01 71.72 -21.07 70.32 C-21.08 69.96 -21.08 69.96 -21.12 68.12 C-21.15 67.41 -21.17 66.69 -21.2 65.95 C-21 64 -21 64 -19 62 C-18.66 60.34 -18.66 60.34 -18.5 58.5 C-18.25 55.59 -18.2 55.2 -16 53 C-16.33 49.7 -16.62 48.38 -19 46 C-19.72 45.77 -20.44 45.55 -21.19 45.31 C-24.68 43.68 -26.65 41.39 -29.29 38.62 C-31.34 36.68 -33.28 35.74 -36 35 C-35.67 33.35 -35.34 31.7 -35 30 C-34.26 29.99 -33.52 29.97 -32.75 29.96 C-30 29.89 -27.24 29.82 -24.48 29.74 C-23.29 29.7 -22.1 29.68 -20.91 29.65 C-19.19 29.62 -17.48 29.57 -15.76 29.51 C-15.25 29.5 -15.25 29.5 -12.64 29.43 C-9.67 28.95 -8.74 28.41 -7 26 C-6.56 23.59 -6.56 23.59 -6.44 20.94 C-6.21 16.21 -6.21 16.21 -4 14 C-3.66 12.34 -3.66 12.34 -3.5 10.5 C-3.25 7.59 -3.2 7.2 -1 5 C-0.38 2.38 -0.38 2.38 0 0 Z " transform="translate(690,1860)"/>
    <path d="M0 0 C0.81 0 1.62 0 2.45 0 C2.91 0 2.91 0 5.23 -0.01 C6.23 0 7.22 0.01 8.24 0.02 C9.26 0.02 10.27 0.02 11.32 0.02 C13.47 0.02 15.62 0.03 17.77 0.04 C21.07 0.06 24.37 0.06 27.68 0.06 C29.76 0.07 31.85 0.07 33.93 0.08 C34.43 0.08 34.43 0.08 36.94 0.08 C37.86 0.09 38.77 0.1 39.72 0.1 C40.12 0.1 40.12 0.1 42.17 0.11 C44.02 0.25 44.02 0.25 45.02 1.25 C45.12 3.43 45.16 5.57 45.14 7.75 C45.15 8.35 45.15 8.96 45.16 9.59 C45.15 14.12 45.15 14.12 44.02 15.25 C42.22 15.35 40.42 15.39 38.61 15.39 C37.46 15.4 36.3 15.41 35.11 15.41 C33.84 15.41 32.57 15.41 31.31 15.42 C30.01 15.42 28.72 15.42 27.42 15.43 C24.71 15.43 21.99 15.43 19.27 15.43 C15.79 15.43 12.3 15.45 8.82 15.46 C6.15 15.47 3.47 15.48 0.8 15.48 C-0.49 15.48 -1.77 15.48 -3.06 15.49 C-4.85 15.5 -6.65 15.5 -8.44 15.49 C-8.96 15.49 -8.96 15.49 -11.54 15.49 C-13.98 15.25 -13.98 15.25 -15.98 13.25 C-18.31 13.03 -20.52 12.92 -22.85 12.9 C-23.53 12.89 -24.21 12.87 -24.91 12.86 C-27.08 12.81 -29.25 12.78 -31.42 12.75 C-34.27 12.71 -37.12 12.65 -39.98 12.59 C-40.63 12.59 -41.29 12.58 -41.97 12.57 C-47.59 12.45 -47.59 12.45 -49.98 10.25 C-50.64 10.91 -51.3 11.57 -51.98 12.25 C-53.64 12.51 -53.64 12.51 -55.48 12.5 C-55.78 12.5 -55.78 12.5 -57.32 12.51 C-58.98 12.25 -58.98 12.25 -60.98 10.25 C-63.59 9.93 -63.59 9.93 -66.86 9.83 C-67.15 9.82 -67.15 9.82 -68.6 9.77 C-70.44 9.71 -72.27 9.67 -74.11 9.62 C-75.35 9.58 -76.59 9.55 -77.84 9.51 C-80.88 9.41 -83.93 9.32 -86.98 9.25 C-86.98 8.26 -86.98 7.27 -86.98 6.25 C-86.32 6.24 -85.66 6.23 -84.98 6.22 C-78.77 6.14 -72.56 6.06 -66.35 5.96 C-63.16 5.91 -59.97 5.86 -56.78 5.83 C-53.7 5.79 -50.62 5.74 -47.54 5.69 C-45.79 5.66 -44.04 5.64 -42.29 5.63 C-41.23 5.61 -40.17 5.59 -39.07 5.57 C-38.6 5.56 -38.6 5.56 -36.23 5.53 C-33.98 5.25 -33.98 5.25 -31.98 3.25 C-29.21 2.96 -29.21 2.96 -25.73 2.9 C-25.42 2.9 -25.42 2.9 -23.87 2.86 C-21.24 2.8 -18.61 2.76 -15.98 2.72 C-14.07 2.68 -12.15 2.64 -10.23 2.59 C-9.08 2.57 -7.93 2.55 -6.75 2.53 C-3.5 2.2 -3.02 0.38 0 0 Z " transform="translate(578.9801177978516,1889.7527618408203)"/>
    <path d="M0 0 C0.79 -0.01 1.59 -0.01 2.41 -0.02 C3.27 -0.02 4.13 -0.02 5.02 -0.02 C5.91 -0.03 6.79 -0.03 7.7 -0.03 C9.56 -0.04 11.43 -0.04 13.3 -0.04 C16.17 -0.04 19.03 -0.06 21.9 -0.08 C23.71 -0.08 25.52 -0.08 27.34 -0.09 C27.77 -0.09 27.77 -0.09 29.95 -0.11 C30.74 -0.1 31.54 -0.1 32.36 -0.1 C33.07 -0.1 33.77 -0.1 34.49 -0.1 C36.25 0.15 36.25 0.15 38.25 2.15 C40.45 2.41 40.45 2.41 43.22 2.43 C44.25 2.45 45.28 2.46 46.35 2.47 C46.91 2.48 46.91 2.48 49.75 2.49 C51.5 2.51 53.25 2.53 55 2.56 C58.08 2.59 61.16 2.62 64.25 2.65 C67.92 2.68 71.6 2.71 75.27 2.76 C77.56 2.79 79.85 2.81 82.14 2.82 C83.18 2.83 84.21 2.84 85.28 2.86 C86.19 2.87 87.1 2.87 88.05 2.88 C90.25 3.15 90.25 3.15 92.25 5.15 C93.93 5.42 93.93 5.42 95.96 5.46 C96.72 5.48 97.48 5.5 98.27 5.52 C99.09 5.54 99.91 5.55 100.75 5.56 C101.59 5.58 102.44 5.6 103.3 5.62 C105.99 5.68 108.68 5.72 111.37 5.77 C113.19 5.81 115.01 5.85 116.84 5.89 C121.31 5.98 125.78 6.07 130.25 6.15 C130.25 7.14 130.25 8.13 130.25 9.15 C125.46 9.31 125.46 9.31 101.25 10.15 C100.92 10.81 100.59 11.47 100.25 12.15 C99.26 12.15 98.27 12.15 97.25 12.15 C97.08 11.82 97.08 11.82 96.25 10.15 C95.13 10.1 94.02 10.06 92.87 10.02 C92.24 10 91.62 9.97 90.97 9.95 C89.25 10.15 89.25 10.15 87.25 12.15 C85.27 12.41 85.27 12.41 82.83 12.43 C81.91 12.45 81 12.46 80.06 12.47 C79.56 12.48 79.56 12.48 77.06 12.49 C76.05 12.5 75.03 12.52 73.99 12.53 C69.64 12.6 65.29 12.64 60.94 12.68 C57.77 12.71 54.6 12.76 51.43 12.8 C50.94 12.8 50.94 12.8 48.44 12.82 C47.52 12.83 46.61 12.84 45.66 12.86 C45.26 12.86 45.26 12.86 43.22 12.88 C41.25 13.15 41.25 13.15 39.25 15.15 C37.51 15.41 37.51 15.41 35.41 15.44 C34.62 15.45 33.84 15.46 33.02 15.47 C32.6 15.48 32.6 15.48 30.44 15.48 C30 15.48 30 15.48 27.79 15.5 C25.93 15.51 24.08 15.52 22.23 15.52 C19.39 15.52 16.55 15.56 13.72 15.59 C11.92 15.6 10.12 15.6 8.32 15.61 C7.47 15.62 6.62 15.63 5.75 15.65 C-0.13 15.6 -0.13 15.6 -3.29 13.28 C-5.1 10.64 -5.2 9.13 -5.07 5.96 C-5.04 5.08 -5.02 4.2 -4.99 3.29 C-4.59 -0.32 -3.28 0.02 0 0 Z " transform="translate(763.753662109375,1889.854736328125)"/>
  </g>
</svg>
